<svg width="108" height="120" viewBox="0 0 108 120" fill="none" xmlns="http://www.w3.org/2000/svg">
<g clip-path="url(#clip0_2050_75431)">
<path d="M37.6429 109.411C37.5983 109.411 37.1543 112.469 37.0884 112.809C36.8066 114.263 36.5284 115.875 37.0355 117.334C38.3106 121.001 44.0561 120.602 44.8552 116.826C45.0581 115.869 44.9487 114.876 44.8974 113.909C44.8663 113.32 44.4831 109.411 43.648 109.411C43.6472 109.411 37.6429 109.411 37.6429 109.411Z" fill="#F8AF61"/>
<path d="M67.18 109.529C67.1354 109.529 66.6914 112.587 66.6255 112.927C66.3438 114.381 66.0655 115.993 66.5726 117.452C67.8477 121.119 73.5932 120.72 74.3923 116.944C74.5952 115.986 74.4859 114.994 74.4346 114.027C74.4034 113.438 74.0202 109.529 73.1851 109.529C73.1844 109.529 67.18 109.529 67.18 109.529Z" fill="#F8AF61"/>
<path d="M19.1472 105.356C19.1472 105.356 11.953 103.94 7.75137 105.838C7.75137 105.838 3.18702 107.435 0.980623 109.242C-1.22578 111.049 0.980623 111.863 0.980623 111.863C0.980623 111.863 4.33423 114.04 11.3485 110.628C11.3485 110.628 11.6677 110.588 11.513 110.789C11.3587 110.99 8.88002 112.938 9.22256 114.725C9.56511 116.512 15.9933 114.222 15.9933 114.222C15.9933 114.222 19.5399 112.053 21.1922 107.816L19.1472 105.356Z" fill="#564C4B"/>
<path d="M91.3336 70.8934C89.643 71.3106 89.8497 70.7549 88.5459 71.8876C85.5534 74.4875 85.1994 78.2154 86.4665 81.836C87.8359 85.7487 91.418 87.8402 95.0009 89.7909C96.7732 90.7556 98.5199 92.5509 100.428 93.2159C101.379 93.5471 102.7 94.0237 103.686 94.2294C104.676 94.4355 105.666 94.1748 106.145 93.9081C106.599 93.6548 107.205 93.2824 107.616 92.9241C108.033 92.5596 108.032 91.9409 107.972 91.4356C107.806 90.0437 107.596 88.6264 107.112 87.3041C105.067 81.7243 101.855 76.8704 97.1974 73.3635C94.4768 71.315 94.1039 72.739 93.126 71.8832C92.892 71.6779 91.6398 70.8178 91.3336 70.8934Z" fill="#564C4B"/>
<path d="M38.3329 26.544C37.0697 26.4642 35.4363 25.3095 34.409 24.6783C32.9501 23.7824 31.6423 22.6368 30.6146 21.267C29.7524 20.1174 28.3873 18.105 29.2524 16.6511C29.6774 15.9365 30.5326 15.6191 31.3056 15.4461C32.263 15.2317 33.2749 15.1369 34.2524 15.2313C35.6766 15.369 36.9904 15.9388 38.2011 16.6774C39.2875 17.3401 40.4683 18.1589 41.254 19.1783C41.2702 19.1991 41.2859 19.2204 41.3013 19.242C40.4174 17.9981 39.4975 16.8925 38.8274 15.4905C37.312 12.3211 36.8905 8.87081 37.355 5.4068C37.5981 3.59338 38.0922 1.50939 39.7994 0.533268C41.887 -0.660338 44.4186 0.376742 46.327 1.43506C51.5149 4.3123 54.7371 9.679 53.814 15.6474C53.8582 15.3607 54.3093 14.9356 54.4794 14.7205C55.0666 13.9795 55.7296 13.2944 56.4585 12.6907C58.5741 10.9379 61.3298 10.0231 64.0899 10.3377C69.0824 10.9068 63.9403 19.0257 62.5564 20.9728C61.9514 21.8243 61.2268 22.6002 60.449 23.2963C60.0011 23.6975 59.5299 24.0731 59.0453 24.429C58.7051 24.6787 57.7596 25.5797 57.346 25.5703C61.3969 25.6623 65.5449 26.5031 69.3926 27.7172C72.7979 28.7916 76.1085 30.2916 78.9897 32.4153C80.4945 33.5244 81.8753 34.8045 83.0513 36.2573C85.6294 39.4409 87.7569 43.505 89.2913 47.2927C89.8268 48.6145 90.3418 49.932 90.7451 51.3018C91.2471 53.0063 91.6161 54.7497 91.8445 56.5116C91.9665 57.4511 92.0482 58.3954 92.0896 59.3416C92.1232 60.1089 91.9519 61.0764 92.1804 61.8071C92.2526 62.0383 92.3741 62.2507 92.4945 62.4611C95.7609 68.1664 98.2625 74.3268 99.3339 80.8367C100.681 89.0205 99.416 97.5063 94.3773 104.277C93.326 105.69 92.1433 107.004 90.8631 108.213C90.8631 108.213 83.6488 116.751 55.4675 116.527C27.2863 116.302 19.9591 108.438 19.9591 108.438C19.9591 108.438 9.58851 101.361 10.0392 92.8231C10.4903 84.2854 10.5277 82.3009 10.6781 82.076C10.4571 82.4067 9.02656 80.926 8.93855 80.7636C7.55575 78.2234 9.3908 74.2996 10.4019 71.9931C11.085 70.4345 12.3936 68.7391 12.7539 67.0861C13.098 65.5075 12.6513 63.4518 12.596 61.8323C12.5278 59.8407 12.5005 57.8468 12.5526 55.8544C12.656 51.902 13.0656 47.9318 14.1209 44.1111C14.5641 42.5061 15.1529 40.8811 16.1639 39.5376C19.4678 35.1474 24.4236 31.7774 29.2701 29.2907C31.9477 27.9174 35.2327 26.3454 38.3329 26.544Z" fill="#FFFCFC"/>
<path d="M58.4839 79.9101L60.4567 77.27L59.9871 76.802C58.2992 76.802 56.6114 76.802 54.9235 76.802C54.7578 76.802 54.5916 76.802 54.4259 76.802L53.9563 77.27L55.929 79.9101L53.1484 92.829L57.2065 96.7983L61.2645 92.829L58.4839 79.9101Z" fill="#AA1F1B"/>
<path d="M60.7905 52.7026C60.5758 54.9589 60.9989 57.0893 61.6871 59.2464C62.9728 63.2772 66.8691 65.955 70.9358 66.6326C73.6134 67.0786 75.6465 67.184 78.3695 67.1498C80.7476 67.1199 83.2168 66.6755 85.3123 65.4662C89.2381 63.2009 91.6833 58.1696 92.0905 53.7885" stroke="#D0EAF3" stroke-miterlimit="10"/>
<path d="M51.884 52.7026C52.0987 54.9589 51.6757 57.0893 50.9874 59.2464C49.7017 63.2772 45.8055 65.955 41.7388 66.6326C39.0612 67.0786 37.028 67.184 34.305 67.1498C31.927 67.1199 29.4577 66.6755 27.3622 65.4662C23.4364 63.2009 20.9912 58.1696 20.584 53.7885" stroke="#D0EAF3" stroke-miterlimit="10"/>
<path d="M98.6226 45.5395C98.6163 45.4101 98.559 44.9292 98.4596 44.8367C98.3451 44.7306 97.6672 44.7833 97.4785 44.7703C97.0922 44.7431 96.7058 44.7148 96.3199 44.6841C95.5188 44.62 94.7184 44.5457 93.9209 44.4497C92.409 44.2681 90.9497 43.8586 89.4528 43.6325C86.3186 43.1594 83.0325 43.1452 79.8688 43.0933C76.6584 43.0406 73.3273 43.1909 70.1027 43.5881C67.0412 43.9652 63.4153 44.5823 60.8746 46.4834C60.7901 46.5463 60.7077 46.6116 60.6268 46.6797C60.126 47.1005 59.7732 47.5921 59.5021 48.1871C59.2708 48.6952 59.1181 49.2423 58.9661 49.7803C58.9259 49.9226 58.8864 50.0654 58.8474 50.2086C58.8055 50.2046 58.7633 50.2011 58.7215 50.1975C58.6114 50.1881 58.5013 50.1791 58.3912 50.17C58.2365 50.1574 58.0818 50.1456 57.9271 50.1346C57.7515 50.122 57.5762 50.1098 57.4006 50.0992C57.2278 50.0886 57.0553 50.0796 56.8821 50.0725C56.5502 50.0595 56.1958 50.0603 55.8556 50.0689C55.7325 50.0721 55.6098 50.0772 55.4867 50.0831C55.3537 50.0894 55.2211 50.0973 55.0881 50.1055C54.9559 50.1138 54.8237 50.1228 54.6915 50.1323C54.5703 50.1409 54.4492 50.1503 54.328 50.1598C54.2286 50.1677 54.1291 50.1759 54.0297 50.1842C53.9622 50.1897 53.8947 50.1956 53.8276 50.2015C53.8027 50.2038 53.7779 50.2058 53.753 50.2082C53.714 50.0654 53.6745 49.9226 53.6342 49.7799C53.4823 49.2419 53.3296 48.6948 53.0983 48.1867C52.8272 47.5917 52.4748 47.1005 51.9736 46.6793C51.8931 46.6116 51.8102 46.5463 51.7258 46.483C49.1851 44.5819 45.5588 43.9648 42.4977 43.5877C39.2731 43.1905 35.942 43.0402 32.7316 43.0929C29.5679 43.1448 26.2817 43.159 23.1475 43.6321C21.6507 43.8583 20.1909 44.2677 18.6795 44.4494C17.8815 44.5453 17.0812 44.6196 16.2805 44.6838C15.8946 44.7148 15.5082 44.7427 15.1219 44.7699C14.9332 44.7833 14.2556 44.7302 14.1408 44.8363C14.0414 44.9288 13.9841 45.4097 13.9778 45.5391C13.9644 45.8176 14.0599 46.0705 14.1937 46.3096C14.5339 46.9192 14.8602 47.5244 15.1838 48.1427C15.3752 48.5084 15.7454 49.3736 16.2529 49.365C16.2592 49.365 17.8326 49.337 18.247 49.365C18.6625 49.3929 18.773 49.8145 18.773 49.8145C19.1898 51.4037 18.2217 55.3428 20.73 55.4659C23.2565 55.5898 22.7584 52.5368 22.7979 50.8818C22.7979 50.8818 22.7056 48.6913 25.0043 47.596C27.303 46.5007 37.1906 46.1916 42.148 46.5849C43.573 46.6977 45.0304 46.8094 46.3927 47.2794C48.0356 47.8461 49.521 49.0389 49.9977 50.7871C50.2049 51.5473 50.3055 52.3496 50.3497 53.1357C50.3607 53.3308 50.4117 53.765 50.5644 53.8838C51.2049 54.3813 52.208 54.1787 52.8927 53.9129C52.9361 53.8959 52.9807 53.8779 53.0127 53.844C53.1015 53.7493 53.0719 53.3969 53.0833 53.2675C53.094 53.1464 53.1046 53.0252 53.1153 52.9041C53.1208 52.8777 53.1279 52.8522 53.1366 52.8266C53.1642 52.7472 53.2088 52.6748 53.2633 52.6111C53.3225 52.5419 53.3927 52.4837 53.4677 52.4329C53.5518 52.3763 53.6417 52.3291 53.7341 52.2882C53.8355 52.2434 53.9401 52.206 54.0462 52.1738C54.1591 52.1396 54.2732 52.1108 54.3884 52.0861C54.5064 52.0605 54.6252 52.0397 54.7443 52.0216C54.8619 52.0039 54.9803 51.9889 55.0983 51.9767C55.2104 51.9649 55.3225 51.9555 55.4346 51.948C55.5352 51.9413 55.6362 51.9358 55.7369 51.9319C56.1765 51.915 56.6208 51.9221 57.0601 51.9476C57.1638 51.9539 57.2672 51.9614 57.3706 51.9708C57.4807 51.9807 57.5908 51.9929 57.7002 52.007C57.8126 52.0216 57.9247 52.0385 58.0364 52.0589C58.1469 52.079 58.257 52.1022 58.3659 52.1293C58.4705 52.1557 58.5743 52.1856 58.6765 52.221C58.7712 52.254 58.8647 52.2918 58.9551 52.3366C59.0368 52.3771 59.1157 52.4239 59.1887 52.479C59.2542 52.5285 59.3146 52.5851 59.3647 52.6508C59.4113 52.7122 59.4484 52.781 59.4705 52.8549C59.4752 52.8714 59.4796 52.888 59.4831 52.9045C59.4938 53.0256 59.5044 53.1467 59.5151 53.2679C59.5265 53.3973 59.4969 53.75 59.5857 53.8444C59.6177 53.8786 59.6623 53.8967 59.7057 53.9132C60.3908 54.1791 61.3939 54.3813 62.034 53.8841C62.1868 53.7658 62.2377 53.3316 62.2487 53.1361C62.2929 52.35 62.3935 51.5477 62.6007 50.7875C63.0774 49.0393 64.5629 47.8465 66.2057 47.2798C67.568 46.8094 69.0254 46.6981 70.4504 46.5853C75.4078 46.192 85.2954 46.5011 87.5941 47.5964C89.8929 48.6917 89.8005 50.8822 89.8005 50.8822C89.8404 52.5372 89.3419 55.5902 91.8684 55.4663C94.3767 55.3432 93.4087 51.4041 93.8254 49.8149C93.8254 49.8149 93.9363 49.3937 94.3514 49.3654C94.7662 49.3374 96.3392 49.3654 96.3455 49.3654C96.853 49.374 97.2232 48.5088 97.4146 48.143C97.7378 47.5248 98.0642 46.9196 98.4047 46.31C98.5401 46.0705 98.636 45.818 98.6226 45.5395Z" fill="#101728"/>
<path d="M62.12 62.6685C62.0955 62.5497 62.0087 62.4369 61.9404 62.3401C61.8212 62.1702 61.6882 62.0098 61.5517 61.854C60.9077 61.1182 60.1393 60.4956 59.264 60.0449C58.8484 59.831 58.4088 59.658 57.951 59.5569C57.1681 59.3838 56.3046 59.3823 55.5142 59.5569C55.0568 59.658 54.6172 59.831 54.2012 60.0449C53.3259 60.4956 52.5576 61.1182 51.9135 61.854C51.777 62.0102 51.644 62.1706 51.5248 62.3401C51.4566 62.4373 51.3697 62.5497 51.3453 62.6685C51.2782 62.9918 51.2817 63.3241 51.4526 63.6163C51.5142 63.7217 51.5872 63.824 51.7008 63.8755C51.9341 63.9813 52.2123 63.9589 52.4589 63.9278C52.6507 63.9038 52.9037 63.7788 52.998 64.023C53.0311 64.1083 53.0674 64.1905 53.1124 64.2711C53.2052 64.4371 53.3169 64.5917 53.4278 64.7462C53.5817 64.961 53.7529 65.1698 53.9684 65.3259C54.4625 65.6834 55.1361 65.7778 55.73 65.8159C56.3997 65.8588 57.0651 65.8454 57.7344 65.8159C58.3283 65.7778 59.002 65.683 59.496 65.3259C59.7119 65.1698 59.8828 64.961 60.0367 64.7462C60.1476 64.5917 60.2593 64.4371 60.352 64.2711C60.397 64.1905 60.4333 64.1087 60.4664 64.023C60.5608 63.7788 60.8137 63.9034 61.0055 63.9278C61.2526 63.9589 61.5308 63.9813 61.7636 63.8755C61.8773 63.824 61.9503 63.7217 62.0118 63.6163C62.1835 63.3241 62.1871 62.9918 62.12 62.6685Z" fill="#F8AF61"/>
<path d="M11.6543 69.55C13.3899 69.6916 15.6362 70.3374 17.105 71.2466C20.4776 73.3342 21.4271 76.9575 20.7589 80.7337C20.0372 84.8148 17.0719 88.3539 13.8493 90.852C11.5292 92.6505 8.61644 94.5186 5.87452 95.5679C4.96212 95.9171 4.27664 95.7425 3.32084 95.6406C2.80347 95.5856 2.2202 95.2395 1.7573 94.9516C1.10063 94.5434 1.24783 93.9279 1.31373 93.2617C1.39502 92.437 1.54104 91.6178 1.69731 90.8041C2.81729 84.9694 4.62432 79.0603 7.77942 73.9791C8.46411 72.8764 9.21668 71.8145 10.0442 70.8132C10.2423 70.5733 11.3398 69.5245 11.6543 69.55Z" fill="#564C4B"/>
<path d="M70.8364 54.1574C70.827 53.9423 70.7634 53.7354 70.6071 53.5785C70.25 53.2202 69.7212 53.1231 69.2334 53.118C68.6869 53.1125 68.1079 53.1848 67.6131 53.4267C67.0471 53.7032 66.688 54.3238 66.6742 54.9444C66.6738 54.9577 66.6738 54.9707 66.6738 54.9841C66.6738 55.963 67.4702 56.7562 68.452 56.7562C69.5483 56.7562 70.4817 55.701 70.7618 54.7159C70.8112 54.5428 70.8447 54.347 70.8364 54.1574Z" fill="#010202"/>
<path d="M69.2806 54.6977C69.4809 54.6977 69.6433 54.5359 69.6433 54.3363C69.6433 54.1367 69.4809 53.9749 69.2806 53.9749C69.0803 53.9749 68.918 54.1367 68.918 54.3363C68.918 54.5359 69.0803 54.6977 69.2806 54.6977Z" fill="white"/>
<path d="M42.6555 54.1574C42.665 53.9423 42.7285 53.7354 42.8848 53.5785C43.242 53.2202 43.7708 53.1231 44.2585 53.118C44.8051 53.1125 45.384 53.1848 45.8789 53.4267C46.4448 53.7032 46.8039 54.3238 46.8178 54.9444C46.8181 54.9577 46.8181 54.9707 46.8181 54.9841C46.8181 55.963 46.0218 56.7562 45.0399 56.7562C43.9436 56.7562 43.0103 55.701 42.7301 54.7159C42.6812 54.5428 42.6473 54.347 42.6555 54.1574Z" fill="#010202"/>
<path d="M44.2123 54.6977C44.4126 54.6977 44.5749 54.5359 44.5749 54.3363C44.5749 54.1367 44.4126 53.9749 44.2123 53.9749C44.012 53.9749 43.8496 54.1367 43.8496 54.3363C43.8496 54.5359 44.012 54.6977 44.2123 54.6977Z" fill="white"/>
</g>
<defs>
<clipPath id="clip0_2050_75431">
<rect width="108" height="120" fill="white"/>
</clipPath>
</defs>
</svg>
