<svg width="55" height="55" viewBox="0 0 55 55" fill="none" xmlns="http://www.w3.org/2000/svg">
<path fill-rule="evenodd" clip-rule="evenodd" d="M16.4684 21.6779C13.9148 21.6779 11.4634 22.66 9.6091 24.4121C8.69099 25.2849 7.9598 26.3352 7.45992 27.4992C6.96005 28.6631 6.70191 29.9165 6.70117 31.1833C6.70044 32.4501 6.95712 33.7038 7.45565 34.8683C7.95418 36.0329 8.68414 37.084 9.60125 37.9579L26.1287 54.0257C26.4954 54.3821 26.9865 54.5815 27.4979 54.5815C28.0092 54.5815 28.5003 54.3821 28.867 54.0257L45.3984 37.9579C46.3149 37.084 47.0443 36.0332 47.5425 34.869C48.0406 33.7048 48.2971 32.4516 48.2964 31.1853C48.2957 29.919 48.0377 28.666 47.5382 27.5024C47.0387 26.3388 46.308 25.2888 45.3905 24.4161C43.5392 22.6586 41.0839 21.6788 38.5312 21.6788C35.9786 21.6788 33.5233 22.6586 31.672 24.4161L31.6327 24.4514L27.4998 28.5843L23.363 24.4514L23.3237 24.4121C21.4721 22.6581 19.019 21.6797 16.4684 21.6779Z" fill="#8EBEFA"/>
<path fill-rule="evenodd" clip-rule="evenodd" d="M27.4989 0.420349C25.0869 0.420349 22.7736 1.37853 21.0681 3.08411C19.3625 4.78968 18.4043 7.10294 18.4043 9.51499C18.4043 11.927 19.3625 14.2403 21.0681 15.9459C22.7736 17.6515 25.0869 18.6096 27.4989 18.6096C29.911 18.6096 32.2242 17.6515 33.9298 15.9459C35.6354 14.2403 36.5936 11.927 36.5936 9.51499C36.5936 7.10294 35.6354 4.78968 33.9298 3.08411C32.2242 1.37853 29.911 0.420349 27.4989 0.420349Z" fill="#0400FA"/>
</svg>
