<svg width="55" height="55" viewBox="0 0 55 55" fill="none" xmlns="http://www.w3.org/2000/svg">
<g clip-path="url(#clip0_1704_14834)">
<path fill-rule="evenodd" clip-rule="evenodd" d="M21.1554 20.5936L26.6711 15.6043C27.9396 14.4591 29.442 13.6034 31.0742 13.0967C32.7063 12.59 34.4291 12.4442 36.1232 12.6696L43.4225 13.6361L53.5504 8.16357C53.7 8.08257 53.8681 8.04185 54.0382 8.04538C54.2084 8.04891 54.3747 8.09658 54.5208 8.18372C54.667 8.27086 54.788 8.39447 54.872 8.54245C54.956 8.69043 55.0001 8.85769 55 9.02785V27.6414C54.9999 28.266 54.8509 28.8816 54.5653 29.437C54.2797 29.9925 53.8658 30.4718 53.3579 30.8354L46.5379 35.7107L39.1521 29.5193C40.5942 29.0019 41.8951 28.1543 42.9511 27.0443C43.1752 26.8121 43.3515 26.5381 43.4697 26.2378C43.588 25.9375 43.6459 25.6169 43.6403 25.2943C43.6346 24.9716 43.5655 24.6532 43.4368 24.3573C43.3081 24.0613 43.1223 23.7936 42.8902 23.5695C42.658 23.3453 42.384 23.1691 42.0837 23.0508C41.7834 22.9325 41.4628 22.8746 41.1402 22.8802C40.8175 22.8859 40.4991 22.9551 40.2032 23.0838C39.9072 23.2125 39.6395 23.3982 39.4154 23.6304C38.6899 24.3925 37.8348 24.8718 36.85 25.0682C35.9896 25.2371 34.8936 25.2096 33.5146 24.7854L31.7625 23.3121L26.8714 27.2761C25.9792 27.9827 24.8478 28.316 23.715 28.2061C22.5822 28.0962 21.536 27.5517 20.7962 26.6868C20.0564 25.8219 19.6805 24.7039 19.7474 23.5678C19.8144 22.4316 20.3191 21.3656 21.1554 20.5936ZM17.8632 16.9479L21.8232 13.3689C20.12 12.9089 18.3372 12.8245 16.5982 13.1214L9.38929 14.3707L1.47715 10.1121C1.32438 10.0298 1.15284 9.98854 0.97933 9.99243C0.805823 9.99632 0.636303 10.0452 0.48738 10.1343C0.338457 10.2234 0.21524 10.3497 0.129803 10.5008C0.0443647 10.6519 -0.000362918 10.8225 2.21778e-06 10.9961V27.6375C2.21778e-06 28.9654 0.656074 30.2068 1.75215 30.9532L23.1825 45.5636C24.5366 46.4883 26.1417 46.9755 27.7813 46.9593C29.421 46.9432 31.0162 46.4245 32.3518 45.4732L42.1968 38.4843L31.7075 29.6843L29.9593 31.0907C28.0718 32.5942 25.6744 33.3062 23.2722 33.0766C20.8701 32.847 18.6509 31.6937 17.0824 29.8598C15.514 28.026 14.7188 25.6548 14.8644 23.2461C15.0101 20.8374 16.0852 18.5793 17.8632 16.9479Z" fill="#0400FA"/>
<path fill-rule="evenodd" clip-rule="evenodd" d="M17.8632 16.9479L21.8232 13.3689C20.12 12.909 18.3372 12.8245 16.5982 13.1214L9.38929 14.3707L1.47715 10.1122C1.32438 10.0298 1.15284 9.98855 0.97933 9.99244C0.805823 9.99633 0.636303 10.0452 0.48738 10.1343C0.338457 10.2235 0.21524 10.3497 0.129803 10.5008C0.0443647 10.6519 -0.000362918 10.8225 2.21778e-06 10.9961V27.6375C2.21778e-06 28.9654 0.656074 30.2068 1.75215 30.9532L23.1825 45.5636C24.5366 46.4883 26.1417 46.9755 27.7813 46.9594C29.421 46.9432 31.0162 46.4245 32.3518 45.4732L42.1968 38.4843L31.7075 29.6843L29.9593 31.0907C28.0718 32.5942 25.6744 33.3062 23.2722 33.0766C20.8701 32.847 18.6509 31.6937 17.0824 29.8598C15.514 28.026 14.7188 25.6548 14.8644 23.2461C15.0101 20.8374 16.0852 18.5794 17.8632 16.9479Z" fill="#8EBEFA"/>
</g>
<defs>
<clipPath id="clip0_1704_14834">
<rect width="55" height="55" fill="white"/>
</clipPath>
</defs>
</svg>
