<svg width="55" height="55" viewBox="0 0 55 55" fill="none" xmlns="http://www.w3.org/2000/svg">
<path fill-rule="evenodd" clip-rule="evenodd" d="M24.168 3.49645C24.168 2.97549 24.3749 2.47587 24.7433 2.10749C25.1117 1.73912 25.6113 1.53217 26.1323 1.53217C35.5923 1.53217 41.8701 5.40967 46.2073 11.1965C46.7415 11.9062 47.2431 12.6395 47.7119 13.3965C51.0237 18.7 53.0273 25.1468 54.7048 31.299C54.7781 31.553 54.8305 31.8136 54.8619 32.0807C55.1094 33.9429 54.4926 36.0132 52.7248 37.2547C51.5587 38.1099 50.1693 38.6081 48.7255 38.6886V45.6068C48.7255 47.6907 47.8977 49.6891 46.4242 51.1626C44.9507 52.6361 42.9522 53.464 40.8683 53.464H26.1362C25.6152 53.464 25.1156 53.257 24.7472 52.8886C24.3788 52.5202 24.1719 52.0206 24.1719 51.4997L24.168 3.49645Z" fill="#8EBEFA"/>
<path fill-rule="evenodd" clip-rule="evenodd" d="M24.1724 9.86071H16.107C15.3684 7.93571 13.6438 6.88678 11.1099 6.88678C7.65273 6.88678 5.70809 8.83142 5.70809 12.2925C5.70809 15.7536 7.65273 17.6943 11.1099 17.6943C13.6242 17.6943 15.3409 16.6611 16.0874 14.7675H24.1724V9.86071ZM24.1724 18.5743H19.5838C18.9326 18.5743 18.3081 18.833 17.8476 19.2934C17.3871 19.7539 17.1284 20.3784 17.1284 21.0296C17.1284 21.6808 17.3871 22.3054 17.8476 22.7658C18.3081 23.2263 18.9326 23.485 19.5838 23.485H24.1724V18.5743ZM24.1724 25.9679H10.7249C9.96666 24.1057 8.26166 23.0921 5.76702 23.0921C2.30988 23.0921 0.365234 25.0368 0.365234 28.4979C0.365234 31.9589 2.30988 33.8996 5.76702 33.8996C8.32452 33.8996 10.0531 32.835 10.7799 30.8786H24.1684L24.1724 25.9679ZM24.1724 42.0789H20.9588V36.5239C20.9588 35.8727 20.7001 35.2482 20.2396 34.7877C19.7792 34.3273 19.1546 34.0686 18.5034 34.0686H14.1152C13.464 34.0686 12.8395 34.3273 12.379 34.7877C11.9186 35.2482 11.6599 35.8727 11.6599 36.5239C11.6599 37.1751 11.9186 37.7997 12.379 38.2601C12.8395 38.7206 13.464 38.9793 14.1152 38.9793H16.0481V42.0828H12.9327C12.1863 40.1814 10.4695 39.1482 7.9513 39.1482C4.49416 39.1482 2.54559 41.0928 2.54559 44.55C2.54559 48.0071 4.49023 49.9518 7.9513 49.9518C10.4813 49.9518 12.202 48.9068 12.9406 46.9896H24.1724V42.0789ZM39.9063 23.0803C41.2617 23.0803 42.3617 24.1803 42.3617 25.5357V26.1839C42.3617 26.8351 42.103 27.4597 41.6425 27.9201C41.182 28.3806 40.5575 28.6393 39.9063 28.6393C39.2551 28.6393 38.6306 28.3806 38.1701 27.9201C37.7096 27.4597 37.4509 26.8351 37.4509 26.1839V25.5357C37.4509 24.1803 38.5509 23.0803 39.9063 23.0803Z" fill="#0400FA"/>
</svg>
