<svg width="505" height="184" viewBox="0 0 505 184" fill="none" xmlns="http://www.w3.org/2000/svg">
<g clip-path="url(#clip0_1158_37336)">
<path d="M306.964 32.9358C305.028 30.9832 302.594 29.4459 299.684 28.3349C296.763 27.2239 293.434 26.6741 289.698 26.6741C285.894 26.6741 282.543 27.2352 279.656 28.3349C276.769 29.4459 274.358 30.9832 272.422 32.9358C270.486 34.8884 269.014 37.245 267.983 40.0056C266.965 42.7661 266.455 45.7623 266.455 48.9942V60.3058C266.455 63.5376 266.965 66.5339 267.983 69.2944C269.002 72.055 270.486 74.4116 272.422 76.3642C274.358 78.3167 276.769 79.8541 279.656 80.9651C282.543 82.076 285.883 82.6259 289.698 82.6259C293.434 82.6259 296.763 82.0648 299.684 80.9651C302.605 79.8541 305.028 78.3167 306.964 76.3642C308.9 74.4116 310.383 72.055 311.402 69.2944C312.421 66.5339 312.93 63.5376 312.93 60.3058V48.9942C312.93 45.7623 312.421 42.7661 311.402 40.0056C310.383 37.245 308.9 34.8884 306.964 32.9358Z" stroke="black" stroke-width="2" stroke-miterlimit="10"/>
<path d="M121.007 32.9358C119.071 30.9832 116.637 29.4459 113.727 28.3349C110.806 27.2239 107.477 26.6741 103.741 26.6741C99.9372 26.6741 96.586 27.2352 93.699 28.3349C90.812 29.4459 88.4005 30.9832 86.4645 32.9358C84.5285 34.8884 83.0454 37.245 82.0265 40.0056C81.0075 42.7661 80.498 45.7623 80.498 48.9942V60.3058C80.498 63.5376 81.0075 66.5339 82.0265 69.2944C83.0454 72.055 84.5285 74.4116 86.4645 76.3642C88.4005 78.3167 90.812 79.8541 93.699 80.9651C96.586 82.076 99.9259 82.6259 103.741 82.6259C107.477 82.6259 110.806 82.0648 113.727 80.9651C116.648 79.8541 119.071 78.3167 121.007 76.3642C122.943 74.4116 124.426 72.055 125.445 69.2944C126.464 66.5339 126.973 63.5376 126.973 60.3058V48.9942C126.973 45.7623 126.464 42.7661 125.445 40.0056C124.426 37.245 122.943 34.8884 121.007 32.9358Z" stroke="black" stroke-width="2" stroke-miterlimit="10"/>
<path d="M466.371 30.0631C463.789 31.4434 461.627 33.3174 459.895 35.674C458.162 38.0306 456.838 40.7911 455.921 43.9557C455.004 47.1202 454.551 50.4867 454.551 54.0553C454.551 57.7585 454.97 61.2597 455.819 64.5589C456.668 67.8581 457.959 70.7533 459.691 73.2445C461.423 75.7358 463.597 77.6996 466.212 79.1584C468.827 80.606 471.873 81.3242 475.337 81.3242H497.958V27.9871H475.337C471.941 27.9871 468.952 28.6828 466.371 30.0631Z" stroke="black" stroke-width="2" stroke-miterlimit="10"/>
<path d="M58.4994 66.7695C58.4994 68.9241 58.5446 71.1685 58.6465 73.4914C58.7484 75.8143 58.9069 78.1484 59.1107 80.505C58.1597 78.7544 57.2427 77.1385 56.3596 75.6572C55.4765 74.1759 54.4576 72.56 53.3028 70.8094L8.36732 1.12207H1.13281V86.5648H7.04269V20.9173C7.04269 16.5408 6.8389 11.9623 6.43132 7.18184C7.45027 8.93243 8.37864 10.5484 9.23908 12.0296C10.0882 13.5109 11.0845 15.1269 12.2393 16.8775L57.4804 86.5648H64.4092V1.12207H58.4994V66.7695Z" fill="black" stroke="black" stroke-width="2" stroke-miterlimit="10"/>
<path d="M125.298 29.1542C122.818 26.7639 119.773 24.8787 116.184 23.4984C112.584 22.1181 108.44 21.4224 103.753 21.4224C99.0656 21.4224 94.9219 22.1181 91.3216 23.4984C87.7213 24.8787 84.6758 26.7639 82.1964 29.1542C79.717 31.5444 77.8263 34.3499 76.5356 37.5817C75.2449 40.8136 74.5996 44.2811 74.5996 47.9843V61.3158C74.5996 65.019 75.2449 68.4865 76.5356 71.7184C77.8263 74.9503 79.7057 77.7557 82.1964 80.146C84.6758 82.5362 87.71 84.4215 91.3216 85.8018C94.9219 87.182 99.0656 87.8778 103.753 87.8778C108.44 87.8778 112.584 87.182 116.184 85.8018C119.784 84.4215 122.818 82.5362 125.298 80.146C127.777 77.7557 129.657 74.9503 130.959 71.7184C132.249 68.4865 132.895 65.019 132.895 61.3158V47.9843C132.895 44.2811 132.249 40.8136 130.959 37.5817C129.657 34.3499 127.766 31.5444 125.298 29.1542ZM126.973 60.3059C126.973 63.5377 126.464 66.534 125.445 69.2945C124.426 72.0551 122.943 74.4117 121.007 76.3642C119.071 78.3168 116.637 79.8542 113.727 80.9652C110.806 82.0761 107.478 82.626 103.741 82.626C99.9373 82.626 96.5862 82.0649 93.6992 80.9652C90.8121 79.8542 88.4006 78.3168 86.4647 76.3642C84.5287 74.4117 83.0455 72.0551 82.0266 69.2945C81.0076 66.534 80.4982 63.5377 80.4982 60.3059V48.9943C80.4982 45.7624 81.0076 42.7662 82.0266 40.0056C83.0455 37.2451 84.5287 34.8885 86.4647 32.9359C88.4006 30.9833 90.8121 29.4459 93.6992 28.335C96.5862 27.224 99.926 26.6742 103.741 26.6742C107.478 26.6742 110.806 27.2352 113.727 28.335C116.648 29.4459 119.071 30.9833 121.007 32.9359C122.943 34.8885 124.426 37.2451 125.445 40.0056C126.464 42.7662 126.973 45.7624 126.973 48.9943V60.3059Z" fill="black" stroke="black" stroke-width="2" stroke-miterlimit="10"/>
<path d="M103.74 43.6414C103.536 47.6139 102.653 50.3408 101.09 51.822C99.5279 53.3033 97.0825 54.1113 93.7539 54.2459C97.0825 54.3806 99.5279 55.1886 101.09 56.6699C102.653 58.1511 103.536 60.878 103.74 64.8505C103.943 60.878 104.815 58.1511 106.332 56.6699C107.861 55.1886 110.317 54.3806 113.725 54.2459C110.329 54.1113 107.872 53.3033 106.332 51.822C104.815 50.3408 103.943 47.6139 103.74 43.6414Z" fill="black"/>
<path d="M156.624 78.2831C155.401 76.2632 154.79 73.5699 154.79 70.2034V27.987H168.036V22.7352H154.79V1.12207H148.676V22.7352H138.996V27.987H148.472V69.7994C148.472 74.7819 149.593 78.8217 151.835 81.9189C154.076 85.0162 157.609 86.5648 162.432 86.5648H169.055V81.313H163.858C160.258 81.313 157.847 80.303 156.624 78.2831Z" fill="black" stroke="black" stroke-width="2" stroke-miterlimit="10"/>
<path d="M200.541 86.6658H206.451V47.7823H251.386V42.5305H206.451V6.37387H254.443V1.12207H200.541V86.6658Z" fill="black" stroke="black" stroke-width="2" stroke-miterlimit="10"/>
<path d="M311.243 29.1542C308.764 26.7639 305.718 24.8787 302.129 23.4984C298.529 22.1181 294.385 21.4224 289.698 21.4224C285.011 21.4224 280.867 22.1181 277.267 23.4984C273.667 24.8787 270.621 26.7639 268.142 29.1542C265.662 31.5444 263.772 34.3499 262.481 37.5817C261.19 40.8136 260.545 44.2811 260.545 47.9843V61.3158C260.545 65.019 261.19 68.4865 262.481 71.7184C263.772 74.9503 265.651 77.7557 268.142 80.146C270.621 82.5362 273.655 84.4215 277.267 85.8018C280.867 87.182 285.011 87.8778 289.698 87.8778C294.385 87.8778 298.529 87.182 302.129 85.8018C305.729 84.4215 308.764 82.5362 311.243 80.146C313.722 77.7557 315.602 74.9503 316.904 71.7184C318.195 68.4865 318.84 65.019 318.84 61.3158V47.9843C318.84 44.2811 318.195 40.8136 316.904 37.5817C315.613 34.3499 313.722 31.5444 311.243 29.1542ZM312.93 60.3059C312.93 63.5377 312.42 66.534 311.402 69.2945C310.383 72.0551 308.899 74.4117 306.963 76.3642C305.028 78.3168 302.593 79.8542 299.684 80.9652C296.763 82.0761 293.434 82.626 289.698 82.626C285.894 82.626 282.543 82.0649 279.656 80.9652C276.769 79.8542 274.357 78.3168 272.421 76.3642C270.485 74.4117 269.013 72.0551 267.983 69.2945C266.964 66.534 266.455 63.5377 266.455 60.3059V48.9943C266.455 45.7624 266.964 42.7662 267.983 40.0056C269.002 37.2451 270.485 34.8885 272.421 32.9359C274.357 30.9833 276.769 29.4459 279.656 28.335C282.543 27.224 285.883 26.6742 289.698 26.6742C293.434 26.6742 296.763 27.2352 299.684 28.335C302.605 29.4459 305.028 30.9833 306.963 32.9359C308.899 34.8885 310.383 37.2451 311.402 40.0056C312.42 42.7662 312.93 45.7624 312.93 48.9943V60.3059Z" fill="black" stroke="black" stroke-width="2" stroke-miterlimit="10"/>
<path d="M289.699 43.6414C289.495 47.6139 288.612 50.3408 287.049 51.822C285.487 53.3033 283.041 54.1113 279.713 54.2459C283.041 54.3806 285.487 55.1886 287.049 56.6699C288.612 58.1511 289.495 60.878 289.699 64.8505C289.902 60.878 290.774 58.1511 292.291 56.6699C293.82 55.1886 296.276 54.3806 299.684 54.2459C296.288 54.1113 293.831 53.3033 292.291 51.822C290.763 50.3408 289.902 47.6139 289.699 43.6414Z" fill="black"/>
<path d="M373.25 74.7483C369.378 76.8356 365.201 78.6535 360.717 80.2021C356.234 81.7507 351.513 82.525 346.554 82.525C342.75 82.525 339.625 81.358 337.18 79.0463C334.734 76.7234 333.511 73.3007 333.511 68.7896V22.7354H327.602V67.7796C327.602 71.2808 328.077 74.277 329.028 76.7683C329.979 79.2595 331.304 81.3131 333.002 82.929C334.7 84.545 336.704 85.7233 339.014 86.4639C341.323 87.2045 343.837 87.5749 346.554 87.5749C348.931 87.5749 351.298 87.3504 353.63 86.924C355.974 86.4863 358.283 85.9253 360.559 85.2519C362.834 84.5786 365.019 83.8156 367.125 82.9851C369.231 82.1435 371.269 81.2794 373.239 80.4154V86.5761H379.149V22.7354H373.239V74.7483H373.25Z" fill="black" stroke="black" stroke-width="2" stroke-miterlimit="10"/>
<path d="M435.508 27.2352C433.81 25.6529 431.806 24.4971 429.496 23.7452C427.186 23.0046 424.673 22.6343 421.956 22.6343C419.578 22.6343 417.223 22.8587 414.88 23.2851C412.536 23.7228 410.227 24.2839 407.951 24.9572C405.675 25.6305 403.468 26.3936 401.328 27.2352C399.188 28.0768 397.162 28.9409 395.259 29.805V22.8363H389.35V86.5648H395.259V35.4608C399.131 33.3735 403.309 31.5556 407.793 30.007C412.276 28.4584 416.997 27.6841 421.956 27.6841C425.76 27.6841 428.885 28.8287 431.33 31.1179C433.776 33.4072 434.998 36.8074 434.998 41.3186V86.5648H440.908V42.3285C440.908 38.8273 440.433 35.8311 439.482 33.3399C438.519 30.8486 437.206 28.8175 435.508 27.2352Z" fill="black" stroke="black" stroke-width="2" stroke-miterlimit="10"/>
<path d="M467.799 55.0541C471.127 55.1887 473.573 55.9967 475.135 57.478C476.698 58.9592 477.581 61.6861 477.784 65.6586C477.988 61.6861 478.849 58.9592 480.377 57.478C481.906 55.9967 484.362 55.1887 487.759 55.0541C484.362 54.9194 481.906 54.1114 480.377 52.6301C478.849 51.1489 477.977 48.422 477.784 44.4495C477.581 48.422 476.698 51.1489 475.135 52.6301C473.573 54.1114 471.127 54.9194 467.799 55.0541Z" fill="black"/>
<path d="M497.959 1.12207V22.7352H476.867C472.18 22.7352 468.07 23.532 464.538 25.103C461.005 26.6853 458.073 28.8736 455.718 31.6678C453.375 34.462 451.608 37.7724 450.42 41.6103C449.231 45.4481 448.631 49.589 448.631 54.0328C448.631 58.544 449.174 62.7746 450.261 66.7022C451.348 70.6411 453.024 74.0749 455.311 77.0038C457.586 79.9327 460.507 82.2556 464.074 83.9725C467.64 85.6895 471.908 86.5423 476.856 86.5423H503.858V1.12207H497.959ZM497.959 81.313H475.339C471.874 81.313 468.829 80.5836 466.213 79.1472C463.598 77.6996 461.424 75.7245 459.692 73.2333C457.96 70.7421 456.669 67.8468 455.82 64.5476C454.971 61.2484 454.552 57.7472 454.552 54.044C454.552 50.4755 455.016 47.109 455.922 43.9444C456.839 40.7799 458.164 38.0193 459.896 35.6627C461.628 33.3062 463.779 31.4433 466.372 30.0518C468.953 28.6716 471.942 27.987 475.339 27.987H497.959V81.313Z" fill="black" stroke="black" stroke-width="2" stroke-miterlimit="10"/>
</g>
<g clip-path="url(#clip1_1158_37336)">
<path d="M14.8118 122.18V114.473H19.4892V122.18H34.301V126.188H0V122.18H14.8118ZM1.16935 147.228C1.16935 145.019 1.50717 142.947 2.18279 141.02C2.85842 139.093 3.85454 137.415 5.1798 135.967C6.50507 134.529 8.16815 133.415 10.169 132.61C12.1699 131.814 14.5 131.42 17.1505 131.42C19.8011 131.42 22.1224 131.814 24.1233 132.61C26.1242 133.407 27.7873 134.529 29.1126 135.967C30.4378 137.406 31.434 139.093 32.1096 141.02C32.7852 142.947 33.123 145.019 33.123 147.228V166.959C33.123 169.219 32.7852 171.3 32.1096 173.201C31.434 175.102 30.4378 176.772 29.1126 178.211C27.7873 179.65 26.1242 180.763 24.1233 181.568C22.1224 182.364 19.7924 182.758 17.1505 182.758C14.5 182.758 12.1699 182.356 10.169 181.568C8.16815 180.772 6.50507 179.65 5.1798 178.211C3.85454 176.772 2.84976 175.102 2.18279 173.201C1.50717 171.3 1.16935 169.219 1.16935 166.959V147.228ZM17.1505 178.751C20.9964 178.751 23.8375 177.646 25.6825 175.436C27.5274 173.227 28.4543 170.401 28.4543 166.959V147.228C28.4543 143.786 27.5274 140.96 25.6825 138.75C23.8375 136.541 20.9877 135.436 17.1505 135.436C13.3046 135.436 10.4549 136.541 8.60991 138.75C6.76493 140.96 5.83811 143.786 5.83811 147.228V166.959C5.83811 170.401 6.75626 173.227 8.60991 175.436C10.4549 177.646 13.3046 178.751 17.1505 178.751ZM17.1505 164.569C16.9946 161.538 16.319 159.457 15.1236 158.327C13.9283 157.196 12.0573 156.58 9.51074 156.477C12.0573 156.374 13.9283 155.758 15.1236 154.627C16.319 153.497 16.9946 151.416 17.1505 148.384C17.3064 151.416 17.9647 153.497 19.1341 154.627C20.3034 155.758 22.1831 156.374 24.7816 156.477C22.1831 156.58 20.3034 157.196 19.1341 158.327C17.9734 159.457 17.3064 161.538 17.1505 164.569ZM41.3172 116.785H45.9946V145.687H55.1762V116.785H59.8536V181.988H55.1762V149.695H45.9946V181.988H41.3172V116.785Z" fill="black"/>
<path d="M123.345 140.772H96.2156L92.491 147.477H87.4845L102.435 120.793H67.6055V116.785H108.619L105.709 122.103H123.345V116.785H128.022V149.866H123.345V140.772ZM103.873 126.111L97.8181 136.764H123.345V126.111H103.873Z" fill="black"/>
<path d="M185.209 125.1H136.113V120.784H158.322V113H163V120.784H185.209V125.1ZM147.807 147.913C144.481 147.913 141.951 147.066 140.21 145.37C138.469 143.674 137.594 141.465 137.594 138.742C137.594 136.019 138.461 133.818 140.21 132.148C141.951 130.478 144.481 129.647 147.807 129.647H173.671C176.997 129.647 179.527 130.487 181.276 132.148C183.017 133.818 183.884 136.019 183.884 138.742C183.884 141.465 183.009 143.674 181.276 145.37C179.535 147.066 176.997 147.913 173.671 147.913H147.807ZM194.243 154.85C195.387 154.85 196.348 155.038 197.128 155.424C197.907 155.809 198.539 156.314 199.042 156.922C199.536 157.539 199.899 158.25 200.133 159.046C200.367 159.842 200.488 160.656 200.488 161.469V170.41H145.945V173.416C145.945 174.135 145.953 174.786 145.979 175.385C146.005 175.976 146.161 176.473 146.447 176.884C146.733 177.295 147.157 177.603 147.729 177.809C148.301 178.014 148.266 178.117 149.357 178.117H200.48V182.433H147.495C146.352 182.433 145.39 182.244 144.611 181.859C143.831 181.474 143.19 180.969 142.696 180.361C142.203 179.744 141.839 179.033 141.605 178.237C141.371 177.44 141.25 176.627 141.25 175.813V166.102H195.794V163.867C195.794 163.148 195.776 162.497 195.759 161.906C195.733 161.315 195.577 160.819 195.291 160.399C195.005 159.988 194.572 159.68 194.009 159.474C193.438 159.269 192.606 159.166 191.515 159.166H141.258V154.85H194.243ZM172.58 143.597C174.918 143.597 176.616 143.186 177.682 142.364C178.747 141.542 179.284 140.309 179.284 138.665C179.284 137.123 178.747 135.959 177.682 135.154C176.616 134.357 174.918 133.963 172.58 133.963H148.898C146.56 133.963 144.853 134.357 143.788 135.154C142.722 135.95 142.194 137.115 142.194 138.665C142.194 140.309 142.722 141.542 143.788 142.364C144.853 143.186 146.56 143.597 148.898 143.597H172.58ZM207.418 134.041H200.48V148.761H195.88V115.62H200.48V129.725H207.418V134.041Z" fill="black"/>
<path d="M121.959 154.268C123.103 154.268 124.064 154.456 124.844 154.841C125.623 155.227 126.256 155.732 126.758 156.34C127.252 156.957 127.616 157.667 127.849 158.464C128.083 159.26 128.205 160.074 128.205 160.887V168.971H77.9829V173.69C77.9829 174.409 77.9916 175.06 78.0176 175.659C78.0436 176.25 78.1995 176.747 78.4853 177.158C78.7712 177.569 79.1956 177.877 79.7673 178.083C80.339 178.288 81.1705 178.391 82.2619 178.391H128.196V182.707H79.5421C78.3987 182.707 77.4373 182.519 76.6577 182.133C75.8781 181.748 75.2371 181.243 74.7434 180.635C74.2497 180.018 73.8859 179.307 73.652 178.511C73.4181 177.714 73.2969 176.901 73.2969 176.087V164.655H123.51V163.276C123.51 162.557 123.492 161.906 123.475 161.315C123.449 160.724 123.293 160.228 123.007 159.808C122.722 159.397 122.288 159.089 121.725 158.883C121.154 158.678 120.322 158.575 119.231 158.575H73.3055V154.259H121.959V154.268Z" fill="black"/>
<path d="M307.756 120.793H291.697V116.785H333.014V120.793H316.877L333.014 148.076H328.181L312.356 121.255L296.531 148.076H291.697L307.756 120.793ZM299.276 166.847H344.318V153.317H348.996V181.988H294.599V153.317H299.276V166.847ZM344.318 170.855H299.276V177.98H344.318V170.855ZM344.318 116.785H348.996V129.887H359.13V133.895H348.996V149.463H344.318V116.785Z" fill="black"/>
<path d="M420.195 151.39V155.398H363.807V151.39H420.195ZM369.264 137.132H419.806V141.14H364.586V116.785H369.264V137.132ZM370.043 177.98H420.195V181.988H365.366V164.878H370.043V177.98Z" fill="black"/>
<path d="M503.618 145.995V150.003H475.164V160.253H491.925C495.667 160.253 498.612 161.178 500.769 163.028C502.925 164.878 503.999 167.575 503.999 171.121C503.999 174.666 502.917 177.363 500.769 179.213C498.612 181.063 495.658 181.988 491.925 181.988H453.726C449.984 181.988 447.03 181.063 444.882 179.213C442.725 177.363 441.643 174.666 441.643 171.121C441.643 167.575 442.725 164.878 444.882 163.028C447.039 161.178 449.993 160.253 453.726 160.253H470.487V150.003H442.032V145.995H503.618ZM479.365 120.793L503.454 140.369H497.217L472.817 120.87L448.416 140.369H442.18L466.268 120.793H442.024V116.785H503.61V120.793H479.365ZM446.311 171.121C446.311 173.176 446.866 174.829 447.983 176.087C449.1 177.346 451.015 177.98 453.717 177.98H491.916C494.619 177.98 496.524 177.346 497.642 176.087C498.759 174.829 499.322 173.176 499.322 171.121C499.322 169.065 498.759 167.413 497.642 166.154C496.524 164.895 494.61 164.261 491.916 164.261H453.717C451.015 164.261 449.1 164.895 447.983 166.154C446.874 167.413 446.311 169.065 446.311 171.121Z" fill="black"/>
<path d="M263.971 118.806V118.789H211.143V122.797H248.7C248.683 122.069 248.778 121.529 248.787 121.486L249.636 121.649C249.636 121.658 249.541 122.146 249.567 122.805H254.608L251.775 126.093C252.494 126.308 253.395 126.333 254.461 126.162L254.599 127.01C254.08 127.095 253.594 127.13 253.135 127.13C252.39 127.13 251.741 127.01 251.178 126.796L211.48 171.069V171.103L259.303 170.881V184H263.98V170.178V166.864V137.055H274.114V133.047H263.98V118.806H263.971ZM259.294 166.864L220.905 167.207L259.294 124.655V166.864Z" fill="#010202"/>
<path d="M250.484 125.357C249.774 124.638 249.584 123.593 249.558 122.797H248.691C248.717 123.747 248.951 125.015 249.861 125.948C250.216 126.316 250.658 126.59 251.16 126.779L251.766 126.076C251.255 125.931 250.822 125.691 250.484 125.357Z" fill="#010202"/>
<path d="M249.637 121.64L248.788 121.478C248.779 121.529 248.675 122.069 248.701 122.788H249.568C249.55 122.146 249.637 121.658 249.637 121.64Z" fill="#010202"/>
<path d="M254.59 126.993L254.452 126.145C253.386 126.316 252.494 126.291 251.766 126.076L251.16 126.779C251.723 127.001 252.373 127.113 253.118 127.113C253.577 127.121 254.071 127.078 254.59 126.993Z" fill="#010202"/>
</g>
<defs>
<clipPath id="clip0_1158_37336">
<rect width="505" height="89" fill="white"/>
</clipPath>
<clipPath id="clip1_1158_37336">
<rect width="504" height="71" fill="white" transform="translate(0 113)"/>
</clipPath>
</defs>
</svg>
