<svg width="169" height="45" viewBox="0 0 169 45" fill="none" xmlns="http://www.w3.org/2000/svg">
<g clip-path="url(#clip0_1014_9550)">
<rect width="41" height="45" rx="8" fill="white"/>
<g filter="url(#filter0_dii_1014_9550)">
<rect width="41" height="46" rx="8" fill="#0400FA" shape-rendering="crispEdges"/>
<g clip-path="url(#clip1_1014_9550)">
<path d="M34.6726 33.1756C34.0307 33.3357 34.1092 33.1227 33.6143 33.5567C32.4782 34.5534 32.3438 35.9826 32.8249 37.3709C33.3449 38.8708 34.7046 39.6725 36.0648 40.4201C36.7376 40.7901 37.4008 41.4781 38.1252 41.7331C38.4859 41.86 38.9875 42.0427 39.3621 42.1216C39.7366 42.2004 40.1138 42.1005 40.2954 41.9984C40.4677 41.9013 40.6978 41.7585 40.8538 41.6215C41.0124 41.4817 41.012 41.2446 40.9886 41.051C40.9254 40.5174 40.8461 39.9742 40.6621 39.4673C39.8858 37.3284 38.6663 35.4677 36.8982 34.1234C35.8655 33.3383 35.7238 33.8842 35.3526 33.556C35.264 33.4764 34.7888 33.1467 34.6726 33.1756Z" fill="#564C4B"/>
<path d="M14.5528 16.1752C14.0734 16.1451 13.4532 15.702 13.0632 15.4602C12.5089 15.1166 12.0129 14.6776 11.6227 14.1524C11.2954 13.7117 10.7772 12.9403 11.1056 12.3829C11.2669 12.109 11.5916 11.9874 11.8846 11.921C12.2479 11.8389 12.632 11.8025 13.0031 11.8389C13.544 11.8916 14.0426 12.1102 14.5023 12.393C14.9148 12.6471 15.3629 12.961 15.6613 13.3519C15.6674 13.3598 15.6734 13.3679 15.6793 13.3763C15.3437 12.8994 14.9945 12.4755 14.7401 11.9381C14.1648 10.7231 14.0048 9.40051 14.1811 8.07264C14.2734 7.3775 14.461 6.57848 15.1089 6.20445C15.9015 5.74676 16.8618 6.14415 17.5872 6.55014C19.5569 7.65308 20.7803 9.71032 20.4299 11.9982C20.4467 11.8883 20.6178 11.7253 20.6825 11.6429C20.9053 11.3579 21.1571 11.0971 21.4338 10.8648C22.237 10.1929 23.2831 9.84223 24.3309 9.96284C26.2263 10.181 24.2742 13.2932 23.7488 14.0396C23.5191 14.366 23.244 14.6635 22.9487 14.9303C22.7787 15.0841 22.6 15.228 22.4159 15.3646C22.2867 15.4604 21.9278 15.8057 21.7708 15.8018C23.3086 15.8371 24.8833 16.1594 26.344 16.6248C27.6368 17.0367 28.8936 17.6117 29.9874 18.4258C30.5584 18.8509 31.0827 19.3416 31.5292 19.8985C32.5081 21.1196 33.3156 22.6768 33.8983 24.1288C34.1016 24.6356 34.2969 25.1405 34.4502 25.6656C34.6409 26.3193 34.7804 26.987 34.8674 27.6627C34.9138 28.0227 34.9448 28.3845 34.9605 28.7481C34.9732 29.0422 34.9082 29.4131 34.9949 29.6932C35.0223 29.7819 35.0685 29.8634 35.1148 29.9441C36.3549 32.1311 37.3045 34.4926 37.7112 36.9881C38.2227 40.1252 37.7424 43.3781 35.8295 45.9732C35.4294 46.514 34.9832 47.0189 34.4962 47.482C34.4962 47.482 31.7573 50.7548 21.0588 50.6687C10.3604 50.5826 7.57729 47.5682 7.57729 47.5682C7.57729 47.5682 3.6403 44.8553 3.81139 41.5831C3.98248 38.311 3.99686 37.5495 4.05394 37.4634C3.97004 37.5902 3.42697 37.0226 3.39356 36.9603C2.8692 35.9866 3.56524 34.4825 3.94892 33.5984C4.20825 33.001 4.70504 32.3511 4.84197 31.7174C4.97261 31.1123 4.80302 30.3243 4.78204 29.7035C4.75612 28.94 4.74579 28.1757 4.76556 27.412C4.80481 25.8968 4.96032 24.3749 5.36093 22.9102C5.52932 22.2949 5.75269 21.672 6.13652 21.157C7.39122 19.4732 9.27259 18.1814 11.1129 17.2281C12.1288 16.7017 13.376 16.0991 14.5528 16.1752Z" fill="#FFFCFC"/>
<path d="M22.2031 36.6328L22.9522 35.6208L22.7739 35.4414H20.6625L20.4843 35.6208L21.2333 36.6328L20.1777 41.5851L21.7183 43.1065L23.2588 41.5851L22.2031 36.6328Z" fill="#AA1F1B"/>
<path d="M23.2508 26.2206C23.1724 27.0527 23.3261 27.8439 23.5836 28.6593C24.0474 30.127 25.4614 31.1192 26.9571 31.3708C27.961 31.5396 28.7222 31.5793 29.7481 31.5666C30.6327 31.5554 31.5376 31.3882 32.2985 30.945L32.365 30.9053C33.754 30.0551 34.6366 28.2199 34.7853 26.6041L35.1333 26.6365C34.9752 28.354 34.0272 30.3437 32.4738 31.2488C31.6695 31.7173 30.7338 31.8949 29.839 31.9161L29.7526 31.9177C28.7112 31.9306 27.9285 31.8902 26.8995 31.7171C25.3324 31.4536 23.8115 30.4212 23.2754 28.8413L23.2506 28.7656C22.9858 27.9273 22.8184 27.0852 22.9029 26.1875L23.2508 26.2206Z" fill="#D0EAF3"/>
<path d="M19.8709 26.1875C19.9554 27.0852 19.788 27.9273 19.5231 28.7656C19.0106 30.3877 17.4667 31.4496 15.8742 31.7165L15.8743 31.7167C14.8453 31.8897 14.0627 31.9302 13.0213 31.9173C12.1006 31.9056 11.1303 31.732 10.3002 31.2484C8.74675 30.3433 7.79874 28.3535 7.64062 26.636L7.98846 26.6037C8.13957 28.2451 9.04812 30.1129 10.4754 30.9445C11.2363 31.3878 12.1411 31.5549 13.0257 31.5661L13.215 31.5678C14.1477 31.5733 14.8756 31.5286 15.8168 31.3703C17.3129 31.1196 18.7264 30.1266 19.1901 28.6593C19.4477 27.8439 19.6014 27.0527 19.523 26.2206L19.8709 26.1875Z" fill="#D0EAF3"/>
<path d="M37.44 23.456C37.4376 23.4063 37.4159 23.2219 37.3781 23.1865C37.3347 23.1458 37.0773 23.1661 37.0057 23.161C36.8592 23.1506 36.7125 23.1399 36.566 23.128C36.2619 23.1034 35.958 23.0749 35.6551 23.0375C35.0813 22.9679 34.5272 22.8114 33.9589 22.7243C32.7691 22.5433 31.5216 22.5375 30.3205 22.5176C29.1018 22.4974 27.8372 22.555 26.613 22.7072C25.4509 22.8518 24.0743 23.0883 23.1098 23.8171C23.0777 23.8412 23.0464 23.8663 23.0157 23.8925C22.8256 24.0538 22.6916 24.2421 22.5889 24.4702C22.5009 24.665 22.4429 24.8747 22.3853 25.0809C22.37 25.1355 22.355 25.1902 22.3403 25.2451L22.2925 25.2409C22.2507 25.2372 22.2089 25.2336 22.1671 25.2303C22.1084 25.2255 22.0497 25.221 21.991 25.2167C21.9244 25.2118 21.8578 25.2073 21.7911 25.2032C21.7256 25.1992 21.66 25.1956 21.5944 25.1931C21.4684 25.1879 21.3339 25.1884 21.2049 25.1917C21.1581 25.1929 21.1115 25.1949 21.065 25.1971C21.0145 25.1995 20.964 25.2026 20.9136 25.2057C20.8633 25.2089 20.8133 25.2124 20.7631 25.216C20.7171 25.2193 20.6711 25.2229 20.6251 25.2265L20.5118 25.2359L20.4351 25.2425L20.4068 25.2451C20.3919 25.1902 20.3769 25.1355 20.3619 25.0809C20.3042 24.8747 20.2462 24.665 20.1584 24.4702C20.0555 24.2421 19.9217 24.0538 19.7314 23.8925C19.7015 23.8664 19.6694 23.8414 19.6375 23.8171C18.6729 23.0883 17.2964 22.8522 16.1341 22.7072C14.91 22.555 13.6454 22.4974 12.4266 22.5176C11.2257 22.5375 9.97805 22.5429 8.78822 22.7243C8.21997 22.8109 7.66595 22.9679 7.09201 23.0375C6.78909 23.0743 6.48526 23.1028 6.18129 23.128C6.03477 23.1399 5.8881 23.1506 5.74143 23.161C5.66982 23.1661 5.41259 23.1459 5.36899 23.1865C5.33124 23.2219 5.30907 23.4063 5.30712 23.456C5.30202 23.5628 5.33828 23.6596 5.38907 23.7512C5.51821 23.9849 5.6421 24.2169 5.76495 24.4539C5.83746 24.5941 5.97799 24.9259 6.17065 24.9225C6.17305 24.9225 6.76991 24.9117 6.92782 24.9225C7.08572 24.9332 7.12707 25.0948 7.12707 25.0948C7.28527 25.7041 6.91733 27.214 7.87 27.2612C8.82882 27.3086 8.64005 26.1383 8.65518 25.5039C8.65518 25.5039 8.62012 24.6642 9.4928 24.2443C10.3655 23.8245 14.1191 23.706 16.0011 23.8567C16.542 23.9 17.0947 23.9428 17.6126 24.123C18.2361 24.3404 18.8 24.7975 18.981 25.4676C19.0598 25.759 19.0979 26.0665 19.1147 26.3681C19.1189 26.4434 19.1383 26.6093 19.1962 26.6545C19.4393 26.8452 19.8201 26.7677 20.0801 26.6657C20.0968 26.6604 20.1122 26.6513 20.125 26.6393C20.1587 26.6029 20.1473 26.4679 20.1517 26.4183C20.1559 26.3716 20.16 26.3251 20.164 26.2788C20.166 26.2686 20.1687 26.2585 20.1721 26.2487C20.1829 26.2184 20.1992 26.1904 20.2201 26.166C20.2429 26.1399 20.269 26.117 20.2977 26.0978C20.3297 26.0763 20.3635 26.0577 20.3987 26.0423C20.4373 26.0253 20.4769 26.0106 20.5172 25.9984C20.5601 25.9853 20.6035 25.9743 20.6471 25.9648C20.6907 25.9553 20.737 25.9468 20.7819 25.9399C20.8269 25.933 20.8718 25.9274 20.9168 25.9227C20.9593 25.9182 21.0019 25.9145 21.0444 25.9117C21.0827 25.9091 21.121 25.907 21.1593 25.9055C21.3262 25.8991 21.4948 25.9018 21.6617 25.9116C21.7009 25.9138 21.7403 25.9168 21.7796 25.9203C21.8214 25.9242 21.863 25.9288 21.9047 25.9342C21.9463 25.9396 21.9899 25.9464 22.0323 25.9541C22.0747 25.9618 22.1161 25.9705 22.1574 25.9811C22.1987 25.9916 22.2365 26.0025 22.2753 26.0162C22.3112 26.0287 22.3462 26.0435 22.3802 26.0605C22.4114 26.0758 22.4411 26.0941 22.4689 26.1151C22.494 26.1339 22.5165 26.1561 22.5357 26.181C22.5536 26.2044 22.5672 26.2309 22.5758 26.2592C22.5776 26.2655 22.5793 26.2719 22.5806 26.2782L22.5928 26.4177C22.5971 26.4673 22.5859 26.6023 22.6196 26.6387C22.6324 26.6508 22.6478 26.6598 22.6645 26.6651C22.9245 26.7671 23.3053 26.8446 23.5484 26.6539C23.6064 26.6087 23.6257 26.4421 23.6299 26.3675C23.6467 26.0659 23.6849 25.7584 23.7636 25.467C23.9445 24.7969 24.5084 24.3398 25.1321 24.1224C25.6493 23.9415 26.2026 23.8994 26.7435 23.8561C28.6257 23.7054 32.3793 23.8239 33.2519 24.2437C34.1246 24.6636 34.0896 25.5033 34.0896 25.5033C34.1045 26.1377 33.9155 27.308 34.8746 27.2605C35.8268 27.2134 35.4589 25.7035 35.6175 25.0942C35.6175 25.0942 35.6596 24.9327 35.8174 24.9218C35.9751 24.911 36.572 24.9218 36.5744 24.9218C36.767 24.9253 36.9076 24.5935 36.9802 24.4533C37.1029 24.2163 37.2268 23.9843 37.3561 23.7506C37.4089 23.6596 37.4451 23.5628 37.44 23.456Z" fill="#101728"/>
<path d="M23.5833 30.022C23.5739 29.9768 23.5409 29.9334 23.515 29.8961C23.4692 29.8314 23.4199 29.7692 23.3674 29.7098C23.1238 29.4256 22.829 29.1903 22.4985 29.0163C22.3411 28.9326 22.1736 28.8697 22.0002 28.8292C21.6953 28.7627 21.3798 28.7627 21.075 28.8292C20.9015 28.8697 20.7341 28.9326 20.5767 29.0163C20.2462 29.1903 19.9513 29.4256 19.7077 29.7098C19.6553 29.7692 19.606 29.8314 19.5602 29.8961C19.5343 29.9334 19.5013 29.9765 19.4919 30.022C19.4665 30.1459 19.4679 30.2733 19.5326 30.3853C19.556 30.4259 19.5837 30.4649 19.6268 30.4847C19.7154 30.5254 19.8216 30.5168 19.9146 30.5049C19.9874 30.4955 20.0836 30.4477 20.1194 30.5414C20.1316 30.5741 20.1462 30.6059 20.1629 30.6365C20.1994 30.6994 20.2394 30.7602 20.2827 30.8186C20.3412 30.9008 20.4062 30.9808 20.488 31.0407C20.6755 31.1777 20.9313 31.214 21.1568 31.2285C21.4102 31.2425 21.6643 31.2425 21.9178 31.2285C22.1425 31.2134 22.399 31.1777 22.5866 31.0407C22.6684 30.9804 22.7334 30.9008 22.7918 30.8186C22.8352 30.7602 22.8752 30.6994 22.9117 30.6365C22.9284 30.6059 22.9429 30.5741 22.9551 30.5414C22.9909 30.4477 23.0871 30.4961 23.1599 30.5049C23.2536 30.5168 23.3592 30.5254 23.4477 30.4847C23.4909 30.4649 23.5186 30.4259 23.542 30.3853C23.6071 30.2727 23.6086 30.1459 23.5833 30.022Z" fill="#F8AF61"/>
<path d="M4.42351 32.6603C5.0827 32.7146 5.93515 32.9618 6.49291 33.3107C7.77308 34.1111 8.13353 35.5 7.88004 36.9476C7.60603 38.512 6.48032 39.8685 5.25693 40.8261C4.37617 41.5155 3.27039 42.2315 2.22947 42.6337C1.88295 42.7676 1.62287 42.7006 1.26002 42.6616C1.06361 42.6405 0.842187 42.5078 0.666454 42.3974C0.417162 42.241 0.473042 42.0055 0.498062 41.7492C0.528923 41.4326 0.584355 41.119 0.643682 40.8073C1.06886 38.5706 1.75486 36.3055 2.95263 34.3577C3.21179 33.9342 3.49903 33.5287 3.81242 33.1441C3.88762 33.0526 4.30426 32.6505 4.42351 32.6603Z" fill="#564C4B"/>
<path d="M26.8926 26.7618C26.889 26.6794 26.8649 26.5999 26.8056 26.5399C26.6707 26.4026 26.4692 26.3654 26.2841 26.3634C26.0766 26.3613 25.8568 26.389 25.6689 26.4817C25.4541 26.5873 25.3177 26.8256 25.3125 27.0635C25.3125 27.0685 25.3125 27.0736 25.3125 27.0786C25.3125 27.1678 25.3299 27.2561 25.3638 27.3386C25.3978 27.421 25.4475 27.4959 25.5102 27.559C25.5729 27.6221 25.6473 27.6721 25.7292 27.7062C25.8111 27.7404 25.8989 27.7579 25.9876 27.7579C26.4038 27.7579 26.7582 27.3534 26.8644 26.9759C26.8849 26.9065 26.8944 26.8342 26.8926 26.7618Z" fill="black"/>
<path d="M26.3017 26.9665C26.3778 26.9665 26.4394 26.9045 26.4394 26.828C26.4394 26.7515 26.3778 26.6895 26.3017 26.6895C26.2257 26.6895 26.1641 26.7515 26.1641 26.828C26.1641 26.9045 26.2257 26.9665 26.3017 26.9665Z" fill="white"/>
<path d="M16.1935 26.7618C16.1971 26.6794 16.2213 26.5999 16.2806 26.5399C16.4154 26.4026 16.6168 26.3654 16.8021 26.3634C17.0096 26.3613 17.2294 26.389 17.4172 26.4817C17.6321 26.5873 17.7684 26.8256 17.7736 27.0635C17.7736 27.0685 17.7736 27.0736 17.7736 27.0786C17.7734 27.2586 17.7022 27.4311 17.5756 27.5582C17.4491 27.6854 17.2776 27.7568 17.0987 27.7568C16.6825 27.7568 16.3281 27.3524 16.2219 26.9749C16.2015 26.9058 16.1919 26.8339 16.1935 26.7618Z" fill="black"/>
<path d="M16.7842 26.9665C16.8602 26.9665 16.9218 26.9045 16.9218 26.828C16.9218 26.7515 16.8602 26.6895 16.7842 26.6895C16.7081 26.6895 16.6465 26.7515 16.6465 26.828C16.6465 26.9045 16.7081 26.9665 16.7842 26.9665Z" fill="white"/>
</g>
</g>
</g>
<g clip-path="url(#clip2_1014_9550)">
<path d="M99.1817 15.7554H93.3881C93.2948 15.0406 93.0647 14.3822 92.7008 13.7802C92.337 13.1783 91.8456 12.661 91.233 12.2283C90.6172 11.7957 89.8926 11.4571 89.0654 11.2125C88.2351 10.968 87.3177 10.8457 86.307 10.8457C85.2061 10.8457 84.2172 10.9868 83.3402 11.269C82.4632 11.5511 81.7169 11.943 81.1011 12.4384C80.4854 12.9369 80.0096 13.5357 79.6737 14.2286C79.3379 14.9246 79.1699 15.677 79.1699 16.4859V17.5017C79.1699 18.3294 79.3379 19.0881 79.6737 19.7747C80.0096 20.4613 80.4854 21.0539 81.1011 21.5524C81.7169 22.0509 82.4632 22.4396 83.3402 22.7249C84.2172 23.0071 85.2061 23.1482 86.307 23.1482C87.4079 23.1482 88.3968 23.0071 89.2738 22.7249C90.1508 22.4428 90.8971 22.054 91.5129 21.5524C92.1286 21.0539 92.6044 20.4613 92.9403 19.7747C93.2761 19.0881 93.4441 18.3325 93.4441 17.5017V17.2195H99.1817V23.0886H100.861V11.1279H99.1817V15.7554ZM91.7648 17.5048C91.7648 18.1256 91.6341 18.6962 91.3729 19.2135C91.1117 19.7308 90.7416 20.1729 90.2658 20.5397C89.79 20.9065 89.2147 21.1887 88.5461 21.3862C87.8744 21.5837 87.128 21.6841 86.307 21.6841C85.486 21.6841 84.7396 21.5869 84.0679 21.3862C83.3962 21.1887 82.824 20.9065 82.3451 20.5397C81.8661 20.1729 81.5023 19.7308 81.2411 19.2135C80.9798 18.6962 80.8492 18.1287 80.8492 17.5048V16.489C80.8492 15.8683 80.9798 15.3008 81.2411 14.7835C81.5023 14.2662 81.8693 13.8241 82.3451 13.4573C82.8209 13.0905 83.3962 12.8083 84.0679 12.6108C84.7396 12.4133 85.486 12.3161 86.307 12.3161C87.128 12.3161 87.8744 12.4133 88.5461 12.6108C89.2178 12.8083 89.79 13.0905 90.2658 13.4573C90.7416 13.8241 91.1086 14.2662 91.3729 14.7835C91.6341 15.3008 91.7648 15.8683 91.7648 16.489V17.5048Z" fill="black"/>
<path d="M86.3054 13.9785C86.2494 15.0884 86.0068 15.8502 85.5777 16.2641C85.1485 16.6779 84.4768 16.9036 83.5625 16.9413C84.4768 16.9789 85.1485 17.2046 85.5777 17.6185C86.0068 18.0323 86.2494 18.7942 86.3054 19.904C86.3614 18.7942 86.5977 18.0323 87.0175 17.6185C87.4374 17.2046 88.1122 16.9789 89.0451 16.9413C88.1122 16.9036 87.4374 16.6779 87.0175 16.2641C86.5977 15.8502 86.3614 15.0884 86.3054 13.9785Z" fill="black"/>
<path d="M99.1801 27.8899H82.527V24.5039H80.8477V32.8843C80.8477 34.0537 81.7868 35.0005 82.9468 35.0005H100.859V24.5039H99.1801V27.8899ZM99.1801 33.5333H83.547C82.9841 33.5333 82.527 33.0724 82.527 32.5049V29.3572H99.1801V33.5333Z" fill="black"/>
<path d="M120.453 12.1163H113.456V10H111.776V12.1163H104.779V13.5835H120.453V12.1163Z" fill="black"/>
<path d="M115.135 23.2898C116.628 23.2898 117.816 23.0013 118.702 22.4276C119.588 21.8539 120.033 20.9415 120.033 19.6937C120.033 18.4459 119.588 17.5336 118.702 16.9598C117.816 16.3861 116.628 16.0977 115.135 16.0977H110.097C108.604 16.0977 107.413 16.3861 106.53 16.9598C105.644 17.5336 105.199 18.4459 105.199 19.6937C105.199 20.9415 105.641 21.8539 106.53 22.4276C107.417 23.0013 108.604 23.2898 110.097 23.2898H115.135ZM106.879 19.6937C106.879 18.9162 107.134 18.333 107.647 17.9443C108.16 17.5555 108.978 17.3611 110.097 17.3611H115.135C116.255 17.3611 117.069 17.5555 117.586 17.9443C118.099 18.333 118.354 18.9162 118.354 19.6937C118.354 20.4712 118.096 21.0544 117.586 21.4432C117.073 21.8319 116.255 22.0263 115.135 22.0263H110.097C108.978 22.0263 108.16 21.8319 107.647 21.4432C107.134 21.0544 106.879 20.4712 106.879 19.6937Z" fill="black"/>
<path d="M125.771 11.1289H124.092V24.0239H125.771V18.3242H129.41V16.8569H125.771V11.1289Z" fill="black"/>
<path d="M108.556 32.6194V30.823H125.769V26.4588C125.769 25.8913 125.315 25.4336 124.752 25.4336H106.877V26.9009H123.599C123.869 26.9009 124.09 27.1235 124.09 27.3962V29.3557H106.877V33.0741C106.877 34.1369 107.732 34.9959 108.783 34.9959H126.046V33.5287H109.458C108.961 33.5318 108.556 33.1242 108.556 32.6194Z" fill="black"/>
<path d="M148.625 11.1352V11.1289H129.658V12.5962H143.142C143.136 12.3297 143.17 12.1322 143.174 12.1165L143.478 12.1761C143.478 12.1792 143.444 12.3579 143.453 12.5993H145.263L144.246 13.8032C144.505 13.8816 144.828 13.891 145.21 13.8283L145.26 14.1387C145.074 14.17 144.9 14.1826 144.735 14.1826C144.467 14.1826 144.234 14.1387 144.032 14.0603L129.779 30.8963V30.9088L146.949 30.8273V35.0034H148.628V30.5702V29.3569V17.8163H152.267V16.349H148.628V11.1352H148.625ZM146.946 29.3569L133.163 29.4823L146.946 13.2765V29.3569Z" fill="black"/>
<path d="M163.247 11.3164H154.066V12.6144H163.107C164.898 12.6144 165.794 13.4233 165.794 15.041V23.064C165.794 24.7005 164.898 25.5188 163.107 25.5188H156.977V31.3189H158.629V26.8168H163.247C166.045 26.8168 167.445 25.7822 167.445 23.7129V14.4202C167.445 12.351 166.045 11.3164 163.247 11.3164Z" fill="black"/>
<path d="M158.628 32.5977H156.977V34.9992H158.628V32.5977Z" fill="black"/>
<path d="M59.1299 14.2891H58.9122C58.8034 14.4991 58.7287 14.7311 58.6914 14.9757L59.1299 14.2891Z" fill="#010202"/>
<path d="M62.3977 16.8194L61.8068 15.8945C61.6078 16.2269 61.2501 16.4495 60.8365 16.4495C60.4229 16.4495 60.0653 16.2269 59.8663 15.8945L59.2754 16.8194C59.6703 17.2301 60.2239 17.4903 60.8365 17.4903C61.4492 17.4903 62.0027 17.2301 62.3977 16.8194Z" fill="#010202"/>
<path d="M62.9883 15.029C62.9572 14.7656 62.8764 14.5148 62.7613 14.2891H62.5156L62.9883 15.029Z" fill="#010202"/>
<path d="M56.9377 18.6247H58.1226L59.2763 16.8189C58.9 16.4238 58.6668 15.8909 58.6668 15.3014C58.6668 15.1917 58.6761 15.082 58.6917 14.9785L53.1406 23.7132H54.8759L57.7245 19.2518H56.9377V18.6247Z" fill="black"/>
<path d="M60.8368 13.1132C61.6733 13.1132 62.3979 13.5898 62.7618 14.2889H68.6736V12.8217H61.6764V10H59.9971V12.8217H53V14.2889H58.9118C59.2756 13.5898 60.0002 13.1132 60.8368 13.1132Z" fill="black"/>
<path d="M62.3984 16.8195L63.5522 18.6254H64.5225V19.2524H63.9534L66.802 23.7138H68.5373L62.9924 15.0293C63.0049 15.1171 63.0111 15.208 63.0111 15.2989C63.008 15.8915 62.7747 16.4245 62.3984 16.8195Z" fill="black"/>
<path d="M72.8691 27.0027C72.0263 26.2785 70.8601 25.918 69.3674 25.918H59.5839C58.0911 25.918 56.9218 26.2817 56.0822 27.0027C55.3109 27.6674 54.8973 28.6957 54.832 30.0815C54.8911 29.235 55.1586 28.5892 55.6313 28.1471C56.1724 27.6392 57.068 27.3852 58.3182 27.3852H59.5839H68.9538H69.3674C70.518 27.3852 71.3422 27.6392 71.8397 28.1471C72.3373 28.655 72.5861 29.4262 72.5861 30.4609C72.5861 31.4955 72.3373 32.2667 71.8397 32.7746C71.3422 33.2825 70.518 33.5365 69.3674 33.5365H68.9538H59.5839H58.3182C57.068 33.5365 56.1724 33.2825 55.6313 32.7746C55.1586 32.3294 54.8911 31.6867 54.832 30.8402C54.8973 32.226 55.3078 33.2543 56.0822 33.919C56.9218 34.6432 58.0911 35.0037 59.5839 35.0037H69.3674C70.8601 35.0037 72.0294 34.6401 72.8691 33.919C73.7087 33.1947 74.1317 32.0441 74.1317 30.464C74.1317 28.8839 73.7118 27.727 72.8691 27.0027Z" fill="black"/>
<path d="M58.3169 33.5321H59.5826C58.432 33.5321 57.6079 33.2782 57.1103 32.7702C56.6127 32.2623 56.3639 31.4911 56.3639 30.4565C56.3639 29.4219 56.6127 28.6506 57.1103 28.1427C57.6079 27.6348 58.432 27.3809 59.5826 27.3809H58.3169C57.0668 27.3809 56.1711 27.6348 55.63 28.1427C55.1573 28.5848 54.8899 29.2306 54.8308 30.0771C54.8246 30.2025 54.8184 30.3248 54.8184 30.4565C54.8184 30.5882 54.8246 30.7104 54.8308 30.8358C54.8899 31.6823 55.1573 32.3282 55.63 32.7702C56.1711 33.2782 57.0668 33.5321 58.3169 33.5321Z" fill="black"/>
<path d="M73.7106 11.1289H72.0312V24.2215H73.7106V17.9573H77.3491V16.4901H73.7106V11.1289Z" fill="black"/>
<path d="M58.6948 14.9756C58.6793 15.0822 58.6699 15.1888 58.6699 15.2985C58.6699 15.8879 58.9032 16.424 59.2795 16.8159L59.8703 15.8911C59.7646 15.7186 59.7024 15.5148 59.7024 15.2985C59.7024 14.6652 60.2124 14.151 60.8406 14.151C61.4688 14.151 61.9788 14.6652 61.9788 15.2985C61.9788 15.518 61.9166 15.7186 61.8109 15.8911L62.4017 16.8159C62.778 16.4209 63.0113 15.8879 63.0113 15.2985C63.0113 15.2076 63.005 15.1167 62.9926 15.0289L62.5199 14.289H62.7656C62.4048 13.5898 61.6771 13.1133 60.8406 13.1133C60.004 13.1133 59.2795 13.5898 58.9156 14.289H59.1333L58.6948 14.9756Z" fill="black"/>
<path d="M58.1258 18.625L57.7246 19.252H63.9505L63.5493 18.625H58.1258Z" fill="black"/>
<path d="M56.9375 18.625V19.252H57.7243L58.1255 18.625H56.9375Z" fill="black"/>
<path d="M64.5222 18.625H63.5488L63.95 19.252H64.5222V18.625Z" fill="black"/>
<path d="M143.782 13.5331C143.527 13.2698 143.459 12.8873 143.45 12.5957H143.139C143.148 12.9437 143.232 13.4077 143.559 13.7495C143.686 13.8843 143.845 13.9846 144.025 14.0536L144.243 13.7965C144.059 13.7432 143.904 13.6554 143.782 13.5331Z" fill="black"/>
<path d="M143.478 12.1728L143.173 12.1133C143.17 12.1321 143.133 12.3296 143.142 12.593H143.453C143.447 12.3578 143.478 12.1791 143.478 12.1728Z" fill="black"/>
<path d="M145.257 14.1323L145.207 13.822C144.825 13.8847 144.504 13.8753 144.243 13.7969L144.025 14.054C144.228 14.1355 144.461 14.1762 144.728 14.1762C144.893 14.1794 145.07 14.1637 145.257 14.1323Z" fill="black"/>
</g>
<defs>
<filter id="filter0_dii_1014_9550" x="-4" y="-3" width="49" height="60" filterUnits="userSpaceOnUse" color-interpolation-filters="sRGB">
<feFlood flood-opacity="0" result="BackgroundImageFix"/>
<feColorMatrix in="SourceAlpha" type="matrix" values="0 0 0 0 0 0 0 0 0 0 0 0 0 0 0 0 0 0 127 0" result="hardAlpha"/>
<feOffset dy="1"/>
<feGaussianBlur stdDeviation="2"/>
<feComposite in2="hardAlpha" operator="out"/>
<feColorMatrix type="matrix" values="0 0 0 0 0 0 0 0 0 0.366667 0 0 0 0 1 0 0 0 0.16 0"/>
<feBlend mode="normal" in2="BackgroundImageFix" result="effect1_dropShadow_1014_9550"/>
<feBlend mode="normal" in="SourceGraphic" in2="effect1_dropShadow_1014_9550" result="shape"/>
<feColorMatrix in="SourceAlpha" type="matrix" values="0 0 0 0 0 0 0 0 0 0 0 0 0 0 0 0 0 0 127 0" result="hardAlpha"/>
<feOffset dx="1" dy="1"/>
<feGaussianBlur stdDeviation="0.5"/>
<feComposite in2="hardAlpha" operator="arithmetic" k2="-1" k3="1"/>
<feColorMatrix type="matrix" values="0 0 0 0 0 0 0 0 0 0 0 0 0 0 0 0 0 0 0.1 0"/>
<feBlend mode="normal" in2="shape" result="effect2_innerShadow_1014_9550"/>
<feColorMatrix in="SourceAlpha" type="matrix" values="0 0 0 0 0 0 0 0 0 0 0 0 0 0 0 0 0 0 127 0" result="hardAlpha"/>
<feOffset dx="-1" dy="-1"/>
<feGaussianBlur stdDeviation="0.5"/>
<feComposite in2="hardAlpha" operator="arithmetic" k2="-1" k3="1"/>
<feColorMatrix type="matrix" values="0 0 0 0 1 0 0 0 0 1 0 0 0 0 1 0 0 0 1 0"/>
<feBlend mode="normal" in2="effect2_innerShadow_1014_9550" result="effect3_innerShadow_1014_9550"/>
</filter>
<clipPath id="clip0_1014_9550">
<rect width="41" height="45" rx="8" fill="white"/>
</clipPath>
<clipPath id="clip1_1014_9550">
<rect width="41" height="46" fill="white" transform="translate(0 6)"/>
</clipPath>
<clipPath id="clip2_1014_9550">
<rect width="116" height="25" fill="white" transform="translate(53 10)"/>
</clipPath>
</defs>
</svg>
