<svg width="511" height="772" viewBox="0 0 511 772" fill="none" xmlns="http://www.w3.org/2000/svg">
<g filter="url(#filter0_d_1607_62103)">
<path d="M144.908 81.5396C144.618 84.237 146.806 88.4745 157.857 83.8543C168.909 79.2341 173.672 95.4325 174.671 104.106C174.823 107.264 176.56 112.479 182.272 108.053C187.984 103.626 192.946 116.2 194.71 123.038C195.862 126.575 196.875 134.99 191.716 140.394C185.267 147.145 175.823 163.615 194.71 165.921C213.597 168.226 224.644 170.301 217.052 175.143C210.981 179.016 212.372 181.215 213.828 181.829C216.9 185.439 221.198 194.878 213.828 203.731C212.215 206.188 209.958 212.584 213.828 218.486C217.697 224.388 215.44 225.555 213.828 225.402C213.828 228.538 221.198 230.705 224.883 231.397L237.782 227.708C237.552 224.171 238.473 216.78 244.001 215.489C249.529 214.198 252.445 221.561 253.214 225.402C254.748 226.634 261.137 228.353 274.404 225.402C287.671 222.451 292.522 225.711 293.291 227.708C291.909 229.705 290.712 234.025 296.977 235.316C303.242 236.607 314.634 243.385 319.549 246.613C323.234 246.461 330.973 246.936 332.448 250.071C333.922 253.207 339.509 249.071 342.121 246.613C342.352 245.46 344.194 243.846 349.722 246.613C355.25 249.38 358.783 243.768 359.857 240.619C362.238 239.697 368.011 238.728 372.064 242.233C376.118 245.737 380.356 246.613 381.969 246.613C385.423 246.765 392.333 246.106 392.333 242.233C392.333 238.359 406.614 232.471 413.754 230.013C418.393 229.631 428.753 229.091 433.102 230.013C437.45 230.936 438.538 219.03 438.538 212.962L401.542 150.52L375.561 117.611L344.858 72.0409L312.584 2L307.862 4.53143L299.989 18.0324L292.9 34.9086L285.82 44.1906L277.947 49.2534L269.286 51.7849L251.97 53.4725L236.225 52.6287L231.498 50.941L209.46 51.7849L203.159 52.6287L171.668 50.941L155.135 52.6287L144.904 56.0039L134.672 62.7544L125.224 72.8801C132.461 69.7769 146.525 67.1533 144.908 81.5396Z" fill="#B4C2F9"/>
</g>
<g filter="url(#filter1_d_1607_62103)">
<path d="M211.988 544.022C207.999 542.56 200.2 538.074 200.932 531.803C201.665 525.532 199.089 512.436 197.708 506.673C195.483 505.981 189.678 504.506 184.27 504.137C178.862 503.768 174.237 507.978 172.602 510.131C171.45 511.362 168.041 513.082 163.619 510.131C159.197 507.18 146.266 507.212 140.356 507.595C138.665 508.439 135.104 508.056 134.367 499.756C133.63 491.456 130.53 490.765 129.07 491.456C128.227 492.01 126.121 494.08 124.463 497.912C122.805 501.744 119.474 499.507 118.014 497.912C117.245 495.297 113.545 489.981 104.885 489.612C96.2247 489.243 89.6051 500.217 87.3801 505.751C76.3244 517.001 69.8752 513.359 68.0325 510.131C66.1899 499.987 61.072 498.986 58.7411 499.756L52.8032 514.221L48.0815 528.566L38.6334 537.848L43.3551 553.88L52.7986 570.756L55.9495 586.789L63.8221 588.476L73.2656 584.257L79.5674 585.945L72.4779 592.695L63.8221 596.071L67.7561 598.607L70.1147 604.513L57.5203 605.353L40.9874 601.977L36.2656 608.732L44.9214 621.39L64.6006 635.734L67.7515 645.86V657.673L70.8978 662.736L77.9827 661.893L81.129 649.235L100.021 633.203L105.53 635.734L109.469 642.485L118.917 644.172L136.233 618.858L164.572 596.914L167.719 601.977L166.931 610.415L158.275 618.858L155.124 627.296L174.804 639.953L181.893 634.047L184.252 626.452L194.483 615.483L187.398 606.196L182.672 597.758L184.247 585.945L193.695 582.57L199.992 583.413L205.502 594.383L214.158 605.353L225.181 601.133L228.327 591.852L218.092 582.57L214.945 575.819L217.308 569.912L224.393 565.693L222.813 562.696C221.528 552.197 215.06 545.871 211.988 544.022Z" fill="#809CFE"/>
</g>
<g filter="url(#filter2_d_1607_62103)">
<path d="M166.382 274.048C163.848 263.406 169.376 266.971 177.898 256.001C184.716 247.226 188.111 248.854 188.954 250.763C189.875 254.479 192.317 260.391 194.712 254.313C197.108 248.236 208.454 232.508 213.83 225.402C215.442 225.555 217.699 224.388 213.83 218.486C209.96 212.584 212.217 206.188 213.83 203.731C221.2 194.878 216.902 185.439 213.83 181.829C212.374 181.215 210.983 179.016 217.054 175.143C224.646 170.301 213.599 168.226 194.712 165.921C175.825 163.615 185.269 147.145 191.718 140.394C196.877 134.995 195.864 126.575 194.712 123.038C192.948 116.2 187.987 103.626 182.275 108.053C176.562 112.479 174.826 107.264 174.674 104.106C173.674 95.4325 168.911 79.2341 157.86 83.8543C146.809 88.4745 144.62 84.237 144.911 81.5396C146.528 67.1533 132.464 69.777 125.231 72.8848L117.359 83.8543L100.826 104.106L89.0192 113.388V126.889V131.108L85.0806 133.639L80.3588 141.233L74.8494 142.921L73.2739 147.14L75.6371 157.266L79.5711 163.173L85.8683 173.298L85.0806 189.331L91.3824 195.237L103.977 212.957L98.4673 228.99L102.401 234.053L103.972 242.491L114.996 261.898L126.802 264.43L129.161 266.961C140.115 262.798 162.881 258.371 166.382 274.048Z" fill="#DCE1FD"/>
</g>
<g filter="url(#filter3_d_1607_62103)">
<path d="M293.297 227.708C292.527 225.711 287.677 222.451 274.41 225.402C261.143 228.353 254.753 226.634 253.219 225.402C252.45 221.561 249.534 214.198 244.006 215.489C238.478 216.78 237.557 224.171 237.787 227.708L224.889 231.397C221.204 230.705 213.833 228.538 213.833 225.402C208.457 232.508 197.111 248.236 194.716 254.313C192.321 260.391 189.879 254.479 188.958 250.763C188.115 248.849 184.72 247.222 177.902 256.001C169.38 266.971 163.852 263.406 166.386 274.048C168.412 282.56 173.678 284.691 176.059 284.691C177.75 285.756 180.113 289.311 176.059 295.028C170.992 302.175 165.464 308.76 170.762 322.464C175 333.424 189.727 342.356 196.559 345.45C196.176 348.05 194.209 354.386 189.418 358.951C183.43 364.654 187.576 382.407 196.559 377.565C203.745 373.692 205.081 379.331 204.85 382.637C200.857 381.807 194.071 383.592 198.862 397.392C198.94 400.265 202.593 404.927 216.597 400.62C230.601 396.313 226.732 401.985 223.046 405.36L235.023 402.926C236.023 398.623 240.597 390.384 250.916 391.859C261.235 393.335 246.158 378.948 237.327 371.571C236.097 366.826 234.379 355.386 237.327 347.594C241.012 337.855 238.018 331.686 233.181 327.075C229.311 323.386 236.484 321.472 240.551 320.979C241.625 321.09 243.131 318.683 240.551 308.17C237.972 297.657 247.309 302.406 252.298 306.095C254.062 306.247 257.365 304.896 256.444 298.256C255.523 291.616 263.736 290.417 267.96 290.648C271.107 291.252 277.865 291.681 279.707 288.573C281.55 285.465 284.622 291.584 285.926 295.028C288.381 296.49 293.297 298.533 293.297 295.028C293.297 291.524 295.752 289.265 296.982 288.573C299.594 286.553 303.661 281.472 299.055 277.276C294.448 273.08 310.802 255.088 319.554 246.613C314.639 243.385 303.247 236.607 296.982 235.316C290.717 234.025 291.915 229.704 293.297 227.708Z" fill="#7F9AFE"/>
</g>
<g filter="url(#filter4_d_1607_62103)">
<path d="M106.724 408.735C110.962 407.592 113.252 402.538 113.865 400.159C116.476 396.009 123.907 390.199 132.751 400.159C141.596 410.119 155.476 401.851 161.312 396.47C163.307 394.718 167.946 393.551 170.525 402.925C173.105 412.3 178.665 411.442 181.12 409.842C182.272 408.348 185.773 405.36 190.564 405.36C195.355 405.36 198.086 400.048 198.856 397.392C194.065 383.592 200.85 381.807 204.844 382.637C205.075 379.331 203.739 373.692 196.552 377.565C187.57 382.406 183.424 364.654 189.412 358.95C194.203 354.386 196.17 348.05 196.552 345.449C189.721 342.355 174.994 333.424 170.756 322.464C165.458 308.76 170.986 302.175 176.053 295.028C180.107 289.311 177.744 285.756 176.053 284.69C173.672 284.69 168.406 282.56 166.379 274.048C162.878 258.371 140.113 262.797 129.163 266.97L126.804 272.033L116.569 278.784L115.781 284.69L111.059 281.315L103.97 265.283L91.3753 263.595L77.2008 254.313L65.3942 256.001L57.5216 261.908L47.2904 263.595L29.9697 277.096L22.8848 292.285L25.2525 304.942H31.5543L52.0213 310.849L57.5308 306.629L64.6157 304.098L66.9789 320.974L72.4883 337.851L73.276 345.445L72.4883 358.946L74.0638 374.978L71.7052 385.948L78.7901 395.23L89.809 405.355L91.3845 408.731C94.7288 409.215 102.486 409.883 106.724 408.735Z" fill="#B4C2F9"/>
</g>
<g filter="url(#filter5_d_1607_62103)">
<path d="M454.287 405.36L450.353 403.673L447.206 398.61V385.952L445.636 375.827V357.263L450.357 347.981L452.721 335.324L451.145 310.009L456.659 293.977L450.357 266.131L449.574 245.88L438.551 212.971C438.551 219.039 437.463 230.945 433.115 230.023C428.766 229.1 418.406 229.64 413.767 230.023C406.618 232.471 392.337 238.359 392.337 242.233C392.337 246.106 385.427 246.765 381.972 246.613C380.36 246.613 376.122 245.737 372.068 242.233C368.014 238.728 362.242 239.696 359.861 240.619C358.787 243.768 355.254 249.38 349.726 246.613C344.198 243.846 342.356 245.46 342.125 246.613C339.513 249.071 333.925 253.207 332.451 250.071C330.977 246.936 323.238 246.461 319.553 246.613C310.8 255.088 294.447 273.08 299.053 277.276C303.66 281.472 299.592 286.553 296.981 288.573C295.751 289.265 293.295 291.524 293.295 295.028C293.295 298.533 288.38 296.49 285.925 295.028C284.621 291.584 281.548 285.465 279.706 288.573C277.863 291.681 271.105 291.252 267.959 290.648C263.735 290.417 255.521 291.616 256.442 298.256C257.364 304.896 254.061 306.247 252.296 306.095C247.307 302.406 237.97 297.657 240.55 308.17C243.129 318.683 241.623 321.09 240.55 320.979C236.482 321.472 229.309 323.386 233.179 327.075C238.016 331.686 241.01 337.855 237.325 347.594C234.377 355.386 236.095 366.826 237.325 371.571C246.156 378.948 261.233 393.335 250.914 391.859C240.596 390.384 236.021 398.623 235.022 402.926L223.045 405.36C226.73 401.985 230.599 396.309 216.595 400.62C202.591 404.927 198.938 400.265 198.86 397.392C198.091 400.048 195.359 405.36 190.568 405.36C185.777 405.36 182.276 408.348 181.124 409.842C178.669 411.442 173.109 412.3 170.529 402.926C167.95 393.551 163.311 394.718 161.316 396.47C155.479 401.851 141.6 410.119 132.755 400.159C123.91 390.199 116.48 396.009 113.868 400.159C113.255 402.543 110.966 407.592 106.728 408.735C102.49 409.879 94.7322 409.215 91.3832 408.735L87.4491 414.642L85.086 422.236L94.5341 425.612L99.2605 429.831L94.5341 445.863L79.5765 454.301L71.7038 461.052L64.6142 464.427V470.334L74.8501 472.865L81.1473 475.396L77.2133 481.303L65.4065 486.366L61.4725 493.116L58.75 499.752C61.0809 498.982 66.1989 499.982 68.0415 510.126C69.8842 513.354 76.3334 516.997 87.3893 505.746C89.6142 500.213 96.2339 489.239 104.894 489.608C113.555 489.976 117.254 495.293 118.023 497.907C119.483 499.503 122.814 501.739 124.472 497.907C126.131 494.076 128.236 492.005 129.079 491.452C130.539 490.76 133.64 491.452 134.377 499.752C135.114 508.051 138.675 508.434 140.365 507.59C146.275 507.208 159.206 507.175 163.629 510.126C168.051 513.077 171.46 511.358 172.611 510.126C174.251 507.973 178.876 503.763 184.28 504.132C189.683 504.501 195.488 505.977 197.717 506.668C205.272 500.766 205.627 493.296 204.858 490.299C195.46 474.437 199.251 462.02 202.324 457.792C202.324 452.872 204.627 442.345 213.84 439.578C223.054 436.812 227.048 429.974 227.891 426.898C230.286 432.985 255.148 444.037 267.277 448.8C267.89 450.635 268.751 454.997 267.277 457.792C265.434 461.282 264.974 471.625 277.181 466.091C286.947 461.665 303.209 461.328 310.119 461.711L319.101 456.408C329.158 456.791 351.384 458.391 359.828 461.711C368.272 465.031 372.432 463.094 373.459 461.711C379.674 457.178 392.982 449.349 396.492 454.301C400.003 459.253 406.862 458.539 409.852 457.561C414.172 453.872 424.04 448.058 428.969 454.301C433.898 460.544 450.532 456.902 458.23 454.301L468.466 414.642L470.041 398.61L461.386 400.297L454.287 405.36Z" fill="#DCE1FD"/>
</g>
<g filter="url(#filter6_d_1607_62103)">
<path d="M428.955 454.306C424.026 448.063 414.159 453.877 409.838 457.566C406.848 458.543 399.989 459.258 396.479 454.306C392.968 449.354 379.66 457.183 373.446 461.716C372.423 463.099 368.259 465.036 359.815 461.716C351.371 458.396 329.144 456.796 319.088 456.413L310.105 461.716C303.196 461.333 286.934 461.67 277.168 466.096C264.961 471.629 265.422 461.287 267.264 457.796C268.738 455.002 267.877 450.64 267.264 448.805C255.135 444.042 230.274 432.989 227.878 426.903C227.035 429.978 223.041 436.816 213.828 439.583C204.615 442.35 202.312 452.877 202.312 457.796C199.239 462.025 195.448 474.442 204.845 490.304C205.615 493.301 205.26 500.771 197.705 506.673C199.087 512.437 201.662 525.532 200.93 531.803C200.197 538.074 207.996 542.56 211.985 544.022C215.058 545.871 221.526 552.197 222.811 562.696L224.419 565.694L244.886 564.006L258.268 556.412L266.14 555.568L274.013 569.069L281.886 571.6L298.419 572.444L313.376 577.507L320.461 578.351L321.249 569.069L317.315 556.412L322.829 547.974L329.914 542.911L347.234 540.379L367.697 544.598L392.102 543.755L404.697 540.379L422.801 531.097L437.763 508.31L449.569 482.996L458.225 454.306C450.518 456.907 433.884 460.549 428.955 454.306Z" fill="#B4C2F9"/>
</g>
<g filter="url(#filter7_d_1607_62103)">
<path d="M100.825 656.829L94.5278 648.391L88.2306 649.235L87.4429 655.142L92.9523 661.892L103.188 663.58L100.825 656.829Z" fill="#809CFE"/>
</g>
<g filter="url(#filter8_d_1607_62103)">
<path d="M103.188 713.179L94.5272 714.023L47.296 727.529L29.1876 741.03L24.4658 749.468L26.0413 753.687L32.3385 762.125L33.9093 763.812L39.4234 765.5L44.9328 762.125L81.1451 759.593L97.678 754.531L118.933 744.405L122.867 738.498L126.018 729.216L122.079 719.09L103.188 713.179Z" fill="#809CFE"/>
</g>
<g filter="url(#filter9_d_1607_62103)">
<path d="M57.5278 158.114L62.2541 159.802L69.3344 160.646L70.1267 140.394L66.9759 132.795L55.9569 126.889L50.4429 134.488L55.1692 153.895L57.5278 158.114Z" fill="#DCE1FD"/>
</g>
<g filter="url(#filter10_d_1607_62103)">
<path d="M44.9316 644.173L50.441 633.203L45.7193 626.453L33.1203 623.921L30.7617 628.14L17.3796 641.641L15.8042 648.392L18.9551 650.079L23.6768 655.142L32.3372 652.611L44.9316 644.173Z" fill="#809CFE"/>
</g>
<g filter="url(#filter11_d_1607_62103)">
<path d="M22.8915 602.826L24.467 599.45L25.2547 585.101L13.4435 572.444L4 579.194L9.50946 583.413L11.8726 591.851L17.3821 601.977L22.8915 602.826Z" fill="#809CFE"/>
</g>
<g filter="url(#filter12_d_1607_62103)">
<path d="M259.842 574.132L253.54 569.913L242.521 576.663L243.309 585.945L248.036 597.758H251.182L256.696 593.539L262.201 602.826L271.649 601.977L273.224 587.633L269.286 576.663L259.842 574.132Z" fill="#B4C2F9"/>
</g>
<g filter="url(#filter13_d_1607_62103)">
<path d="M502.239 169.084L493.578 171.615L489.64 175.834L490.427 180.897L497.512 185.116L503.809 180.897L506.173 172.459L502.239 169.084Z" fill="#B4C2F9"/>
</g>
<g filter="url(#filter14_d_1607_62103)">
<path d="M229.929 613.795L236.226 620.546L237.802 616.327L236.226 606.196L229.929 613.795Z" fill="#809CFE"/>
</g>
<g filter="url(#filter15_d_1607_62103)">
<path d="M56.7441 332.792L52.81 320.979L44.1543 314.224L46.5129 336.168L55.1732 342.918L56.7441 332.792Z" fill="#B4C2F9"/>
</g>
<g filter="url(#filter16_d_1607_62103)">
<path d="M352.732 557.255L341.709 569.069L329.114 579.195L333.048 585.945L349.581 598.607L362.18 589.32L359.812 556.412L352.732 557.255Z" fill="#B4C2F9"/>
</g>
<defs>
<filter id="filter0_d_1607_62103" x="121.224" y="0" width="321.313" height="257.2" filterUnits="userSpaceOnUse" color-interpolation-filters="sRGB">
<feFlood flood-opacity="0" result="BackgroundImageFix"/>
<feColorMatrix in="SourceAlpha" type="matrix" values="0 0 0 0 0 0 0 0 0 0 0 0 0 0 0 0 0 0 127 0" result="hardAlpha"/>
<feOffset dy="2"/>
<feGaussianBlur stdDeviation="2"/>
<feComposite in2="hardAlpha" operator="out"/>
<feColorMatrix type="matrix" values="0 0 0 0 0.0156863 0 0 0 0 0 0 0 0 0 0.980392 0 0 0 0.2 0"/>
<feBlend mode="normal" in2="BackgroundImageFix" result="effect1_dropShadow_1607_62103"/>
<feBlend mode="normal" in="SourceGraphic" in2="effect1_dropShadow_1607_62103" result="shape"/>
</filter>
<filter id="filter1_d_1607_62103" x="32.2656" y="487.603" width="200.062" height="181.133" filterUnits="userSpaceOnUse" color-interpolation-filters="sRGB">
<feFlood flood-opacity="0" result="BackgroundImageFix"/>
<feColorMatrix in="SourceAlpha" type="matrix" values="0 0 0 0 0 0 0 0 0 0 0 0 0 0 0 0 0 0 127 0" result="hardAlpha"/>
<feOffset dy="2"/>
<feGaussianBlur stdDeviation="2"/>
<feComposite in2="hardAlpha" operator="out"/>
<feColorMatrix type="matrix" values="0 0 0 0 0.0156863 0 0 0 0 0 0 0 0 0 0.980392 0 0 0 0.2 0"/>
<feBlend mode="normal" in2="BackgroundImageFix" result="effect1_dropShadow_1607_62103"/>
<feBlend mode="normal" in="SourceGraphic" in2="effect1_dropShadow_1607_62103" result="shape"/>
</filter>
<filter id="filter2_d_1607_62103" x="69.2739" y="68.4448" width="154.2" height="211.604" filterUnits="userSpaceOnUse" color-interpolation-filters="sRGB">
<feFlood flood-opacity="0" result="BackgroundImageFix"/>
<feColorMatrix in="SourceAlpha" type="matrix" values="0 0 0 0 0 0 0 0 0 0 0 0 0 0 0 0 0 0 127 0" result="hardAlpha"/>
<feOffset dy="2"/>
<feGaussianBlur stdDeviation="2"/>
<feComposite in2="hardAlpha" operator="out"/>
<feColorMatrix type="matrix" values="0 0 0 0 0.0156863 0 0 0 0 0 0 0 0 0 0.980392 0 0 0 0.2 0"/>
<feBlend mode="normal" in2="BackgroundImageFix" result="effect1_dropShadow_1607_62103"/>
<feBlend mode="normal" in="SourceGraphic" in2="effect1_dropShadow_1607_62103" result="shape"/>
</filter>
<filter id="filter3_d_1607_62103" x="161.767" y="213.339" width="161.787" height="198.021" filterUnits="userSpaceOnUse" color-interpolation-filters="sRGB">
<feFlood flood-opacity="0" result="BackgroundImageFix"/>
<feColorMatrix in="SourceAlpha" type="matrix" values="0 0 0 0 0 0 0 0 0 0 0 0 0 0 0 0 0 0 127 0" result="hardAlpha"/>
<feOffset dy="2"/>
<feGaussianBlur stdDeviation="2"/>
<feComposite in2="hardAlpha" operator="out"/>
<feColorMatrix type="matrix" values="0 0 0 0 0.0156863 0 0 0 0 0 0 0 0 0 0.980392 0 0 0 0.2 0"/>
<feBlend mode="normal" in2="BackgroundImageFix" result="effect1_dropShadow_1607_62103"/>
<feBlend mode="normal" in="SourceGraphic" in2="effect1_dropShadow_1607_62103" result="shape"/>
</filter>
<filter id="filter4_d_1607_62103" x="18.8848" y="252.313" width="189.983" height="164.53" filterUnits="userSpaceOnUse" color-interpolation-filters="sRGB">
<feFlood flood-opacity="0" result="BackgroundImageFix"/>
<feColorMatrix in="SourceAlpha" type="matrix" values="0 0 0 0 0 0 0 0 0 0 0 0 0 0 0 0 0 0 127 0" result="hardAlpha"/>
<feOffset dy="2"/>
<feGaussianBlur stdDeviation="2"/>
<feComposite in2="hardAlpha" operator="out"/>
<feColorMatrix type="matrix" values="0 0 0 0 0.0156863 0 0 0 0 0 0 0 0 0 0.980392 0 0 0 0.2 0"/>
<feBlend mode="normal" in2="BackgroundImageFix" result="effect1_dropShadow_1607_62103"/>
<feBlend mode="normal" in="SourceGraphic" in2="effect1_dropShadow_1607_62103" result="shape"/>
</filter>
<filter id="filter5_d_1607_62103" x="54.75" y="210.971" width="419.292" height="308.398" filterUnits="userSpaceOnUse" color-interpolation-filters="sRGB">
<feFlood flood-opacity="0" result="BackgroundImageFix"/>
<feColorMatrix in="SourceAlpha" type="matrix" values="0 0 0 0 0 0 0 0 0 0 0 0 0 0 0 0 0 0 127 0" result="hardAlpha"/>
<feOffset dy="2"/>
<feGaussianBlur stdDeviation="2"/>
<feComposite in2="hardAlpha" operator="out"/>
<feColorMatrix type="matrix" values="0 0 0 0 0.0156863 0 0 0 0 0 0 0 0 0 0.980392 0 0 0 0.2 0"/>
<feBlend mode="normal" in2="BackgroundImageFix" result="effect1_dropShadow_1607_62103"/>
<feBlend mode="normal" in="SourceGraphic" in2="effect1_dropShadow_1607_62103" result="shape"/>
</filter>
<filter id="filter6_d_1607_62103" x="193.705" y="424.903" width="268.52" height="159.448" filterUnits="userSpaceOnUse" color-interpolation-filters="sRGB">
<feFlood flood-opacity="0" result="BackgroundImageFix"/>
<feColorMatrix in="SourceAlpha" type="matrix" values="0 0 0 0 0 0 0 0 0 0 0 0 0 0 0 0 0 0 127 0" result="hardAlpha"/>
<feOffset dy="2"/>
<feGaussianBlur stdDeviation="2"/>
<feComposite in2="hardAlpha" operator="out"/>
<feColorMatrix type="matrix" values="0 0 0 0 0.0156863 0 0 0 0 0 0 0 0 0 0.980392 0 0 0 0.2 0"/>
<feBlend mode="normal" in2="BackgroundImageFix" result="effect1_dropShadow_1607_62103"/>
<feBlend mode="normal" in="SourceGraphic" in2="effect1_dropShadow_1607_62103" result="shape"/>
</filter>
<filter id="filter7_d_1607_62103" x="83.4429" y="646.391" width="23.7451" height="23.1887" filterUnits="userSpaceOnUse" color-interpolation-filters="sRGB">
<feFlood flood-opacity="0" result="BackgroundImageFix"/>
<feColorMatrix in="SourceAlpha" type="matrix" values="0 0 0 0 0 0 0 0 0 0 0 0 0 0 0 0 0 0 127 0" result="hardAlpha"/>
<feOffset dy="2"/>
<feGaussianBlur stdDeviation="2"/>
<feComposite in2="hardAlpha" operator="out"/>
<feColorMatrix type="matrix" values="0 0 0 0 0.0156863 0 0 0 0 0 0 0 0 0 0.980392 0 0 0 0.2 0"/>
<feBlend mode="normal" in2="BackgroundImageFix" result="effect1_dropShadow_1607_62103"/>
<feBlend mode="normal" in="SourceGraphic" in2="effect1_dropShadow_1607_62103" result="shape"/>
</filter>
<filter id="filter8_d_1607_62103" x="20.4658" y="711.179" width="109.552" height="60.3208" filterUnits="userSpaceOnUse" color-interpolation-filters="sRGB">
<feFlood flood-opacity="0" result="BackgroundImageFix"/>
<feColorMatrix in="SourceAlpha" type="matrix" values="0 0 0 0 0 0 0 0 0 0 0 0 0 0 0 0 0 0 127 0" result="hardAlpha"/>
<feOffset dy="2"/>
<feGaussianBlur stdDeviation="2"/>
<feComposite in2="hardAlpha" operator="out"/>
<feColorMatrix type="matrix" values="0 0 0 0 0.0156863 0 0 0 0 0 0 0 0 0 0.980392 0 0 0 0.2 0"/>
<feBlend mode="normal" in2="BackgroundImageFix" result="effect1_dropShadow_1607_62103"/>
<feBlend mode="normal" in="SourceGraphic" in2="effect1_dropShadow_1607_62103" result="shape"/>
</filter>
<filter id="filter9_d_1607_62103" x="46.4429" y="124.889" width="27.6841" height="41.7571" filterUnits="userSpaceOnUse" color-interpolation-filters="sRGB">
<feFlood flood-opacity="0" result="BackgroundImageFix"/>
<feColorMatrix in="SourceAlpha" type="matrix" values="0 0 0 0 0 0 0 0 0 0 0 0 0 0 0 0 0 0 127 0" result="hardAlpha"/>
<feOffset dy="2"/>
<feGaussianBlur stdDeviation="2"/>
<feComposite in2="hardAlpha" operator="out"/>
<feColorMatrix type="matrix" values="0 0 0 0 0.0156863 0 0 0 0 0 0 0 0 0 0.980392 0 0 0 0.2 0"/>
<feBlend mode="normal" in2="BackgroundImageFix" result="effect1_dropShadow_1607_62103"/>
<feBlend mode="normal" in="SourceGraphic" in2="effect1_dropShadow_1607_62103" result="shape"/>
</filter>
<filter id="filter10_d_1607_62103" x="11.8042" y="621.921" width="42.6367" height="39.2209" filterUnits="userSpaceOnUse" color-interpolation-filters="sRGB">
<feFlood flood-opacity="0" result="BackgroundImageFix"/>
<feColorMatrix in="SourceAlpha" type="matrix" values="0 0 0 0 0 0 0 0 0 0 0 0 0 0 0 0 0 0 127 0" result="hardAlpha"/>
<feOffset dy="2"/>
<feGaussianBlur stdDeviation="2"/>
<feComposite in2="hardAlpha" operator="out"/>
<feColorMatrix type="matrix" values="0 0 0 0 0.0156863 0 0 0 0 0 0 0 0 0 0.980392 0 0 0 0.2 0"/>
<feBlend mode="normal" in2="BackgroundImageFix" result="effect1_dropShadow_1607_62103"/>
<feBlend mode="normal" in="SourceGraphic" in2="effect1_dropShadow_1607_62103" result="shape"/>
</filter>
<filter id="filter11_d_1607_62103" x="0" y="570.444" width="29.2549" height="38.3818" filterUnits="userSpaceOnUse" color-interpolation-filters="sRGB">
<feFlood flood-opacity="0" result="BackgroundImageFix"/>
<feColorMatrix in="SourceAlpha" type="matrix" values="0 0 0 0 0 0 0 0 0 0 0 0 0 0 0 0 0 0 127 0" result="hardAlpha"/>
<feOffset dy="2"/>
<feGaussianBlur stdDeviation="2"/>
<feComposite in2="hardAlpha" operator="out"/>
<feColorMatrix type="matrix" values="0 0 0 0 0.0156863 0 0 0 0 0 0 0 0 0 0.980392 0 0 0 0.2 0"/>
<feBlend mode="normal" in2="BackgroundImageFix" result="effect1_dropShadow_1607_62103"/>
<feBlend mode="normal" in="SourceGraphic" in2="effect1_dropShadow_1607_62103" result="shape"/>
</filter>
<filter id="filter12_d_1607_62103" x="238.521" y="567.913" width="38.7026" height="40.9133" filterUnits="userSpaceOnUse" color-interpolation-filters="sRGB">
<feFlood flood-opacity="0" result="BackgroundImageFix"/>
<feColorMatrix in="SourceAlpha" type="matrix" values="0 0 0 0 0 0 0 0 0 0 0 0 0 0 0 0 0 0 127 0" result="hardAlpha"/>
<feOffset dy="2"/>
<feGaussianBlur stdDeviation="2"/>
<feComposite in2="hardAlpha" operator="out"/>
<feColorMatrix type="matrix" values="0 0 0 0 0.0156863 0 0 0 0 0 0 0 0 0 0.980392 0 0 0 0.2 0"/>
<feBlend mode="normal" in2="BackgroundImageFix" result="effect1_dropShadow_1607_62103"/>
<feBlend mode="normal" in="SourceGraphic" in2="effect1_dropShadow_1607_62103" result="shape"/>
</filter>
<filter id="filter13_d_1607_62103" x="485.64" y="167.084" width="24.5332" height="24.0325" filterUnits="userSpaceOnUse" color-interpolation-filters="sRGB">
<feFlood flood-opacity="0" result="BackgroundImageFix"/>
<feColorMatrix in="SourceAlpha" type="matrix" values="0 0 0 0 0 0 0 0 0 0 0 0 0 0 0 0 0 0 127 0" result="hardAlpha"/>
<feOffset dy="2"/>
<feGaussianBlur stdDeviation="2"/>
<feComposite in2="hardAlpha" operator="out"/>
<feColorMatrix type="matrix" values="0 0 0 0 0.0156863 0 0 0 0 0 0 0 0 0 0.980392 0 0 0 0.2 0"/>
<feBlend mode="normal" in2="BackgroundImageFix" result="effect1_dropShadow_1607_62103"/>
<feBlend mode="normal" in="SourceGraphic" in2="effect1_dropShadow_1607_62103" result="shape"/>
</filter>
<filter id="filter14_d_1607_62103" x="225.929" y="604.196" width="15.8735" height="22.3494" filterUnits="userSpaceOnUse" color-interpolation-filters="sRGB">
<feFlood flood-opacity="0" result="BackgroundImageFix"/>
<feColorMatrix in="SourceAlpha" type="matrix" values="0 0 0 0 0 0 0 0 0 0 0 0 0 0 0 0 0 0 127 0" result="hardAlpha"/>
<feOffset dy="2"/>
<feGaussianBlur stdDeviation="2"/>
<feComposite in2="hardAlpha" operator="out"/>
<feColorMatrix type="matrix" values="0 0 0 0 0.0156863 0 0 0 0 0 0 0 0 0 0.980392 0 0 0 0.2 0"/>
<feBlend mode="normal" in2="BackgroundImageFix" result="effect1_dropShadow_1607_62103"/>
<feBlend mode="normal" in="SourceGraphic" in2="effect1_dropShadow_1607_62103" result="shape"/>
</filter>
<filter id="filter15_d_1607_62103" x="40.1543" y="312.224" width="20.5898" height="36.6941" filterUnits="userSpaceOnUse" color-interpolation-filters="sRGB">
<feFlood flood-opacity="0" result="BackgroundImageFix"/>
<feColorMatrix in="SourceAlpha" type="matrix" values="0 0 0 0 0 0 0 0 0 0 0 0 0 0 0 0 0 0 127 0" result="hardAlpha"/>
<feOffset dy="2"/>
<feGaussianBlur stdDeviation="2"/>
<feComposite in2="hardAlpha" operator="out"/>
<feColorMatrix type="matrix" values="0 0 0 0 0.0156863 0 0 0 0 0 0 0 0 0 0.980392 0 0 0 0.2 0"/>
<feBlend mode="normal" in2="BackgroundImageFix" result="effect1_dropShadow_1607_62103"/>
<feBlend mode="normal" in="SourceGraphic" in2="effect1_dropShadow_1607_62103" result="shape"/>
</filter>
<filter id="filter16_d_1607_62103" x="325.114" y="554.412" width="41.0659" height="50.1951" filterUnits="userSpaceOnUse" color-interpolation-filters="sRGB">
<feFlood flood-opacity="0" result="BackgroundImageFix"/>
<feColorMatrix in="SourceAlpha" type="matrix" values="0 0 0 0 0 0 0 0 0 0 0 0 0 0 0 0 0 0 127 0" result="hardAlpha"/>
<feOffset dy="2"/>
<feGaussianBlur stdDeviation="2"/>
<feComposite in2="hardAlpha" operator="out"/>
<feColorMatrix type="matrix" values="0 0 0 0 0.0156863 0 0 0 0 0 0 0 0 0 0.980392 0 0 0 0.2 0"/>
<feBlend mode="normal" in2="BackgroundImageFix" result="effect1_dropShadow_1607_62103"/>
<feBlend mode="normal" in="SourceGraphic" in2="effect1_dropShadow_1607_62103" result="shape"/>
</filter>
</defs>
</svg>
