<svg width="529" height="253" viewBox="0 0 529 253" fill="none" xmlns="http://www.w3.org/2000/svg">
<path d="M240.551 29.2331C240.551 25.5771 241.16 22.2694 242.379 19.3098C243.597 16.3502 245.265 13.8549 247.398 11.8093C249.53 9.76372 252.069 8.18238 255.028 7.03627C257.987 5.90467 261.207 5.33887 264.689 5.33887H309.222C312.703 5.33887 315.894 5.90467 318.825 7.03627C321.74 8.16787 324.279 9.76372 326.455 11.8093C328.631 13.8549 330.328 16.3647 331.546 19.3098C332.765 22.2694 333.374 25.5771 333.374 29.2331C333.374 32.889 332.765 36.1968 331.546 39.1563C330.328 42.1159 328.631 44.6258 326.455 46.6568C324.279 48.7024 321.726 50.2983 318.825 51.4299C315.909 52.5615 312.703 53.1273 309.222 53.1273H264.689C261.207 53.1273 257.987 52.5615 255.028 51.4299C252.069 50.2983 249.53 48.7024 247.398 46.6568C245.265 44.6112 243.583 42.1159 242.379 39.1563C241.16 36.2113 240.551 32.889 240.551 29.2331ZM306.553 76.6298H267.387V115.801H259.554V76.6298H235.401V69.8402H338.538V76.6298H314.386V115.801H306.553V76.6298ZM248.384 29.2331C248.384 31.5833 248.747 33.803 249.487 35.8921C250.226 37.9812 251.3 39.8092 252.692 41.376C254.085 42.9429 255.782 44.1615 257.784 45.032C259.786 45.9024 262.092 46.3377 264.703 46.3377H309.236C311.847 46.3377 314.154 45.9024 316.156 45.032C318.157 44.1615 319.855 42.9429 321.247 41.376C322.64 39.8092 323.699 37.9812 324.438 35.8921C325.178 33.803 325.555 31.5833 325.555 29.2331C325.555 26.8828 325.178 24.6631 324.438 22.574C323.699 20.4849 322.625 18.6569 321.247 17.0901C319.855 15.5233 318.157 14.3046 316.156 13.4342C314.154 12.5637 311.847 12.1285 309.236 12.1285H264.703C262.092 12.1285 259.786 12.5637 257.784 13.4342C255.782 14.3046 254.085 15.5233 252.692 17.0901C251.3 18.6569 250.226 20.4849 249.487 22.574C248.747 24.6631 248.384 26.8828 248.384 29.2331Z" fill="black"/>
<path d="M380.895 10.5615V0.115967H388.728V10.5615H421.366V17.3511H348.257V10.5615H380.895ZM350.215 46.207C350.215 39.5044 352.275 34.2816 356.424 30.5386C360.558 26.7957 366.099 24.9242 373.062 24.9242H396.561C403.524 24.9242 409.065 26.7957 413.2 30.5386C417.334 34.2816 419.408 39.5044 419.408 46.207C419.408 52.9095 417.334 58.1323 413.2 61.8753C409.065 65.6183 403.524 67.4898 396.561 67.4898H373.062C366.099 67.4898 360.543 65.6183 356.424 61.8753C352.275 58.1468 350.215 52.924 350.215 46.207ZM357.468 96.3456C357.468 92.6897 358.063 89.614 359.223 87.1332C360.398 84.6524 362.052 82.6503 364.184 81.127C366.317 79.6037 368.899 78.5156 371.959 77.8628C375.006 77.21 378.444 76.8908 382.273 76.8908H425.646C429.388 76.8908 432.797 77.21 435.901 77.8628C438.991 78.5156 441.602 79.6037 443.734 81.127C445.867 82.6503 447.52 84.6524 448.695 87.1332C449.87 89.614 450.451 92.6897 450.451 96.3456C450.451 100.002 449.87 103.063 448.695 105.544C447.52 108.024 445.867 110.026 443.734 111.55C441.602 113.073 438.991 114.161 435.901 114.814C432.812 115.467 429.388 115.786 425.646 115.786H382.273C378.444 115.786 375.006 115.467 371.959 114.814C368.913 114.161 366.317 113.073 364.184 111.55C362.052 110.026 360.398 108.024 359.223 105.544C358.048 103.077 357.468 100.002 357.468 96.3456ZM358.048 46.207C358.048 50.2981 359.267 53.7365 361.704 56.522C364.141 59.3074 367.927 60.7002 373.062 60.7002H396.561C401.696 60.7002 405.482 59.3074 407.919 56.522C410.356 53.7365 411.575 50.2981 411.575 46.207C411.575 42.1158 410.356 38.6775 407.919 35.892C405.482 33.1065 401.696 31.7138 396.561 31.7138H373.062C367.927 31.7138 364.141 33.1065 361.704 35.892C359.267 38.692 358.048 42.1158 358.048 46.207ZM365.301 96.3456C365.301 101.133 366.665 104.441 369.406 106.269C372.148 108.097 376.427 109.011 382.259 109.011H425.631C431.463 109.011 435.742 108.097 438.498 106.269C441.239 104.441 442.603 101.133 442.603 96.3456C442.603 91.5581 441.225 88.2503 438.498 86.4224C435.756 84.5944 431.463 83.6804 425.631 83.6804H382.259C376.427 83.6804 372.148 84.5944 369.406 86.4224C366.665 88.2503 365.301 91.5581 365.301 96.3456ZM443.56 50.6463V31.8443H424.239V25.0547H443.56V5.33874H451.394V69.84H443.56V57.4359H424.239V50.6463H443.56Z" fill="black"/>
<path d="M104.181 203.746V210.536H57.8349V234.822H50.0017V210.536H1.04443V203.746H104.181ZM11.4887 246.181H224.29V252.971H3.65549V225.29H11.4887V246.181Z" fill="black"/>
<path d="M215.412 26.6361H188.388C187.953 23.3283 186.879 20.2817 185.182 17.4962C183.485 14.7107 181.193 12.317 178.335 10.3149C175.463 8.31283 172.083 6.746 168.225 5.61439C164.351 4.48279 160.072 3.91699 155.358 3.91699C150.223 3.91699 145.61 4.56984 141.519 5.87553C137.429 7.18123 133.947 8.99469 131.075 11.2869C128.203 13.5936 125.983 16.3646 124.417 19.5708C122.85 22.7915 122.067 26.2734 122.067 30.0164V34.7169C122.067 38.5469 122.85 42.0578 124.417 45.235C125.983 48.4121 128.203 51.1541 131.075 53.4608C133.947 55.7676 137.429 57.5665 141.519 58.8867C145.61 60.1924 150.223 60.8453 155.358 60.8453C160.493 60.8453 165.106 60.1924 169.196 58.8867C173.287 57.581 176.769 55.7821 179.641 53.4608C182.513 51.1541 184.732 48.4121 186.299 45.235C187.865 42.0578 188.649 38.5614 188.649 34.7169V33.4112H215.412V60.5696H223.245V5.22269H215.412V26.6361ZM180.816 34.7314C180.816 37.6039 180.206 40.2443 178.988 42.6381C177.769 45.0318 176.043 47.0774 173.824 48.7748C171.604 50.4722 168.921 51.7779 165.802 52.6919C162.669 53.6059 159.187 54.0702 155.358 54.0702C151.528 54.0702 148.047 53.6204 144.914 52.6919C141.78 51.7779 139.111 50.4722 136.877 48.7748C134.643 47.0774 132.946 45.0318 131.728 42.6381C130.509 40.2443 129.9 37.6184 129.9 34.7314V30.0309C129.9 27.1583 130.509 24.5325 131.728 22.1387C132.946 19.7449 134.658 17.6993 136.877 16.0019C139.097 14.3045 141.78 12.9988 144.914 12.0848C148.047 11.1708 151.528 10.7211 155.358 10.7211C159.187 10.7211 162.669 11.1708 165.802 12.0848C168.935 12.9988 171.604 14.3045 173.824 16.0019C176.043 17.6993 177.755 19.7449 178.988 22.1387C180.206 24.5325 180.816 27.1583 180.816 30.0309V34.7314Z" fill="#010202"/>
<path d="M155.358 18.4102C155.097 23.5459 153.965 27.0713 151.963 28.9863C149.961 30.9013 146.828 31.9459 142.563 32.1199C146.828 32.294 149.961 33.3386 151.963 35.2536C153.965 37.1686 155.097 40.694 155.358 45.8297C155.619 40.694 156.721 37.1686 158.679 35.2536C160.638 33.3386 163.786 32.294 168.137 32.1199C163.786 31.9459 160.638 30.9013 158.679 28.9863C156.721 27.0713 155.619 23.5459 155.358 18.4102Z" fill="#010202"/>
<path d="M28.5912 19.8467H27.5758C27.0681 20.8187 26.72 21.8923 26.5459 23.0239L28.5912 19.8467Z" fill="#020304"/>
<path d="M43.8368 31.5542L41.0807 27.2744C40.1523 28.8122 38.4842 29.8423 36.5549 29.8423C34.6256 29.8423 32.9574 28.8122 32.0291 27.2744L29.2729 31.5542C31.1152 33.4547 33.6972 34.6588 36.5549 34.6588C39.4126 34.6588 41.9946 33.4547 43.8368 31.5542Z" fill="#020304"/>
<path d="M46.5931 23.2705C46.448 22.0519 46.0709 20.8912 45.5341 19.8467H44.3882L46.5931 23.2705Z" fill="#020304"/>
<path d="M18.3645 39.9108H23.8912L29.2729 31.5544C27.5177 29.7264 26.4298 27.2601 26.4298 24.5326C26.4298 24.0249 26.4733 23.5171 26.5458 23.0383L0.652832 63.4568H8.74711L22.0345 42.8123H18.3645V39.9108Z" fill="#010202"/>
<path d="M36.5548 14.4062C40.4569 14.4062 43.8367 16.6113 45.5339 19.8466H73.1096V13.0569H40.4714V0H32.6382V13.0569H0V19.8466H27.5757C29.2728 16.6113 32.6527 14.4062 36.5548 14.4062Z" fill="#010202"/>
<path d="M43.8369 31.5544L49.2186 39.9109H53.7444V42.8124H51.0899L64.3772 63.4569H72.4715L46.6075 23.2705C46.6656 23.6767 46.6946 24.0974 46.6946 24.5182C46.6801 27.2601 45.5921 29.7264 43.8369 31.5544Z" fill="#010202"/>
<path d="M92.678 78.6754C88.7469 75.3241 83.3072 73.6558 76.3444 73.6558H30.7089C23.7461 73.6558 18.2919 75.3387 14.3753 78.6754C10.7778 81.7511 8.84857 86.5096 8.54395 92.922C8.81956 89.0049 10.0671 86.0163 12.272 83.9707C14.796 81.6205 18.9737 80.4454 24.805 80.4454H30.7089H74.4151H76.3444C81.7115 80.4454 85.5556 81.6205 87.8765 83.9707C90.1975 86.321 91.3579 89.8899 91.3579 94.6774C91.3579 99.465 90.1975 103.034 87.8765 105.384C85.5556 107.734 81.7115 108.91 76.3444 108.91H74.4151H30.7089H24.805C18.9737 108.91 14.796 107.734 12.272 105.384C10.0671 103.324 8.81956 100.35 8.54395 96.4329C8.84857 102.845 10.7633 107.604 14.3753 110.679C18.2919 114.031 23.7461 115.699 30.7089 115.699H76.3444C83.3072 115.699 88.7614 114.016 92.678 110.679C96.5946 107.328 98.5674 102.004 98.5674 94.6919C98.5674 87.3801 96.6091 82.0267 92.678 78.6754Z" fill="#010202"/>
<path d="M24.6018 108.909H30.5057C25.1385 108.909 21.2945 107.734 18.9735 105.384C16.6526 103.034 15.4921 99.4649 15.4921 94.6774C15.4921 89.8898 16.6526 86.3209 18.9735 83.9707C21.2945 81.6204 25.1385 80.4453 30.5057 80.4453H24.6018C18.7705 80.4453 14.5928 81.6204 12.0687 83.9707C9.86385 86.0163 8.61635 89.0049 8.34074 92.9219C8.31173 93.5023 8.28271 94.0681 8.28271 94.6774C8.28271 95.2867 8.31173 95.8525 8.34074 96.4328C8.61635 100.35 9.86385 103.338 12.0687 105.384C14.5928 107.734 18.7705 108.909 24.6018 108.909Z" fill="#010202"/>
<path d="M96.609 5.22266H88.7759V65.8069H96.609V36.8205H113.581V30.0308H96.609V5.22266Z" fill="#010202"/>
<path d="M26.5604 23.0238C26.4879 23.5171 26.4443 24.0104 26.4443 24.5181C26.4443 27.2456 27.5323 29.7264 29.2875 31.5399L32.0436 27.2601C31.5504 26.4622 31.2603 25.5192 31.2603 24.5181C31.2603 21.5876 33.6392 19.2083 36.5694 19.2083C39.4996 19.2083 41.8786 21.5876 41.8786 24.5181C41.8786 25.5337 41.5885 26.4622 41.0953 27.2601L43.8514 31.5399C45.6066 29.7119 46.6945 27.2456 46.6945 24.5181C46.6945 24.0974 46.6655 23.6767 46.6075 23.2705L44.4026 19.8466H45.5486C43.8659 16.6114 40.4715 14.4062 36.5694 14.4062C32.6674 14.4062 29.2875 16.6114 27.5903 19.8466H28.6057L26.5604 23.0238Z" fill="#010202"/>
<path d="M23.9054 39.9106L22.0342 42.8122H51.0749L49.2037 39.9106H23.9054Z" fill="#010202"/>
<path d="M18.3643 39.9106V42.8122H22.0342L23.9055 39.9106H18.3643Z" fill="#010202"/>
<path d="M53.7444 39.9106H49.2041L51.0754 42.8122H53.7444V39.9106Z" fill="#010202"/>
<path d="M162.234 155.349L185.516 199.452H193.61L167.587 150.126C167.093 151.199 166.441 152.186 165.628 153.042C164.671 154.014 163.525 154.797 162.234 155.349Z" fill="black"/>
<path d="M131.206 199.437L154.473 155.349C153.182 154.812 152.022 154.014 151.064 153.027L151.079 153.013C150.266 152.171 149.614 151.199 149.135 150.126L123.126 199.452H131.206V199.437Z" fill="black"/>
<path d="M216.442 142.509V163.27H189.302V170.059H216.442V201.788H224.29V142.509H216.442Z" fill="black"/>
<path d="M123.764 216.411H216.442V252.971H224.29V209.622H123.764V216.411Z" fill="black"/>
<path d="M149.367 141.32C148.86 142.292 148.511 143.365 148.337 144.497L150.383 141.32H149.382H149.367Z" fill="#020304"/>
<path d="M158.332 151.315C157.766 151.315 157.229 151.214 156.736 151.054L154.473 155.349C155.663 155.842 156.968 156.132 158.346 156.132C159.724 156.132 161.044 155.842 162.234 155.334L159.971 151.04C159.449 151.214 158.912 151.315 158.332 151.315Z" fill="#020304"/>
<path d="M153.821 148.762L151.079 153.027L151.064 153.042C152.022 154.028 153.182 154.826 154.473 155.363L156.736 151.069C155.503 150.662 154.473 149.85 153.821 148.762Z" fill="#020304"/>
<path d="M162.872 148.748C162.219 149.836 161.189 150.663 159.971 151.054L162.234 155.349C163.525 154.812 164.671 154.014 165.628 153.027L162.872 148.748Z" fill="#020304"/>
<path d="M168.37 144.714C168.225 143.51 167.847 142.35 167.311 141.32H166.179L168.37 144.714Z" fill="#020304"/>
<path d="M154.372 142.509C155.344 141.392 156.751 140.681 158.346 140.681C159.942 140.681 161.349 141.392 162.321 142.509H163.568L167.572 150.111C168.138 148.849 168.471 147.456 168.471 145.991C168.471 145.57 168.442 145.15 168.384 144.743L168.37 144.714C168.37 144.729 168.37 144.729 168.37 144.743L166.165 141.32H166.179H167.311H167.325C165.643 138.084 162.248 135.879 158.346 135.879C154.444 135.879 151.064 138.084 149.367 141.32H150.368H150.383L148.337 144.497C148.265 144.99 148.221 145.483 148.221 145.991C148.221 147.456 148.54 148.849 149.106 150.111L153.124 142.509H154.372Z" fill="#010202"/>
<path d="M153.806 148.748C153.82 148.748 153.82 148.748 153.806 148.748L153.82 148.733C153.327 147.935 153.037 146.992 153.037 145.991C153.037 144.656 153.545 143.438 154.372 142.509H153.124L149.106 150.111C149.585 151.185 150.252 152.171 151.05 152.998L153.806 148.748Z" fill="#010202"/>
<path d="M162.335 142.509C163.148 143.438 163.67 144.656 163.67 145.991C163.67 147.007 163.365 147.935 162.872 148.733L165.628 153.013C166.441 152.171 167.093 151.185 167.587 150.097L163.583 142.495H162.335V142.509Z" fill="#010202"/>
<path d="M153.821 148.762L153.806 148.748L151.064 153.013H151.079L153.821 148.762Z" fill="#010202"/>
<path d="M166.179 141.32L168.384 144.743C168.384 144.729 168.384 144.729 168.384 144.714L166.179 141.32Z" fill="#010202"/>
<path d="M146.364 167.187L144.493 170.089H173.534L171.663 167.187H146.364Z" fill="#010202"/>
<path d="M318.506 149.981H285.867V140.188H278.034V149.981H245.396V156.77H318.506V149.981Z" fill="#010202"/>
<path d="M293.7 197.334C300.663 197.334 306.204 195.999 310.338 193.344C314.473 190.689 316.547 186.468 316.547 180.694C316.547 174.919 314.473 170.698 310.338 168.043C306.204 165.388 300.663 164.053 293.7 164.053H270.201C263.238 164.053 257.682 165.388 253.563 168.043C249.428 170.698 247.354 174.919 247.354 180.694C247.354 186.468 249.414 190.689 253.563 193.344C257.697 195.999 263.238 197.334 270.201 197.334H293.7ZM255.187 180.694C255.187 177.096 256.377 174.397 258.77 172.598C261.164 170.799 264.979 169.9 270.201 169.9H293.7C298.922 169.9 302.723 170.799 305.131 172.598C307.524 174.397 308.714 177.096 308.714 180.694C308.714 184.291 307.51 186.99 305.131 188.789C302.737 190.588 298.922 191.487 293.7 191.487H270.201C264.979 191.487 261.164 190.588 258.77 188.789C256.377 186.99 255.187 184.291 255.187 180.694Z" fill="#010202"/>
<path d="M340.409 142.509H332.576V202.179H340.409V175.804H357.381V169.015H340.409V142.509Z" fill="#010202"/>
<path d="M447.013 142.538V142.509H358.542V149.299H421.439C421.41 148.066 421.57 147.152 421.584 147.079L423.006 147.355C423.006 147.369 422.846 148.196 422.89 149.313H431.332L426.589 154.884C427.793 155.247 429.301 155.291 431.085 155L431.317 156.437C430.447 156.582 429.635 156.64 428.866 156.64C427.618 156.64 426.531 156.437 425.588 156.074L359.107 233.98V234.038L439.194 233.661V252.986H447.027V232.472V226.857V173.454H463.999V166.665H447.027V142.538H447.013ZM439.18 226.857L374.89 227.437L439.18 152.447V226.857Z" fill="#010202"/>
<path d="M509.417 143.38H466.596V149.386H508.764C517.12 149.386 521.297 153.129 521.297 160.615V197.74C521.297 205.313 517.12 209.1 508.764 209.1H480.173V235.939H487.876V215.106H509.417C522.472 215.106 529 210.318 529 200.743V157.742C529 148.167 522.472 143.38 509.417 143.38Z" fill="#010202"/>
<path d="M487.876 241.858H480.173V252.971H487.876V241.858Z" fill="#010202"/>
<path d="M424.427 153.637C423.238 152.418 422.918 150.648 422.875 149.299H421.424C421.468 150.909 421.86 153.056 423.383 154.638C423.977 155.261 424.717 155.726 425.558 156.045L426.574 154.855C425.718 154.609 424.993 154.202 424.427 153.637Z" fill="#010202"/>
<path d="M423.006 147.34L421.584 147.065C421.57 147.152 421.396 148.066 421.439 149.284H422.89C422.861 148.196 423.006 147.369 423.006 147.34Z" fill="#010202"/>
<path d="M431.303 156.408L431.071 154.971C429.287 155.261 427.793 155.218 426.574 154.855L425.559 156.045C426.501 156.422 427.589 156.611 428.837 156.611C429.606 156.625 430.433 156.553 431.303 156.408Z" fill="#010202"/>
<path d="M215.47 26.6796H188.417C187.981 23.3718 186.908 20.3107 185.211 17.5252C183.514 14.7397 181.222 12.3315 178.35 10.3294C175.477 8.32734 172.083 6.7605 168.224 5.61439C164.351 4.48279 160.058 3.91699 155.343 3.91699C150.208 3.91699 145.581 4.56984 141.49 5.87553C137.4 7.18123 133.904 8.99469 131.031 11.3014C128.159 13.6081 125.94 16.3936 124.359 19.5998C122.792 22.8205 122.009 26.3169 122.009 30.0599V34.7749C122.009 38.6049 122.792 42.1303 124.359 45.3075C125.925 48.4847 128.145 51.2412 131.031 53.5479C133.904 55.8546 137.4 57.6681 141.49 58.9883C145.581 60.294 150.208 60.9468 155.343 60.9468C160.478 60.9468 165.106 60.294 169.196 58.9883C173.287 57.6826 176.783 55.8836 179.655 53.5479C182.527 51.2412 184.747 48.4847 186.328 45.3075C187.894 42.1303 188.678 38.6194 188.678 34.7749V33.4692H215.47V60.6712H223.318V5.22269H215.47V26.6796ZM180.83 34.7894C180.83 37.6619 180.221 40.3168 179.002 42.7106C177.784 45.1044 176.058 47.1645 173.838 48.8619C171.619 50.5593 168.935 51.865 165.802 52.779C162.669 53.693 159.173 54.1572 155.343 54.1572C151.514 54.1572 148.018 53.7075 144.885 52.779C141.751 51.865 139.082 50.5593 136.834 48.8619C134.6 47.1645 132.903 45.1189 131.684 42.7106C130.466 40.3168 129.856 37.6764 129.856 34.7894V30.0744C129.856 27.2019 130.466 24.5615 131.684 22.1677C132.903 19.7739 134.614 17.7138 136.834 16.0164C139.053 14.319 141.737 13.0133 144.885 12.0848C148.018 11.1708 151.514 10.7211 155.343 10.7211C159.173 10.7211 162.669 11.1708 165.802 12.0848C168.935 12.9988 171.619 14.3045 173.838 16.0164C176.058 17.7138 177.769 19.7594 179.002 22.1677C180.221 24.5615 180.83 27.2019 180.83 30.0744V34.7894Z" fill="#010202"/>
<path d="M155.329 18.4392C155.068 23.5894 153.936 27.1148 151.934 29.0298C149.933 30.9449 146.799 31.9894 142.52 32.1635C146.785 32.3376 149.933 33.3822 151.934 35.2972C153.936 37.2122 155.068 40.7521 155.329 45.8878C155.59 40.7376 156.692 37.2122 158.651 35.2972C160.609 33.3822 163.757 32.3376 168.123 32.1635C163.771 31.9894 160.609 30.9449 158.651 29.0298C156.707 27.1148 155.59 23.5749 155.329 18.4392Z" fill="#010202"/>
<path d="M215.47 82.9261H137.689V67.2288H129.842V106.08C129.842 111.506 134.223 115.888 139.648 115.888H223.303V67.2288H215.455V82.9261H215.47ZM215.47 109.084H142.447C139.822 109.084 137.689 106.951 137.689 104.31V89.7302H215.47V109.084Z" fill="#010202"/>
<path d="M90.4153 158.918H12.6348V143.22H4.78711V182.072C4.78711 187.498 9.16788 191.879 14.5931 191.879H98.2484V143.22H90.4007V158.918H90.4153ZM90.4153 185.075H17.3927C14.7671 185.075 12.6348 182.942 12.6348 180.302V165.707H90.4153V185.075Z" fill="#010202"/>
<path d="M260.061 241.989V233.661H340.453V213.423C340.453 210.797 338.335 208.665 335.709 208.665H252.228V215.469H330.328C331.59 215.469 332.62 216.499 332.62 217.761V226.843H252.228V244.078C252.228 249.011 256.217 252.986 261.135 252.986H341.758V246.181H264.282C261.961 246.211 260.061 244.325 260.061 241.989Z" fill="#010202"/>
</svg>
