<svg width="54" height="33" viewBox="0 0 54 33" fill="none" xmlns="http://www.w3.org/2000/svg">
<path d="M0.609729 17.8644L16.684 32.5149C17.864 33.5986 19.779 32.7471 19.779 31.1408V24.1155C19.779 23.4382 20.3399 22.8769 21.0169 22.8769H51.6955C52.9721 22.8769 53.9973 21.8512 53.9973 20.5739V12.4261C53.9973 11.1488 52.9721 10.1231 51.6955 10.1231H21.0169C20.3399 10.1231 19.779 9.56184 19.779 8.88447V1.85922C19.779 0.252898 17.864 -0.598648 16.684 0.485138L0.609729 15.1356C0.417899 15.3073 0.264438 15.5176 0.159373 15.7527C0.0543069 15.9878 0 16.2425 0 16.5C0 16.7575 0.0543069 17.0122 0.159373 17.2473C0.264438 17.4824 0.417899 17.6927 0.609729 17.8644Z" fill="#3C8AFF"/>
<path d="M0.609729 17.8644L16.684 32.5149C17.864 33.5986 19.779 32.7471 19.779 31.1408V24.1155C19.779 23.4382 20.3399 22.8769 21.0169 22.8769H51.6955C52.9721 22.8769 53.9973 21.8512 53.9973 20.5739V12.4261C53.9973 11.1488 52.9721 10.1231 51.6955 10.1231H21.0169C20.3399 10.1231 19.779 9.56184 19.779 8.88447V1.85922C19.779 0.252898 17.864 -0.598648 16.684 0.485138L0.609729 15.1356C0.417899 15.3073 0.264438 15.5176 0.159373 15.7527C0.0543069 15.9878 0 16.2425 0 16.5C0 16.7575 0.0543069 17.0122 0.159373 17.2473C0.264438 17.4824 0.417899 17.6927 0.609729 17.8644Z" fill="url(#paint0_radial_1538_51492)"/>
<path d="M0.609729 17.8644L16.684 32.5149C17.864 33.5986 19.779 32.7471 19.779 31.1408V24.1155C19.779 23.4382 20.3399 22.8769 21.0169 22.8769H51.6955C52.9721 22.8769 53.9973 21.8512 53.9973 20.5739V12.4261C53.9973 11.1488 52.9721 10.1231 51.6955 10.1231H21.0169C20.3399 10.1231 19.779 9.56184 19.779 8.88447V1.85922C19.779 0.252898 17.864 -0.598648 16.684 0.485138L0.609729 15.1356C0.417899 15.3073 0.264438 15.5176 0.159373 15.7527C0.0543069 15.9878 0 16.2425 0 16.5C0 16.7575 0.0543069 17.0122 0.159373 17.2473C0.264438 17.4824 0.417899 17.6927 0.609729 17.8644Z" fill="url(#paint1_radial_1538_51492)"/>
<path d="M0.609729 17.8644L16.684 32.5149C17.864 33.5986 19.779 32.7471 19.779 31.1408V24.1155C19.779 23.4382 20.3399 22.8769 21.0169 22.8769H51.6955C52.9721 22.8769 53.9973 21.8512 53.9973 20.5739V12.4261C53.9973 11.1488 52.9721 10.1231 51.6955 10.1231H21.0169C20.3399 10.1231 19.779 9.56184 19.779 8.88447V1.85922C19.779 0.252898 17.864 -0.598648 16.684 0.485138L0.609729 15.1356C0.417899 15.3073 0.264438 15.5176 0.159373 15.7527C0.0543069 15.9878 0 16.2425 0 16.5C0 16.7575 0.0543069 17.0122 0.159373 17.2473C0.264438 17.4824 0.417899 17.6927 0.609729 17.8644Z" fill="url(#paint2_radial_1538_51492)"/>
<path d="M0.609729 17.8644L16.684 32.5149C17.864 33.5986 19.779 32.7471 19.779 31.1408V24.1155C19.779 23.4382 20.3399 22.8769 21.0169 22.8769H51.6955C52.9721 22.8769 53.9973 21.8512 53.9973 20.5739V12.4261C53.9973 11.1488 52.9721 10.1231 51.6955 10.1231H21.0169C20.3399 10.1231 19.779 9.56184 19.779 8.88447V1.85922C19.779 0.252898 17.864 -0.598648 16.684 0.485138L0.609729 15.1356C0.417899 15.3073 0.264438 15.5176 0.159373 15.7527C0.0543069 15.9878 0 16.2425 0 16.5C0 16.7575 0.0543069 17.0122 0.159373 17.2473C0.264438 17.4824 0.417899 17.6927 0.609729 17.8644Z" fill="url(#paint3_radial_1538_51492)"/>
<path d="M0.609729 17.8644L16.684 32.5149C17.864 33.5986 19.779 32.7471 19.779 31.1408V24.1155C19.779 23.4382 20.3399 22.8769 21.0169 22.8769H51.6955C52.9721 22.8769 53.9973 21.8512 53.9973 20.5739V12.4261C53.9973 11.1488 52.9721 10.1231 51.6955 10.1231H21.0169C20.3399 10.1231 19.779 9.56184 19.779 8.88447V1.85922C19.779 0.252898 17.864 -0.598648 16.684 0.485138L0.609729 15.1356C0.417899 15.3073 0.264438 15.5176 0.159373 15.7527C0.0543069 15.9878 0 16.2425 0 16.5C0 16.7575 0.0543069 17.0122 0.159373 17.2473C0.264438 17.4824 0.417899 17.6927 0.609729 17.8644Z" fill="url(#paint4_radial_1538_51492)"/>
<path d="M0.609729 17.8644L16.684 32.5149C17.864 33.5986 19.779 32.7471 19.779 31.1408V24.1155C19.779 23.4382 20.3399 22.8769 21.0169 22.8769H51.6955C52.9721 22.8769 53.9973 21.8512 53.9973 20.5739V12.4261C53.9973 11.1488 52.9721 10.1231 51.6955 10.1231H21.0169C20.3399 10.1231 19.779 9.56184 19.779 8.88447V1.85922C19.779 0.252898 17.864 -0.598648 16.684 0.485138L0.609729 15.1356C0.417899 15.3073 0.264438 15.5176 0.159373 15.7527C0.0543069 15.9878 0 16.2425 0 16.5C0 16.7575 0.0543069 17.0122 0.159373 17.2473C0.264438 17.4824 0.417899 17.6927 0.609729 17.8644Z" fill="url(#paint5_radial_1538_51492)"/>
<path d="M0.609729 17.8644L16.684 32.5149C17.864 33.5986 19.779 32.7471 19.779 31.1408V24.1155C19.779 23.4382 20.3399 22.8769 21.0169 22.8769H51.6955C52.9721 22.8769 53.9973 21.8512 53.9973 20.5739V12.4261C53.9973 11.1488 52.9721 10.1231 51.6955 10.1231H21.0169C20.3399 10.1231 19.779 9.56184 19.779 8.88447V1.85922C19.779 0.252898 17.864 -0.598648 16.684 0.485138L0.609729 15.1356C0.417899 15.3073 0.264438 15.5176 0.159373 15.7527C0.0543069 15.9878 0 16.2425 0 16.5C0 16.7575 0.0543069 17.0122 0.159373 17.2473C0.264438 17.4824 0.417899 17.6927 0.609729 17.8644Z" fill="url(#paint6_radial_1538_51492)"/>
<path d="M0.609729 17.8644L16.684 32.5149C17.864 33.5986 19.779 32.7471 19.779 31.1408V24.1155C19.779 23.4382 20.3399 22.8769 21.0169 22.8769H51.6955C52.9721 22.8769 53.9973 21.8512 53.9973 20.5739V12.4261C53.9973 11.1488 52.9721 10.1231 51.6955 10.1231H21.0169C20.3399 10.1231 19.779 9.56184 19.779 8.88447V1.85922C19.779 0.252898 17.864 -0.598648 16.684 0.485138L0.609729 15.1356C0.417899 15.3073 0.264438 15.5176 0.159373 15.7527C0.0543069 15.9878 0 16.2425 0 16.5C0 16.7575 0.0543069 17.0122 0.159373 17.2473C0.264438 17.4824 0.417899 17.6927 0.609729 17.8644Z" fill="url(#paint7_radial_1538_51492)"/>
<path d="M19.7817 24.1156C19.7817 23.4382 20.3427 22.877 21.0197 22.877H51.6976C52.9742 22.877 53.9994 21.8512 53.9994 20.5739V12.4262C53.9994 11.1489 52.9742 10.1231 51.6976 10.1231H21.0197C20.3427 10.1231 19.7817 9.56189 19.7817 8.88452V24.1156Z" fill="#3C8AFF"/>
<path d="M19.7817 24.1156C19.7817 23.4382 20.3427 22.877 21.0197 22.877H51.6976C52.9742 22.877 53.9994 21.8512 53.9994 20.5739V12.4262C53.9994 11.1489 52.9742 10.1231 51.6976 10.1231H21.0197C20.3427 10.1231 19.7817 9.56189 19.7817 8.88452V24.1156Z" fill="url(#paint8_radial_1538_51492)"/>
<path d="M19.7817 24.1156C19.7817 23.4382 20.3427 22.877 21.0197 22.877H51.6976C52.9742 22.877 53.9994 21.8512 53.9994 20.5739V12.4262C53.9994 11.1489 52.9742 10.1231 51.6976 10.1231H21.0197C20.3427 10.1231 19.7817 9.56189 19.7817 8.88452V24.1156Z" fill="url(#paint9_radial_1538_51492)"/>
<path d="M19.7817 24.1156C19.7817 23.4382 20.3427 22.877 21.0197 22.877H51.6976C52.9742 22.877 53.9994 21.8512 53.9994 20.5739V12.4262C53.9994 11.1489 52.9742 10.1231 51.6976 10.1231H21.0197C20.3427 10.1231 19.7817 9.56189 19.7817 8.88452V24.1156Z" fill="url(#paint10_linear_1538_51492)"/>
<path d="M19.7817 24.1156C19.7817 23.4382 20.3427 22.877 21.0197 22.877H51.6976C52.9742 22.877 53.9994 21.8512 53.9994 20.5739V12.4262C53.9994 11.1489 52.9742 10.1231 51.6976 10.1231H21.0197C20.3427 10.1231 19.7817 9.56189 19.7817 8.88452V24.1156Z" fill="url(#paint11_linear_1538_51492)"/>
<path d="M19.7817 24.1156C19.7817 23.4382 20.3427 22.877 21.0197 22.877H51.6976C52.9742 22.877 53.9994 21.8512 53.9994 20.5739V12.4262C53.9994 11.1489 52.9742 10.1231 51.6976 10.1231H21.0197C20.3427 10.1231 19.7817 9.56189 19.7817 8.88452V24.1156Z" fill="url(#paint12_radial_1538_51492)"/>
<path d="M19.7817 24.1156C19.7817 23.4382 20.3427 22.877 21.0197 22.877H51.6976C52.9742 22.877 53.9994 21.8512 53.9994 20.5739V12.4262C53.9994 11.1489 52.9742 10.1231 51.6976 10.1231H21.0197C20.3427 10.1231 19.7817 9.56189 19.7817 8.88452V24.1156Z" fill="url(#paint13_radial_1538_51492)"/>
<path d="M19.7817 24.1156C19.7817 23.4382 20.3427 22.877 21.0197 22.877H51.6976C52.9742 22.877 53.9994 21.8512 53.9994 20.5739V12.4262C53.9994 11.1489 52.9742 10.1231 51.6976 10.1231H21.0197C20.3427 10.1231 19.7817 9.56189 19.7817 8.88452V24.1156Z" fill="url(#paint14_radial_1538_51492)"/>
<defs>
<radialGradient id="paint0_radial_1538_51492" cx="0" cy="0" r="1" gradientUnits="userSpaceOnUse" gradientTransform="translate(8.37221 26.0083) rotate(-46.9453) scale(3.80735 58.3469)">
<stop offset="0.297" stop-color="#8EBEFA"/>
<stop offset="0.586" stop-color="#3069FE"/>
<stop offset="1" stop-color="#7647CD" stop-opacity="0"/>
</radialGradient>
<radialGradient id="paint1_radial_1538_51492" cx="0" cy="0" r="1" gradientUnits="userSpaceOnUse" gradientTransform="translate(7.88862 7.98454) rotate(48.0275) scale(3.2539 32.2497)">
<stop offset="0.533654" stop-color="#8EBEFA"/>
<stop offset="1" stop-color="#BDCDFB" stop-opacity="0"/>
</radialGradient>
<radialGradient id="paint2_radial_1538_51492" cx="0" cy="0" r="1" gradientUnits="userSpaceOnUse" gradientTransform="translate(20.4018 5.47442) rotate(91.382) scale(8.77202 4.1637)">
<stop offset="0.61" stop-color="#0400FA" stop-opacity="0.2"/>
<stop offset="1" stop-color="#897DC2" stop-opacity="0"/>
</radialGradient>
<radialGradient id="paint3_radial_1538_51492" cx="0" cy="0" r="1" gradientUnits="userSpaceOnUse" gradientTransform="translate(21.0672 1.15089) rotate(91.0454) scale(13.2471 2.7731)">
<stop offset="0.52" stop-color="#D2F1FF"/>
<stop offset="1" stop-color="#6E5DAF" stop-opacity="0"/>
</radialGradient>
<radialGradient id="paint4_radial_1538_51492" cx="0" cy="0" r="1" gradientUnits="userSpaceOnUse" gradientTransform="translate(19.071 10.6147) rotate(56.5024) scale(2.68342 1.43778)">
<stop stop-color="#8EBEFA"/>
<stop offset="1" stop-color="#A297D5" stop-opacity="0"/>
</radialGradient>
<radialGradient id="paint5_radial_1538_51492" cx="0" cy="0" r="1" gradientUnits="userSpaceOnUse" gradientTransform="translate(18.3766 1.66569) rotate(106.382) scale(1.60748 1.07236)">
<stop stop-color="#8EBEFA"/>
<stop offset="1" stop-color="#A096D0" stop-opacity="0"/>
</radialGradient>
<radialGradient id="paint6_radial_1538_51492" cx="0" cy="0" r="1" gradientUnits="userSpaceOnUse" gradientTransform="translate(21.0363 23.4382) rotate(117.595) scale(3.71918 4.0024)">
<stop offset="0.317" stop-color="#9747FF"/>
<stop offset="0.489" stop-color="#9747FF"/>
<stop offset="1" stop-color="#D2F1FF" stop-opacity="0"/>
</radialGradient>
<radialGradient id="paint7_radial_1538_51492" cx="0" cy="0" r="1" gradientUnits="userSpaceOnUse" gradientTransform="translate(19.9782 28.1855) rotate(86.7707) scale(7.51133 1.60875)">
<stop offset="0.370192" stop-color="#8EBEFA"/>
<stop offset="1" stop-color="#005EFF" stop-opacity="0"/>
</radialGradient>
<radialGradient id="paint8_radial_1538_51492" cx="0" cy="0" r="1" gradientUnits="userSpaceOnUse" gradientTransform="translate(8.37134 26.0083) rotate(-46.9459) scale(3.80731 58.3463)">
<stop stop-color="#8EBEFA"/>
<stop offset="0.586" stop-color="#BDCDFB"/>
<stop offset="1" stop-color="#FBBDF9" stop-opacity="0"/>
</radialGradient>
<radialGradient id="paint9_radial_1538_51492" cx="0" cy="0" r="1" gradientUnits="userSpaceOnUse" gradientTransform="translate(7.88777 7.98653) rotate(48.0281) scale(3.25387 32.2493)">
<stop offset="0.195" stop-color="#D2F1FF"/>
<stop offset="1" stop-color="#FBBDF9" stop-opacity="0.01"/>
</radialGradient>
<linearGradient id="paint10_linear_1538_51492" x1="54.6145" y1="17.7832" x2="50.1405" y2="17.7832" gradientUnits="userSpaceOnUse">
<stop offset="0.122" stop-color="#9747FF"/>
<stop offset="0.514" stop-color="#BDCDFB"/>
<stop offset="0.689" stop-color="#9BB5FF"/>
<stop offset="1" stop-color="#FBBDF9" stop-opacity="0"/>
</linearGradient>
<linearGradient id="paint11_linear_1538_51492" x1="38.0511" y1="9.86186" x2="38.0511" y2="13.3687" gradientUnits="userSpaceOnUse">
<stop offset="0.122" stop-color="#8EBEFA"/>
<stop offset="0.5" stop-color="#BDCDFB"/>
<stop offset="0.689" stop-color="#8EBEFA"/>
<stop offset="1" stop-color="#8172C2" stop-opacity="0"/>
</linearGradient>
<radialGradient id="paint12_radial_1538_51492" cx="0" cy="0" r="1" gradientUnits="userSpaceOnUse" gradientTransform="translate(37.9912 23.4092) rotate(-90) scale(3.81963 84.4849)">
<stop offset="0.217" stop-color="#D2F1FF"/>
<stop offset="0.711538" stop-color="#9747FF"/>
<stop offset="1" stop-color="#8745E5" stop-opacity="0"/>
</radialGradient>
<radialGradient id="paint13_radial_1538_51492" cx="0" cy="0" r="1" gradientUnits="userSpaceOnUse" gradientTransform="translate(52.1057 12.161) rotate(143.115) scale(1.81375 1.14731)">
<stop stop-color="#8EBEFA"/>
<stop offset="1" stop-color="#A398D7" stop-opacity="0"/>
</radialGradient>
<radialGradient id="paint14_radial_1538_51492" cx="0" cy="0" r="1" gradientUnits="userSpaceOnUse" gradientTransform="translate(18.95 10.3747) rotate(57.109) scale(3.06104 1.91031)">
<stop offset="0.173" stop-color="#8EBEFA"/>
<stop offset="1" stop-color="#A297D5" stop-opacity="0"/>
</radialGradient>
</defs>
</svg>
