<svg width="20" height="21" viewBox="0 0 20 21" fill="none" xmlns="http://www.w3.org/2000/svg">
<g clip-path="url(#clip0_1425_45561)">
<path d="M0.02125 10.9175C0.2425 16.2369 4.62687 20.5 10 20.5C15.3731 20.5 19.7575 16.2369 19.9788 10.9175C19.9918 10.884 19.999 10.8485 20 10.8125C20 10.79 19.9919 10.7706 19.9875 10.75C19.9894 10.6663 20 10.5844 20 10.5C20 4.98625 15.5138 0.5 10 0.5C4.48625 0.5 0 4.98625 0 10.5C0 10.5844 0.010625 10.6663 0.0125 10.75C0.008125 10.7706 0 10.79 0 10.8125C0 10.85 0.009375 10.8844 0.02125 10.9175ZM15.5756 14.7138C14.7263 14.3615 13.8437 14.0954 12.9412 13.9194C13.04 13.0113 13.0981 12.0681 13.1163 11.1256H16.2288C16.1719 12.4094 15.9437 13.6213 15.5756 14.7138ZM16.8531 11.125H19.3431C19.2325 12.8266 18.6567 14.4651 17.6787 15.8619C17.1929 15.5195 16.6793 15.2184 16.1431 14.9619C16.5462 13.7937 16.7944 12.4975 16.8531 11.125ZM7.74312 14.4287C8.48967 14.3109 9.24422 14.2512 10 14.25C10.765 14.25 11.5206 14.3137 12.2563 14.4287C11.8225 17.7631 10.875 19.875 10 19.875C9.125 19.875 8.1775 17.7631 7.74312 14.4287ZM8.6925 19.665C6.97312 19.1138 5.51875 17.4956 4.64125 15.3C5.4452 14.9643 6.28057 14.7095 7.135 14.5394C7.42188 16.7244 7.94625 18.6281 8.6925 19.665ZM7.67125 7.19312C8.44171 7.3132 9.22024 7.374 10 7.375C10.7798 7.374 11.5583 7.3132 12.3287 7.19312C12.4362 8.20562 12.5 9.31063 12.5 10.5H7.5C7.5 9.31063 7.56375 8.20562 7.67125 7.19312ZM12.4906 11.125C12.4757 12.0209 12.4215 12.9157 12.3281 13.8069C11.5579 13.6868 10.7795 13.626 10 13.625C9.22024 13.626 8.44171 13.6868 7.67125 13.8069C7.57788 12.9157 7.52366 12.0209 7.50875 11.125H12.4906ZM12.8656 14.5394C13.7431 14.7156 14.58 14.9719 15.3594 15.3C14.4819 17.4956 13.0275 19.1138 11.3081 19.665C12.0538 18.6281 12.5781 16.7244 12.8656 14.5394ZM13.125 10.5C13.125 9.3525 13.0612 8.19 12.9412 7.08125C13.8663 6.89875 14.7512 6.63125 15.5756 6.28687C16.0031 7.555 16.25 8.98375 16.25 10.5H13.125ZM12.8656 6.46062C12.5781 4.27562 12.0544 2.37125 11.3075 1.335C13.0269 1.88625 14.4812 3.50437 15.3587 5.7C14.5553 6.03643 13.72 6.29125 12.8656 6.46062ZM12.2569 6.57125C11.5206 6.68625 10.765 6.75 10 6.75C9.235 6.75 8.47937 6.68625 7.74312 6.57125C8.1775 3.23687 9.125 1.125 10 1.125C10.875 1.125 11.8225 3.23687 12.2569 6.57125ZM7.13438 6.46062C6.27994 6.29048 5.44457 6.03568 4.64062 5.7C5.51813 3.50437 6.9725 1.88625 8.69187 1.335C7.94625 2.37188 7.42188 4.27562 7.13438 6.46062ZM7.05875 7.08125C6.9363 8.21672 6.87496 9.35795 6.875 10.5H3.75C3.75 8.98375 3.99688 7.555 4.42438 6.28625C5.24875 6.63125 6.13375 6.89812 7.05875 7.08125ZM6.88375 11.125C6.90188 12.0675 6.96 13.0106 7.05875 13.9194C6.13375 14.1019 5.24875 14.3694 4.42438 14.7138C4.05625 13.6213 3.82812 12.4094 3.77125 11.125H6.88375ZM3.85625 14.9619C3.32032 15.2184 2.80685 15.5195 2.32125 15.8619C1.34325 14.4651 0.767535 12.8266 0.656875 11.125H3.14687C3.20562 12.4975 3.45375 13.7937 3.85625 14.9619ZM2.69563 16.3625C3.13286 16.0542 3.59413 15.7814 4.075 15.5469C4.7025 17.1 5.60563 18.3894 6.69125 19.2612C5.12506 18.6679 3.74569 17.6672 2.69563 16.3625ZM13.3088 19.2606C14.395 18.3894 15.2975 17.0994 15.925 15.5462C16.4187 15.7862 16.8762 16.0625 17.3044 16.3619C16.2547 17.6671 14.8752 18.6679 13.3088 19.2606ZM16.875 10.5C16.875 8.89563 16.6075 7.38312 16.1437 6.03813C16.6938 5.77437 17.205 5.47125 17.6794 5.13812C18.7836 6.70798 19.3758 8.58068 19.375 10.5H16.875ZM17.305 4.6375C16.8769 4.93687 16.4194 5.21313 15.9256 5.45312C15.2981 3.9 14.395 2.61 13.3094 1.73875C14.8754 2.33232 16.2547 3.33299 17.305 4.6375ZM6.69125 1.73937C5.605 2.61063 4.7025 3.90063 4.075 5.45375C3.59411 5.21901 3.13284 4.94605 2.69563 4.6375C3.74555 3.33277 5.12499 2.33224 6.69125 1.73937ZM2.32125 5.13812C2.80685 5.48052 3.32032 5.78157 3.85625 6.03813C3.36796 7.47488 3.12087 8.98255 3.125 10.5H0.625C0.625 8.50625 1.25563 6.65938 2.32125 5.13812Z" fill="#0400FA"/>
</g>
<defs>
<clipPath id="clip0_1425_45561">
<rect width="20" height="20" fill="white" transform="translate(0 0.5)"/>
</clipPath>
</defs>
</svg>
