<svg width="30" height="30" viewBox="0 0 30 30" fill="none" xmlns="http://www.w3.org/2000/svg">
<path d="M15 30C23.2844 30 30 23.2844 30 15C30 6.71562 23.2844 0 15 0C6.71562 0 0 6.71562 0 15C0 23.2844 6.71562 30 15 30Z" fill="#DEEEFF"/>
<path d="M19.3639 6.27246H16.0908V23.7268H22.6364V6.27246H19.3639ZM13.8602 21.5456C13.7398 22.1602 13.4095 22.7139 12.9259 23.1119C12.4422 23.5098 11.8352 23.7272 11.2089 23.7268H11.1545C10.5283 23.7271 9.92149 23.5096 9.43795 23.1117C8.95441 22.7138 8.62422 22.1601 8.50391 21.5456H13.8602Z" fill="#0400FA"/>
<path d="M13.9096 20.4543V21.0268C13.9096 21.2039 13.8931 21.3768 13.8602 21.5455H8.50397C8.47075 21.3746 8.45421 21.2009 8.4546 21.0268V20.4543H13.9096Z" fill="#8EBEFA"/>
<path d="M12.5458 10.9087C12.1842 10.9085 11.8374 10.7648 11.5817 10.5091C11.326 10.2533 11.1823 9.90656 11.1821 9.54492C11.1714 9.89946 11.023 10.2359 10.7684 10.4829C10.5138 10.7299 10.173 10.868 9.81834 10.868C9.46363 10.868 9.12287 10.7299 8.86829 10.4829C8.61371 10.2359 8.46532 9.89946 8.45459 9.54492V20.4543H13.9096V9.54555C13.9093 9.90708 13.7655 10.2537 13.5098 10.5093C13.2541 10.7649 12.9074 10.9085 12.5458 10.9087Z" fill="#0400FA"/>
<path d="M9.81896 10.9087C10.1805 10.9083 10.5271 10.7645 10.7827 10.5088C11.0383 10.2531 11.1819 9.90646 11.1821 9.54493C11.1928 9.89947 11.3412 10.2359 11.5958 10.4829C11.8504 10.7299 12.1911 10.868 12.5458 10.868C12.9005 10.868 13.2413 10.7299 13.4959 10.4829C13.7505 10.2359 13.8989 9.89947 13.9096 9.54493L12.4033 7.73743C12.0616 8.02522 11.6289 8.18246 11.1821 8.18118C10.7351 8.18261 10.3021 8.02536 9.96021 7.73743L8.45459 9.54493C8.45459 10.2981 9.06584 10.9087 9.81834 10.9087" fill="#8EBEFA"/>
<path d="M12.4031 7.73746C12.0612 8.02539 11.6282 8.18264 11.1812 8.18121C10.7344 8.18249 10.3017 8.02525 9.95996 7.73746L11.1812 6.27246L12.4031 7.73746Z" fill="#0400FA"/>
<path d="M17.1814 22.0905H16.0908V22.6355H17.1814V22.0905ZM17.1814 20.4543H16.0908V20.9993H17.1814V20.4543ZM17.7271 18.818H16.0908V19.363H17.7271V18.818ZM17.1814 17.1812H16.0908V17.7268H17.1814V17.1812ZM17.1814 15.5455H16.0908V16.0905H17.1814V15.5455ZM17.7271 13.908H16.0908V14.4537H17.7271V13.908ZM17.1814 12.2724H16.0908V12.8174H17.1814V12.2724ZM17.1814 10.6362H16.0908V11.1812H17.1814V10.6362ZM17.7271 8.99991H16.0908V9.54491H17.7271V8.99991ZM17.1814 7.36304H16.0908V7.90866H17.1814V7.36304Z" fill="#8EBEFA"/>
</svg>
