<svg width="75" height="75" viewBox="0 0 75 75" fill="none" xmlns="http://www.w3.org/2000/svg">
<circle cx="37.5" cy="37.5" r="37.5" fill="white"/>
<path d="M34.5 56C34.5 57.3807 35.6193 58.5 37 58.5C38.3807 58.5 39.5 57.3807 39.5 56L37 56L34.5 56ZM38.7678 16.2322C37.7915 15.2559 36.2085 15.2559 35.2322 16.2322L19.3223 32.1421C18.346 33.1184 18.346 34.7014 19.3223 35.6777C20.2986 36.654 21.8816 36.654 22.8579 35.6777L37 21.5355L51.1421 35.6777C52.1184 36.654 53.7014 36.654 54.6777 35.6777C55.654 34.7014 55.654 33.1184 54.6777 32.1421L38.7678 16.2322ZM37 56L39.5 56L39.5 18L37 18L34.5 18L34.5 56L37 56Z" fill="#0400FA"/>
</svg>
