<svg width="126" height="125" viewBox="0 0 126 125" fill="none" xmlns="http://www.w3.org/2000/svg">
<path d="M118.855 116.25H7.16171C6.21157 116.248 5.27853 115.997 4.45554 115.522C3.63254 115.048 2.94834 114.365 2.47109 113.544C1.9905 112.725 1.73688 111.792 1.73633 110.843C1.73578 109.893 1.98832 108.96 2.46796 108.141L58.3336 11.447C58.8069 10.6269 59.4874 9.94567 60.3071 9.47162C61.1267 8.99757 62.0566 8.74736 63.0034 8.7461C63.9503 8.74483 64.8808 8.99255 65.7017 9.46441C66.5226 9.93627 67.205 10.6157 67.6805 11.4345L123.409 107.9C123.936 108.718 124.233 109.663 124.269 110.636C124.305 111.608 124.077 112.573 123.612 113.427C123.146 114.282 122.458 114.995 121.621 115.492C120.784 115.988 119.829 116.25 118.855 116.25ZM62.9037 15.9315C62.5068 15.9362 62.1177 16.043 61.774 16.2417C61.4303 16.4404 61.1435 16.7242 60.9412 17.0659L7.85554 109.091C7.64702 109.433 7.53646 109.826 7.53591 110.227C7.53536 110.627 7.64484 111.02 7.85241 111.363C8.05474 111.712 8.34494 112.002 8.69416 112.205C9.04338 112.407 9.43946 112.514 9.84303 112.516H115.696C116.299 112.51 116.876 112.268 117.304 111.841C117.731 111.415 117.975 110.839 117.983 110.235C117.974 109.757 117.829 109.292 117.564 108.894L64.8819 17.0659C64.6783 16.722 64.389 16.4367 64.0424 16.2379C63.6957 16.0391 63.3034 15.9335 62.9037 15.9315Z" fill="#0400FA"/>
<path d="M62.7936 91.5744C61.9128 91.5744 61.0681 91.4112 60.4453 91.1207C59.8226 90.8302 59.4727 90.4362 59.4727 90.0253L58.5 35.549C58.5 35.1382 58.8499 34.7442 59.4727 34.4537C60.0955 34.1632 61.9128 34 62.7936 34C63.6743 34 64.9045 34.1632 65.5273 34.4537C66.1501 34.7442 66.5 35.1382 66.5 35.549L66.1145 90.0253C66.1145 90.4362 65.7646 90.8302 65.1418 91.1207C64.519 91.4112 63.6743 91.5744 62.7936 91.5744ZM62.767 103C61.8862 103 61.0416 102.837 60.4188 102.546C59.796 102.256 59.4461 101.862 59.4461 101.451V97.25C59.4461 96.8392 59.796 96.4452 60.4188 96.1547C61.0416 95.8642 61.8862 95.701 62.767 95.701C63.6478 95.701 64.4925 95.8642 65.1153 96.1547C65.738 96.4452 66.0879 96.8392 66.0879 97.25V101.448C66.0888 101.652 66.0036 101.853 65.8371 102.042C65.6706 102.23 65.4261 102.401 65.1176 102.545C64.8091 102.689 64.4428 102.804 64.0394 102.882C63.6361 102.96 63.2037 103 62.767 103Z" fill="#0400FA"/>
</svg>
