<svg width="55" height="55" viewBox="0 0 55 55" fill="none" xmlns="http://www.w3.org/2000/svg">
<path d="M50.4173 22.9167V38.9584C50.4173 40.7817 49.693 42.5304 48.4037 43.8197C47.1144 45.109 45.3657 45.8334 43.5423 45.8334H11.459C9.63562 45.8334 7.88694 45.109 6.59763 43.8197C5.30831 42.5304 4.58398 40.7817 4.58398 38.9584V22.9167H50.4173ZM41.2506 32.0834H34.3756C33.7679 32.0834 33.185 32.3248 32.7552 32.7546C32.3254 33.1843 32.084 33.7672 32.084 34.375C32.084 34.9828 32.3254 35.5657 32.7552 35.9955C33.185 36.4252 33.7679 36.6667 34.3756 36.6667H41.2506C41.8584 36.6667 42.4413 36.4252 42.8711 35.9955C43.3009 35.5657 43.5423 34.9828 43.5423 34.375C43.5423 33.7672 43.3009 33.1843 42.8711 32.7546C42.4413 32.3248 41.8584 32.0834 41.2506 32.0834ZM43.5423 9.16669C45.3657 9.16669 47.1144 9.89102 48.4037 11.1803C49.693 12.4696 50.4173 14.2183 50.4173 16.0417V18.3334H4.58398V16.0417C4.58398 14.2183 5.30831 12.4696 6.59763 11.1803C7.88694 9.89102 9.63562 9.16669 11.459 9.16669H43.5423Z" fill="#0400FA"/>
</svg>
