<svg width="55" height="55" viewBox="0 0 55 55" fill="none" xmlns="http://www.w3.org/2000/svg">
<g clip-path="url(#clip0_1704_14852)">
<path fill-rule="evenodd" clip-rule="evenodd" d="M10.6382 13.7775C7.024 15.9894 4.11682 19.1876 2.25868 22.9957C0.400548 26.8038 -0.331226 31.0635 0.149469 35.2734C0.630165 39.4833 2.30333 43.4684 4.97208 46.7596C7.64083 50.0508 11.1941 52.5113 15.2139 53.8516C19.2336 55.1918 23.5525 55.356 27.6624 54.3249C31.7723 53.2937 35.5022 51.1102 38.4132 48.0311C41.3241 44.952 43.295 41.1055 44.094 36.9442C44.893 32.7829 44.4868 28.48 42.9232 24.5418L42.051 24.255C41.7553 25.6492 41.0083 26.9071 39.9257 27.834C39.0839 28.5509 38.0728 29.0406 36.9884 29.2565C35.904 29.4724 34.7824 29.4074 33.7303 29.0675H33.7224L28.7803 27.4765C27.7654 27.1528 26.8467 26.5825 26.1062 25.8167C25.3658 25.0509 24.8268 24.1134 24.5374 23.0882L23.2057 18.5193L13.726 15.4668C12.5822 15.1445 11.5264 14.5669 10.6382 13.7775Z" fill="#8EBEFA"/>
<path fill-rule="evenodd" clip-rule="evenodd" d="M10.6391 13.7775C6.58532 16.2542 3.4313 19.9641 1.63915 24.3635C-0.153007 28.7629 -0.489088 33.6207 0.680149 38.225H13.2319C14.6483 38.224 16.0062 37.6606 17.0074 36.6588C18.0085 35.6569 18.5709 34.2985 18.5709 32.8822V28.4822C18.5477 27.7665 18.6686 27.0534 18.9265 26.3853C19.1844 25.7173 19.5739 25.1079 20.0719 24.5934C20.57 24.0788 21.1664 23.6697 21.8257 23.3902C22.485 23.1107 23.1937 22.9666 23.9098 22.9665C24.1062 22.9665 24.3013 22.956 24.4951 22.935L23.2066 18.5232L13.7269 15.4707C12.5831 15.1484 11.5274 14.5669 10.6391 13.7775ZM43.3641 39.7611L39.6437 37.0347C38.1367 36.2592 36.4709 35.8424 34.7762 35.8168H28.3451C27.0309 35.9411 25.8102 36.5511 24.9218 37.5276C24.0334 38.504 23.541 39.7767 23.541 41.0968C23.541 42.4169 24.0334 43.6896 24.9218 44.666C25.8102 45.6425 27.0309 46.2525 28.3451 46.3768C28.8388 46.3721 29.3285 46.4652 29.786 46.6505C30.2436 46.8358 30.66 47.1098 31.0112 47.4567C31.3625 47.8035 31.6417 48.2164 31.8327 48.6716C32.0238 49.1268 32.1229 49.6153 32.1244 50.109V52.69C34.7561 51.3817 37.1035 49.5664 39.0316 47.3483C40.9598 45.1303 42.4308 42.5532 43.3601 39.765L43.3641 39.7611Z" fill="#0400FA"/>
<path d="M54.1047 5.99894L49.8932 4.56894C49.5975 4.46801 49.2767 4.46676 48.9802 4.56537C48.6836 4.66399 48.4275 4.85705 48.2511 5.11501L45.179 9.86858L28.3372 1.45358C27.0066 0.669315 25.5191 0.188798 23.9812 0.0464081C22.4433 -0.0959815 20.8929 0.103276 19.4409 0.629925C17.989 1.15657 16.6714 1.9976 15.5824 3.09284C14.4933 4.18807 13.6598 5.51045 13.1415 6.96537C12.9991 7.34292 12.938 7.74627 12.9622 8.14904C12.9864 8.55182 13.0953 8.94496 13.2818 9.30277C13.4683 9.66058 13.7282 9.97501 14.0445 10.2255C14.3609 10.476 14.7265 10.6569 15.1175 10.7564L26.1057 14.2922L27.2018 14.6732L29.2643 21.7447C29.3318 21.9902 29.4595 22.2151 29.6358 22.399C29.8121 22.5828 30.0314 22.7198 30.274 22.7975L35.2436 24.3964C35.4973 24.4783 35.7678 24.4938 36.0292 24.4413C36.2906 24.3889 36.5342 24.2703 36.7367 24.097C36.9393 23.9236 37.094 23.7012 37.1861 23.451C37.2782 23.2008 37.3046 22.9312 37.2629 22.6679L36.1707 17.4075H36.8857L47.6186 20.9039C48.3226 21.1443 49.0929 21.0977 49.7628 20.7742C50.4327 20.4506 50.9481 19.8762 51.1975 19.1754L54.9886 7.51537C55.0307 7.20032 54.9667 6.8802 54.8067 6.60558C54.6466 6.33097 54.3996 6.11751 54.1047 5.99894Z" fill="#0400FA"/>
</g>
<defs>
<clipPath id="clip0_1704_14852">
<rect width="55" height="55" fill="white"/>
</clipPath>
</defs>
</svg>
