<svg width="55" height="55" viewBox="0 0 55 55" fill="none" xmlns="http://www.w3.org/2000/svg">
<path d="M18.9064 27.5C21.115 27.5 23.2505 26.5139 24.922 24.7242C26.5473 22.9786 27.5399 20.6508 27.715 18.1715C27.9019 15.5268 27.0951 13.0947 25.4441 11.3223C23.793 9.5498 21.4845 8.59375 18.9064 8.59375C16.3465 8.59375 14.0316 9.56699 12.3859 11.3352C10.724 13.1205 9.91516 15.5482 10.1021 18.1704C10.2815 20.6529 11.273 22.9797 12.895 24.7231C14.5622 26.5139 16.6967 27.5 18.9064 27.5ZM4.74495 46.4062H33.0667C33.5221 46.4087 33.9719 46.3066 34.3816 46.1079C34.7913 45.9092 35.15 45.6191 35.43 45.2601C35.727 44.8708 35.9321 44.4194 36.03 43.9396C36.1278 43.4598 36.1159 42.9641 35.995 42.4897C35.0906 38.8577 32.8497 35.8456 29.5154 33.7799C26.5559 31.9473 22.7886 30.9375 18.9064 30.9375C14.9479 30.9375 11.2794 31.9043 8.30276 33.7358C4.96087 35.7908 2.71683 38.8201 1.81663 42.4961C1.69724 42.9709 1.68663 43.4666 1.78558 43.9461C1.88454 44.4257 2.0905 44.8766 2.38811 45.2654C2.66784 45.6228 3.02567 45.9115 3.4342 46.1092C3.84272 46.307 4.29109 46.4086 4.74495 46.4062ZM39.2091 27.9297C42.9893 27.9297 46.3129 24.4148 46.6212 20.0954C46.7738 17.8825 46.0841 15.8361 44.6876 14.3354C43.3062 12.8498 41.3575 12.0312 39.2091 12.0312C37.0607 12.0312 35.1271 12.8541 33.7381 14.3483C32.3309 15.8608 31.6434 17.9029 31.8045 20.0976C32.1128 24.4159 35.4354 27.9297 39.2091 27.9297ZM32.1558 31.3081C34.0453 30.3843 36.4978 29.9224 39.208 29.9224C42.3727 29.9224 45.446 30.7474 47.863 32.2448C50.6033 33.9453 52.4467 36.4214 53.1911 39.4109C53.3001 39.8409 53.3104 40.29 53.2213 40.7246C53.1322 41.1591 52.946 41.5679 52.6766 41.9203C52.421 42.2484 52.0935 42.5136 51.7194 42.6954C51.3453 42.8771 50.9344 42.9706 50.5185 42.9688H38.5947C38.3934 42.9687 38.1985 42.8981 38.044 42.7691C37.8895 42.6401 37.7852 42.461 37.7492 42.263C37.7374 42.1953 37.7224 42.1276 37.7052 42.061C36.7943 38.4022 34.6598 35.3106 31.5059 33.0569C31.3899 32.9733 31.2966 32.8621 31.2344 32.7333C31.1723 32.6045 31.1433 32.4622 31.15 32.3194C31.1567 32.1766 31.199 32.0377 31.2729 31.9153C31.3469 31.7929 31.4502 31.6909 31.5736 31.6186C31.7422 31.5197 31.9356 31.4155 32.1558 31.3081Z" fill="#8EBEFA"/>
<path d="M18.9066 27.5C21.1152 27.5 23.2507 26.5139 24.9222 24.7242C26.5475 22.9786 27.5401 20.6508 27.7152 18.1715C27.9021 15.5268 27.0954 13.0947 25.4443 11.3223C23.7932 9.5498 21.4847 8.59375 18.9066 8.59375C16.3467 8.59375 14.0318 9.56699 12.3861 11.3352C10.7243 13.1205 9.91539 15.5482 10.1023 18.1704C10.2817 20.6529 11.2732 22.9797 12.8953 24.7231C14.5625 26.5139 16.6969 27.5 18.9066 27.5ZM4.74518 46.4062H33.067C33.5223 46.4087 33.9721 46.3066 34.3819 46.1079C34.7916 45.9092 35.1502 45.6191 35.4302 45.2601C35.7273 44.8708 35.9324 44.4194 36.0302 43.9396C36.1281 43.4598 36.1161 42.9641 35.9953 42.4897C35.0908 38.8577 32.85 35.8456 29.5156 33.7799C26.5561 31.9473 22.7888 30.9375 18.9066 30.9375C14.9481 30.9375 11.2796 31.9043 8.30299 33.7358C4.9611 35.7908 2.71706 38.8201 1.81686 42.4961C1.69747 42.9709 1.68686 43.4666 1.78581 43.9461C1.88477 44.4257 2.09073 44.8766 2.38834 45.2654C2.66807 45.6228 3.0259 45.9115 3.43443 46.1092C3.84295 46.307 4.29132 46.4086 4.74518 46.4062Z" fill="#0400FA"/>
</svg>
