<svg width="55" height="55" viewBox="0 0 55 55" fill="none" xmlns="http://www.w3.org/2000/svg">
<g clip-path="url(#clip0_1704_14838)">
<path d="M13.9707 38.8994C14.5788 38.8973 15.1632 39.137 15.5947 39.5654C16.0262 39.9939 16.2703 40.5765 16.2725 41.1846C16.2746 41.7927 16.0349 42.3771 15.6064 42.8086L11.458 47.002C11.3604 47.058 11.2836 47.1441 11.2383 47.2471C11.1929 47.3502 11.1813 47.4653 11.2061 47.5752C11.3713 48.1252 11.4561 48.6962 11.458 49.2705C11.458 50.0227 11.3103 50.7679 11.0225 51.4629C10.7345 52.158 10.3123 52.7903 9.78027 53.3223C9.2484 53.8541 8.61676 54.2756 7.92188 54.5635C7.22688 54.8514 6.48175 55 5.72949 55C4.21002 55 2.75216 54.3967 1.67773 53.3223C0.603309 52.2478 0 50.79 0 49.2705C8.68709e-05 47.7512 0.603486 46.2941 1.67773 45.2197C2.75216 44.1453 4.21002 43.542 5.72949 43.542C6.39065 43.5325 7.04865 43.6332 7.67676 43.8398C7.77503 43.8766 7.88236 43.8828 7.98438 43.8584C8.08643 43.8339 8.17906 43.7795 8.25 43.7021L12.3525 39.5771C12.7809 39.1458 13.3628 38.9017 13.9707 38.8994ZM41.1436 38.8994C41.7517 38.9016 42.3342 39.1456 42.7627 39.5771L46.8643 43.7021C46.9352 43.7795 47.0279 43.8339 47.1299 43.8584C47.2319 43.8829 47.3392 43.8765 47.4375 43.8398C48.0292 43.6453 48.6477 43.5449 49.2705 43.542C50.4036 43.542 51.5119 43.8773 52.4541 44.5068C53.3961 45.1363 54.1298 46.0314 54.5635 47.0781C54.9971 48.125 55.1107 49.2773 54.8896 50.3887C54.6686 51.5 54.1235 52.5211 53.3223 53.3223C52.5211 54.1235 51.5 54.6686 50.3887 54.8896C49.2773 55.1107 48.125 54.9971 47.0781 54.5635C46.0314 54.1298 45.1363 53.3961 44.5068 52.4541C43.8773 51.5119 43.542 50.4036 43.542 49.2705C43.5439 48.6962 43.6287 48.1252 43.7939 47.5752C43.8296 47.473 43.8359 47.3623 43.8115 47.2568C43.7872 47.1516 43.733 47.0556 43.6562 46.9795L39.5088 42.8086C39.0803 42.3771 38.8406 41.7927 38.8428 41.1846C38.8449 40.5765 39.088 39.9939 39.5195 39.5654C39.9511 39.1369 40.5354 38.8973 41.1436 38.8994ZM27.5 25.5039C30.0343 25.5039 32.5014 26.3202 34.5361 27.8311C36.5708 29.3419 38.065 31.4676 38.7979 33.8936C38.9164 34.2855 38.9411 34.7003 38.8701 35.1035C38.7991 35.5066 38.6339 35.8871 38.3887 36.2148C38.1434 36.5426 37.8247 36.8083 37.458 36.9902C37.0912 37.1721 36.6867 37.2658 36.2773 37.2627H18.7227C18.3133 37.2658 17.9088 37.1721 17.542 36.9902C17.1753 36.8083 16.8566 36.5426 16.6113 36.2148C16.3661 35.8871 16.2009 35.5066 16.1299 35.1035C16.0589 34.7003 16.0836 34.2855 16.2021 33.8936C16.935 31.4676 18.4292 29.3419 20.4639 27.8311C22.4986 26.3202 24.9657 25.5039 27.5 25.5039ZM5.75195 20.625C6.82225 20.6137 7.87479 20.8991 8.79297 21.4492C9.71101 21.9992 10.4592 22.7923 10.9541 23.7412C10.9983 23.8376 11.0697 23.9196 11.1592 23.9766C11.2485 24.0333 11.3522 24.0632 11.458 24.0625H13.75C14.3576 24.0625 14.9404 24.3038 15.3701 24.7334C15.7999 25.1632 16.042 25.7467 16.042 26.3545C16.0419 26.9622 15.7998 27.5449 15.3701 27.9746C14.9404 28.4043 14.3577 28.6455 13.75 28.6455H11.458C11.3373 28.625 11.2133 28.6461 11.1055 28.7041C10.9975 28.7622 10.9117 28.8546 10.8623 28.9668C10.3984 29.8721 9.70147 30.6376 8.84375 31.1846C7.98603 31.7315 6.99797 32.0404 5.98145 32.0791C4.96495 32.1178 3.95638 31.8854 3.05957 31.4053C2.16265 30.9251 1.40939 30.2142 0.87793 29.3467C0.346652 28.4793 0.0565269 27.4857 0.0361328 26.4688C0.0157838 25.4517 0.266481 24.4476 0.762695 23.5596C1.25893 22.6715 1.98251 21.9317 2.85938 21.416C3.73628 20.9003 4.73464 20.6271 5.75195 20.625ZM49.248 20.625C50.2611 20.6434 51.2511 20.9303 52.1172 21.4561C52.9834 21.982 53.695 22.7286 54.1787 23.6191C54.6623 24.5096 54.9015 25.5125 54.8711 26.5254C54.8406 27.5382 54.542 28.525 54.0059 29.3848C53.4696 30.2446 52.7146 30.9469 51.8184 31.4199C50.9222 31.8929 49.9167 32.1196 48.9043 32.0771C47.8918 32.0346 46.9081 31.7242 46.0547 31.1777C45.2014 30.6313 44.5081 29.8685 44.0459 28.9668C44.0042 28.8686 43.9338 28.7848 43.8438 28.7275C43.7538 28.6703 43.6485 28.6417 43.542 28.6455H41.25C40.6423 28.6455 40.0596 28.4043 39.6299 27.9746C39.2002 27.5449 38.9581 26.9622 38.958 26.3545C38.958 25.7467 39.2001 25.1632 39.6299 24.7334C40.0596 24.3038 40.6424 24.0625 41.25 24.0625H43.6338C43.7403 24.0662 43.8457 24.0377 43.9355 23.9805C44.0255 23.9232 44.096 23.8394 44.1377 23.7412C44.6255 22.8062 45.3594 22.0218 46.2598 21.4727C47.1602 20.9236 48.1934 20.6305 49.248 20.625ZM27.5 9.7627C28.7963 9.7627 30.0638 10.147 31.1416 10.8672C32.2193 11.5874 33.0596 12.6111 33.5557 13.8086C34.0517 15.0062 34.1816 16.3244 33.9287 17.5957C33.6758 18.8669 33.0512 20.0346 32.1348 20.9512C31.2181 21.8678 30.0497 22.4922 28.7783 22.7451C27.5072 22.9979 26.1896 22.868 24.9922 22.3721C23.7946 21.876 22.771 21.0357 22.0508 19.958C21.3306 18.8802 20.9463 17.6127 20.9463 16.3164C20.9464 14.5784 21.6364 12.9117 22.8652 11.6826C24.0944 10.4535 25.7617 9.7627 27.5 9.7627ZM4.60254 0.112305C5.71438 -0.110594 6.86791 0.00077425 7.91602 0.433594C8.96422 0.866539 9.86066 1.6013 10.4912 2.54395C11.1217 3.48657 11.458 4.59543 11.458 5.72949C11.4625 6.35107 11.3703 6.9696 11.1836 7.5625C11.1469 7.66083 11.1405 7.76805 11.165 7.87012C11.1896 7.97209 11.244 8.06485 11.3213 8.13574L16.5225 13.3145C16.9523 13.7408 17.1969 14.3204 17.2012 14.9258C17.2054 15.5311 16.9696 16.1136 16.5459 16.5459C16.3337 16.7624 16.0801 16.9347 15.8008 17.0527C15.5217 17.1706 15.2219 17.2321 14.9189 17.2334C14.6174 17.2351 14.3182 17.1775 14.0391 17.0635C13.7599 16.9494 13.5061 16.7808 13.292 16.5684L8.04395 11.458C7.98166 11.361 7.89129 11.2852 7.78516 11.2402C7.67894 11.1953 7.56129 11.1832 7.44824 11.2061C6.89807 11.3714 6.32643 11.4562 5.75195 11.458C4.61791 11.4625 3.50763 11.1306 2.5625 10.5039C1.61748 9.87715 0.879478 8.98385 0.442383 7.9375C0.00534248 6.8912 -0.110936 5.73866 0.107422 4.62598C0.325874 3.5132 0.869691 2.49003 1.66992 1.68652C2.47011 0.883122 3.49078 0.335299 4.60254 0.112305ZM49.248 0.114258C50.7675 0.114292 52.2244 0.718572 53.2988 1.79297C54.3732 2.86739 54.9775 4.32431 54.9775 5.84375C54.9775 7.36319 54.3732 8.82011 53.2988 9.89453C52.2244 10.9689 50.7675 11.5732 49.248 11.5732C48.6736 11.5714 48.1019 11.4866 47.5518 11.3213C47.4535 11.2846 47.3462 11.2773 47.2441 11.3018C47.1424 11.3263 47.0503 11.3809 46.9795 11.458L41.708 16.5684C41.4939 16.7808 41.2401 16.9494 40.9609 17.0635C40.6818 17.1775 40.3826 17.2351 40.0811 17.2334C39.6279 17.2315 39.1853 17.0951 38.8096 16.8418C38.4338 16.5884 38.1414 16.229 37.9697 15.8096C37.7982 15.3902 37.7545 14.9293 37.8447 14.4854C37.935 14.0412 38.1557 13.6336 38.4775 13.3145L43.7021 8.13574C43.7795 8.06482 43.8339 7.97213 43.8584 7.87012C43.8829 7.76808 43.8766 7.66081 43.8398 7.5625C43.6453 6.97082 43.5449 6.35231 43.542 5.72949C43.542 4.21401 44.1425 2.76029 45.2119 1.68652C46.2814 0.612753 47.7326 0.00606203 49.248 0V0.114258Z" fill="#8EBEFA"/>
<path d="M20.9455 16.3167C20.9455 17.613 21.3299 18.8802 22.05 19.958C22.7702 21.0358 23.7938 21.8759 24.9915 22.3719C26.1891 22.868 27.5069 22.9978 28.7783 22.7449C30.0497 22.492 31.2175 21.8678 32.1341 20.9512C33.0507 20.0346 33.675 18.8667 33.9279 17.5953C34.1808 16.3239 34.051 15.0061 33.5549 13.8085C33.0588 12.6109 32.2188 11.5873 31.1409 10.8671C30.0631 10.1469 28.7959 9.76251 27.4996 9.76251C25.7614 9.76251 24.0943 10.453 22.8651 11.6822C21.636 12.9113 20.9455 14.5784 20.9455 16.3167ZM18.7226 37.2625H36.2767C36.6862 37.2657 37.0907 37.1726 37.4575 36.9907C37.8244 36.8087 38.1433 36.5432 38.3886 36.2153C38.634 35.8875 38.7988 35.5065 38.8698 35.1033C38.9409 34.7 38.9161 34.2857 38.7976 33.8938C38.0647 31.4677 36.5704 29.3419 34.5357 27.831C32.501 26.3201 30.034 25.5043 27.4996 25.5043C24.9653 25.5043 22.4983 26.3201 20.4636 27.831C18.4289 29.3419 16.9345 31.4677 16.2017 33.8938C16.0832 34.2857 16.0584 34.7 16.1295 35.1033C16.2005 35.5065 16.3653 35.8875 16.6106 36.2153C16.856 36.5432 17.1749 36.8087 17.5418 36.9907C17.9086 37.1726 18.3131 37.2657 18.7226 37.2625Z" fill="#0400FA"/>
</g>
<defs>
<clipPath id="clip0_1704_14838">
<rect width="55" height="55" fill="white"/>
</clipPath>
</defs>
</svg>
