<svg width="532" height="116" viewBox="0 0 532 116" fill="none" xmlns="http://www.w3.org/2000/svg">
<path d="M212.602 27.0148H186.181C185.755 23.7842 184.706 20.8086 183.046 18.0881C181.387 15.3676 179.146 13.0297 176.353 11.0743C173.544 9.11897 170.24 7.58869 166.468 6.48349C162.681 5.37829 158.497 4.82568 153.888 4.82568C148.868 4.82568 144.358 5.4633 140.359 6.73854C136.359 8.01377 132.956 9.78493 130.148 12.0237C127.34 14.2766 125.17 16.9829 123.638 20.1143C122.107 23.2599 121.341 26.6605 121.341 30.3162V34.9071C121.341 38.6478 122.107 42.0767 123.638 45.1798C125.17 48.2829 127.34 50.9608 130.148 53.2138C132.956 55.4667 136.359 57.2237 140.359 58.5131C144.358 59.7883 148.868 60.4259 153.888 60.4259C158.909 60.4259 163.419 59.7883 167.418 58.5131C171.417 57.2378 174.821 55.4809 177.629 53.2138C180.437 50.9608 182.607 48.2829 184.138 45.1798C185.67 42.0767 186.436 38.6619 186.436 34.9071V33.6318H212.602V60.1567H220.26V6.10092H212.602V27.0148ZM178.778 34.9212C178.778 37.7267 178.182 40.3056 176.991 42.6435C175.799 44.9814 174.112 46.9793 171.942 48.6371C169.772 50.2949 167.148 51.5701 164.099 52.4628C161.036 53.3555 157.632 53.8089 153.888 53.8089C150.144 53.8089 146.741 53.3696 143.677 52.4628C140.614 51.5701 138.005 50.2949 135.821 48.6371C133.637 46.9793 131.977 44.9814 130.786 42.6435C129.595 40.3056 128.999 37.7409 128.999 34.9212V30.3304C128.999 27.5249 129.595 24.9602 130.786 22.6223C131.977 20.2844 133.651 18.2865 135.821 16.6287C137.99 14.9709 140.614 13.6957 143.677 12.803C146.741 11.9103 150.144 11.4711 153.888 11.4711C157.632 11.4711 161.036 11.9103 164.099 12.803C167.163 13.6957 169.772 14.9709 171.942 16.6287C174.112 18.2865 175.785 20.2844 176.991 22.6223C178.182 24.9602 178.778 27.5249 178.778 30.3304V34.9212Z" fill="#010202" stroke="#0B0B0B" stroke-width="2" stroke-miterlimit="10"/>
<path d="M153.888 18.981C153.633 23.9969 152.527 27.44 150.57 29.3104C148.613 31.1807 145.549 32.2009 141.38 32.3709C145.549 32.541 148.613 33.5611 150.57 35.4315C152.527 37.3018 153.633 40.745 153.888 45.7609C154.144 40.745 155.221 37.3018 157.136 35.4315C159.051 33.5611 162.128 32.541 166.383 32.3709C162.128 32.2009 159.051 31.1807 157.136 29.3104C155.221 27.44 154.144 23.9969 153.888 18.981Z" fill="#010202"/>
<path d="M212.601 81.8497H136.657V66.5469H128.999C128.999 66.5469 128.999 99.9998 128.999 104.5C128.999 109.261 134.239 114.613 139 114.613C150.343 114.613 220.26 113.986 220.26 113.986V66.5469H212.601V81.8497ZM212.601 107.354C212.601 107.354 151.5 107.354 141.5 107.354C138.822 107.354 136.657 105 136.657 101.5C136.657 97.9998 136.657 88.4809 136.657 88.4809H212.601V107.354Z" fill="#010202" stroke="#0B0B0B" stroke-width="2" stroke-miterlimit="10"/>
<path d="M309.606 10.5643H277.696V1H270.038V10.5643H238.129V17.1955H309.606V10.5643Z" fill="#010202" stroke="#0B0B0B" stroke-width="2" stroke-miterlimit="10"/>
<path d="M285.355 61.0634C292.163 61.0634 297.58 59.7598 301.622 57.1669C305.664 54.5739 307.692 50.4506 307.692 44.8112C307.692 39.1719 305.664 35.0486 301.622 32.4556C297.58 29.8627 292.163 28.5591 285.355 28.5591H262.38C255.573 28.5591 250.141 29.8627 246.114 32.4556C242.072 35.0486 240.044 39.1719 240.044 44.8112C240.044 50.4506 242.058 54.5739 246.114 57.1669C250.156 59.7598 255.573 61.0634 262.38 61.0634H285.355ZM247.702 44.8112C247.702 41.2973 248.865 38.6618 251.205 36.9048C253.545 35.1478 257.275 34.2693 262.38 34.2693H285.355C290.461 34.2693 294.176 35.1478 296.531 36.9048C298.871 38.6618 300.033 41.2973 300.033 44.8112C300.033 48.3252 298.856 50.9607 296.531 52.7177C294.191 54.4747 290.461 55.3532 285.355 55.3532H262.38C257.275 55.3532 253.545 54.4747 251.205 52.7177C248.865 50.9607 247.702 48.3252 247.702 44.8112Z" fill="#010202" stroke="#0B0B0B" stroke-width="2" stroke-miterlimit="10"/>
<path d="M333.857 6.10107H326.199V64.3793H333.857V38.6196H350.45V31.9883H333.857V6.10107Z" fill="#010202" stroke="#0B0B0B" stroke-width="2" stroke-miterlimit="10"/>
<path d="M255.36 103.231V95.1124H333.857V79.1047C333.857 74.6802 330.624 70.7554 326.199 70.7554C324.5 70.7554 247.702 70.7554 247.702 70.7554V77.3866C247.702 77.3866 320 77.3866 322 77.3866C324.717 77.3866 326.199 79.3337 326.199 81.5C326.199 83.6664 326.199 88.4811 326.199 88.4811H247.702C247.702 88.4811 247.702 101 247.702 105.5C247.702 109.509 251.991 113.972 256 113.972C257.86 113.972 335.12 113.972 335.12 113.972V107.34H259.473C257.204 107.355 255.36 105.513 255.36 103.231Z" fill="#010202" stroke="#0B0B0B" stroke-width="2" stroke-miterlimit="10"/>
<path d="M438.08 6.12941V6.10107H351.584V12.7323H413.077C413.048 11.5279 413.204 10.6352 413.219 10.5644L414.608 10.8336C414.608 10.8478 414.452 11.6554 414.495 12.7465H422.749L418.111 18.1875C419.288 18.5417 420.763 18.5842 422.508 18.3008L422.735 19.7036C421.884 19.8453 421.09 19.902 420.338 19.902C419.118 19.902 418.055 19.7036 417.133 19.3494L352.137 95.4384V95.4951L430.435 95.1267V114H438.094V93.9648V88.4813V36.3241H454.687V29.6929H438.094V6.12941H438.08ZM430.421 88.4813L367.567 89.048L430.421 15.807V88.4813Z" fill="#010202" stroke="#0B0B0B" stroke-width="2" stroke-miterlimit="10"/>
<path d="M511.854 6.95117H469.989V12.8173H511.216C519.385 12.8173 523.469 16.4729 523.469 23.7843V60.0435C523.469 67.4398 519.385 71.138 511.216 71.138H483.264V97.3512H490.794V77.0041H511.854C524.618 77.0041 531 72.3282 531 62.9765V20.9788C531 11.627 524.618 6.95117 511.854 6.95117Z" fill="#010202" stroke="#0B0B0B" stroke-width="2" stroke-miterlimit="10"/>
<path d="M490.794 103.132H483.264V113.986H490.794V103.132Z" fill="#010202" stroke="#0B0B0B" stroke-width="2" stroke-miterlimit="10"/>
<path d="M29.9528 20.3838H28.96C28.4637 21.3331 28.1233 22.3817 27.9531 23.4869L29.9528 20.3838Z" fill="#020304" stroke="#0B0B0B" stroke-width="2" stroke-miterlimit="10"/>
<path d="M44.8578 31.8181L42.1632 27.6382C41.2556 29.1401 39.6247 30.1461 37.7385 30.1461C35.8523 30.1461 34.2213 29.1401 33.3137 27.6382L30.6191 31.8181C32.4202 33.6743 34.9446 34.8503 37.7385 34.8503C40.5323 34.8503 43.0567 33.6743 44.8578 31.8181Z" fill="#020304" stroke="#0B0B0B" stroke-width="2" stroke-miterlimit="10"/>
<path d="M47.5521 23.7277C47.4103 22.5375 47.0416 21.404 46.5169 20.3838H45.3965L47.5521 23.7277Z" fill="#020304" stroke="#0B0B0B" stroke-width="2" stroke-miterlimit="10"/>
<path d="M19.9548 39.9799H25.3581L30.6196 31.8183C28.9036 30.033 27.84 27.6242 27.84 24.9604C27.84 24.4645 27.8825 23.9686 27.9534 23.501L2.63867 62.9766H10.5522L23.5428 42.8137H19.9548V39.9799Z" fill="#010202" stroke="#0B0B0B" stroke-width="2" stroke-miterlimit="10"/>
<path d="M37.7385 15.0701C41.5534 15.0701 44.8578 17.2238 46.5171 20.3836H73.4769V13.7523H41.5676V1H33.9093V13.7523H2V20.3836H28.9598C30.6191 17.2238 33.9235 15.0701 37.7385 15.0701Z" fill="#010202" stroke="#0B0B0B" stroke-width="2" stroke-miterlimit="10"/>
<path d="M44.8574 31.8182L50.1189 39.9797H54.5437V42.8136H51.9484L64.939 62.9764H72.8525L47.5662 23.7275C47.6229 24.1243 47.6513 24.5352 47.6513 24.9461C47.6371 27.6241 46.5734 30.0329 44.8574 31.8182Z" fill="#010202" stroke="#0B0B0B" stroke-width="2" stroke-miterlimit="10"/>
<path d="M92.6087 77.8401C88.7654 74.567 83.4472 72.9375 76.6398 72.9375H32.0235C25.2162 72.9375 19.8838 74.5811 16.0546 77.8401C12.5375 80.844 10.6513 85.4915 10.3535 91.7543C10.623 87.9286 11.8426 85.0097 13.9983 83.0119C16.4659 80.7164 20.5503 79.5687 26.2515 79.5687H32.0235H74.7536H76.6398C81.8871 79.5687 85.6454 80.7164 87.9145 83.0119C90.1836 85.3073 91.3181 88.7929 91.3181 93.4688C91.3181 98.1446 90.1836 101.63 87.9145 103.926C85.6454 106.221 81.8871 107.369 76.6398 107.369H74.7536H32.0235H26.2515C20.5503 107.369 16.4659 106.221 13.9983 103.926C11.8426 101.914 10.623 99.009 10.3535 95.1833C10.6513 101.446 12.5234 106.094 16.0546 109.097C19.8838 112.371 25.2162 114 32.0235 114H76.6398C83.4472 114 88.7796 112.356 92.6087 109.097C96.4378 105.824 98.3665 100.624 98.3665 93.4829C98.3665 86.3416 96.452 81.1132 92.6087 77.8401Z" fill="#010202" stroke="#0B0B0B" stroke-width="2" stroke-miterlimit="10"/>
<path d="M25.9547 106.8H31.7268C26.4795 106.8 22.7212 105.652 20.4521 103.357C18.183 101.062 17.0485 97.5759 17.0485 92.9001C17.0485 88.2242 18.183 84.7386 20.4521 82.4431C22.7212 80.1477 26.4795 79 31.7268 79H25.9547C20.2536 79 16.1692 80.1477 13.7015 82.4431C11.5459 84.441 10.0567 87.7566 9.78727 91.5823C9.75891 92.1491 9.73054 92.7017 9.73054 93.2968C9.73054 93.8919 9.75891 94.4445 9.78727 95.0113C10.0567 98.837 11.5459 101.359 13.7015 103.357C16.1692 105.652 20.2536 106.8 25.9547 106.8Z" fill="#010202" stroke="#0B0B0B" stroke-width="0.75" stroke-miterlimit="10"/>
<path d="M96.4512 6.10107H88.793V65.272H96.4512V36.9618H113.044V30.3305H96.4512V6.10107Z" fill="#010202" stroke="#0B0B0B" stroke-width="2" stroke-miterlimit="10"/>
<path d="M27.967 23.4869C27.8961 23.9686 27.8535 24.4504 27.8535 24.9463C27.8535 27.6101 28.9172 30.0331 30.6332 31.8042L33.3277 27.6243C32.8456 26.845 32.5619 25.924 32.5619 24.9463C32.5619 22.0841 34.8877 19.7603 37.7525 19.7603C40.6172 19.7603 42.9431 22.0841 42.9431 24.9463C42.9431 25.9381 42.6594 26.845 42.1773 27.6243L44.8718 31.8042C46.5878 30.0189 47.6515 27.6101 47.6515 24.9463C47.6515 24.5354 47.6231 24.1245 47.5664 23.7277L45.4107 20.3838H46.5311C44.886 17.224 41.5674 15.0703 37.7525 15.0703C33.9376 15.0703 30.6332 17.224 28.9739 20.3838H29.9666L27.967 23.4869Z" fill="#010202" stroke="#0B0B0B" stroke-width="2" stroke-miterlimit="10"/>
<path d="M25.3715 39.9795L23.542 42.8133H51.9342L50.1047 39.9795H25.3715Z" fill="#010202" stroke="#0B0B0B" stroke-width="2" stroke-miterlimit="10"/>
<path d="M19.9541 39.9795V42.8133H23.5421L25.3716 39.9795H19.9541Z" fill="#010202" stroke="#0B0B0B" stroke-width="2" stroke-miterlimit="10"/>
<path d="M54.5444 39.9795H50.1055L51.9349 42.8133H54.5444V39.9795Z" fill="#010202" stroke="#0B0B0B" stroke-width="2" stroke-miterlimit="10"/>
<path d="M415.999 16.9685C414.836 15.7783 414.524 14.0497 414.482 12.7319H413.063C413.106 14.3047 413.489 16.4018 414.978 17.9462C415.559 18.5555 416.283 19.0089 417.105 19.3206L418.098 18.1588C417.261 17.9179 416.552 17.5212 415.999 16.9685Z" fill="#010202"/>
<path d="M414.609 10.8195L413.219 10.5503C413.205 10.6353 413.035 11.528 413.077 12.7182H414.495C414.467 11.6555 414.609 10.8478 414.609 10.8195Z" fill="#010202" stroke="#0B0B0B" stroke-width="2" stroke-miterlimit="10"/>
<path d="M422.721 19.6753L422.494 18.2725C420.749 18.5559 419.289 18.5134 418.097 18.1592L417.104 19.3211C418.026 19.6895 419.09 19.8737 420.31 19.8737C421.061 19.8878 421.87 19.817 422.721 19.6753Z" fill="#010202" stroke="#0B0B0B" stroke-width="2" stroke-miterlimit="10"/>
</svg>
