<svg width="281" height="89" viewBox="0 0 281 89" fill="none" xmlns="http://www.w3.org/2000/svg">
<g clip-path="url(#clip0_1533_52527)">
<path d="M108.388 13.8544H94.8533C94.6353 12.196 94.0977 10.6686 93.2477 9.27202C92.3977 7.87549 91.2498 6.67533 89.8185 5.67157C88.38 4.66781 86.6872 3.88226 84.7547 3.31491C82.8148 2.74757 80.6716 2.4639 78.3104 2.4639C75.7385 2.4639 73.4282 2.79121 71.3794 3.44584C69.3306 4.10047 67.5869 5.00967 66.1484 6.15891C64.7099 7.31542 63.5983 8.70468 62.8137 10.3122C62.029 11.9269 61.6367 13.6726 61.6367 15.5492V17.9058C61.6367 19.8261 62.029 21.5863 62.8137 23.1792C63.5983 24.7722 64.7099 26.1469 66.1484 27.3034C67.5869 28.4599 69.3306 29.3618 71.3794 30.0237C73.4282 30.6783 75.7385 31.0057 78.3104 31.0057C80.8823 31.0057 83.1926 30.6783 85.2414 30.0237C87.2902 29.3691 89.0339 28.4672 90.4724 27.3034C91.9109 26.1469 93.0225 24.7722 93.8071 23.1792C94.5918 21.5863 94.9841 19.8333 94.9841 17.9058V17.2512H108.388V30.8675H112.312V3.11853H108.388V13.8544ZM91.0609 17.9131C91.0609 19.3533 90.7557 20.6771 90.1454 21.8772C89.5352 23.0774 88.6706 24.103 87.559 24.954C86.4474 25.805 85.1034 26.4596 83.5414 26.9179C81.9721 27.3761 80.2284 27.6089 78.3104 27.6089C76.3924 27.6089 74.6487 27.3834 73.0794 26.9179C71.5102 26.4596 70.1734 25.805 69.0545 24.954C67.9357 24.103 67.0856 23.0774 66.4754 21.8772C65.8651 20.6771 65.5599 19.3606 65.5599 17.9131V15.5564C65.5599 14.1163 65.8651 12.7997 66.4754 11.5996C67.0856 10.3994 67.9429 9.37386 69.0545 8.52284C70.1661 7.67182 71.5102 7.0172 73.0794 6.55896C74.6487 6.10072 76.3924 5.87523 78.3104 5.87523C80.2284 5.87523 81.9721 6.10072 83.5414 6.55896C85.1106 7.0172 86.4474 7.67182 87.559 8.52284C88.6706 9.37386 89.5279 10.3994 90.1454 11.5996C90.7557 12.7997 91.0609 14.1163 91.0609 15.5564V17.9131Z" fill="#0400FA"/>
<path d="M78.3103 9.73026C78.1795 12.3051 77.6128 14.0726 76.6102 15.0327C75.6076 15.9929 74.0383 16.5166 71.9023 16.6038C74.0383 16.6911 75.6076 17.2148 76.6102 18.175C77.6128 19.1351 78.1795 20.9026 78.3103 23.4774C78.441 20.9026 78.9932 19.1351 79.974 18.175C80.9548 17.2148 82.5314 16.6911 84.7109 16.6038C82.5314 16.5166 80.9548 15.9929 79.974 15.0327C78.9932 14.0726 78.441 12.3051 78.3103 9.73026Z" fill="#0400FA"/>
<path d="M108.389 42.0034H69.4833V34.1479H65.5601V53.5903C65.5601 56.3034 67.7542 58.5 70.4641 58.5H112.312V34.1479H108.389V42.0034ZM108.389 55.0959H71.8663C70.5513 55.0959 69.4833 54.0267 69.4833 52.7102V45.4075H108.389V55.0959Z" fill="#0400FA"/>
<path d="M158.083 5.40971H141.736V0.5H137.813V5.40971H121.466V8.81377H158.083V5.40971Z" fill="#0400FA"/>
<path d="M145.659 31.3329C149.146 31.3329 151.922 30.6638 153.992 29.3327C156.063 28.0016 157.102 25.885 157.102 22.9901C157.102 20.0952 156.063 17.9785 153.992 16.6475C151.922 15.3164 149.146 14.6472 145.659 14.6472H133.89C130.402 14.6472 127.62 15.3164 125.556 16.6475C123.486 17.9785 122.447 20.0952 122.447 22.9901C122.447 25.885 123.478 28.0016 125.556 29.3327C127.627 30.6638 130.402 31.3329 133.89 31.3329H145.659ZM126.37 22.9901C126.37 21.1862 126.966 19.8333 128.165 18.9314C129.363 18.0295 131.274 17.5785 133.89 17.5785H145.659C148.275 17.5785 150.178 18.0295 151.384 18.9314C152.583 19.8333 153.179 21.1862 153.179 22.9901C153.179 24.7939 152.576 26.1468 151.384 27.0488C150.185 27.9507 148.275 28.4017 145.659 28.4017H133.89C131.274 28.4017 129.363 27.9507 128.165 27.0488C126.966 26.1468 126.37 24.7939 126.37 22.9901Z" fill="#0400FA"/>
<path d="M170.506 3.1185H166.583V33.035H170.506V19.8115H179.007V16.4074H170.506V3.1185Z" fill="#0400FA"/>
<path d="M130.293 52.9793V48.8115H170.506V38.6866C170.506 37.3701 169.445 36.3081 168.13 36.3081H126.37V39.7122H165.435C166.067 39.7122 166.583 40.2286 166.583 40.8614V45.4075H126.37V54.034C126.37 56.4998 128.368 58.4927 130.823 58.4927H171.153V55.0887H132.4C131.238 55.0959 130.293 54.1504 130.293 52.9793Z" fill="#0400FA"/>
<path d="M223.898 3.13305V3.1185H179.588V6.52256H211.09C211.075 5.9043 211.155 5.44606 211.162 5.4097L211.874 5.5479C211.874 5.55517 211.794 5.96977 211.816 6.52984H216.045L213.669 9.32291C214.272 9.50476 215.027 9.52658 215.921 9.3811L216.037 10.1012C215.601 10.1739 215.194 10.203 214.809 10.203C214.185 10.203 213.64 10.1012 213.167 9.91935L179.871 48.9788V49.0079L219.982 48.8188V58.5073H223.905V48.2223V45.4074V18.6332H232.406V15.2291H223.905V3.13305H223.898ZM219.975 45.4074L187.776 45.6984L219.975 8.10094V45.4074Z" fill="#0400FA"/>
<path d="M258.06 3.55493H236.613V6.56622H257.733C261.917 6.56622 264.01 8.44282 264.01 12.196V30.8093C264.01 34.6061 261.917 36.5045 257.733 36.5045H243.413V49.9608H247.271V39.5158H258.06C264.598 39.5158 267.868 37.1155 267.868 32.3149V10.7558C267.868 5.95523 264.598 3.55493 258.06 3.55493Z" fill="#0400FA"/>
<path d="M247.27 52.9284H243.413V58.5H247.27V52.9284Z" fill="#0400FA"/>
<path d="M14.8198 10.4503H14.3112C14.057 10.9377 13.8826 11.4759 13.7954 12.0433L14.8198 10.4503Z" fill="#0400FA"/>
<path d="M22.4554 16.3202L21.075 14.1744C20.61 14.9454 19.7745 15.4619 18.8083 15.4619C17.842 15.4619 17.0065 14.9454 16.5415 14.1744L15.1611 16.3202C16.0838 17.273 17.377 17.8767 18.8083 17.8767C20.2395 17.8767 21.5327 17.273 22.4554 16.3202Z" fill="#0400FA"/>
<path d="M23.8358 12.1669C23.7631 11.5559 23.5742 10.974 23.3054 10.4503H22.7314L23.8358 12.1669Z" fill="#0400FA"/>
<path d="M9.69798 20.5098H12.466L15.1614 16.3202C14.2823 15.4037 13.7374 14.1672 13.7374 12.7997C13.7374 12.5451 13.7592 12.2906 13.7956 12.0505L0.827148 32.3149H4.88114L11.5361 21.9645H9.69798V20.5098Z" fill="#0400FA"/>
<path d="M18.8084 7.72272C20.7627 7.72272 22.4555 8.82832 23.3055 10.4503H37.1167V7.04628H20.77V0.5H16.8467V7.04628H0.5V10.4503H14.3112C15.1612 8.82832 16.854 7.72272 18.8084 7.72272Z" fill="#0400FA"/>
<path d="M22.4556 16.3202L25.151 20.5098H27.4177V21.9645H26.0882L32.7431 32.3149H36.7971L23.8432 12.1669C23.8723 12.3706 23.8868 12.5815 23.8868 12.7925C23.8795 14.1672 23.3347 15.4037 22.4556 16.3202Z" fill="#0400FA"/>
<path d="M46.9176 39.945C44.9487 38.2648 42.2242 37.4283 38.7369 37.4283H15.8806C12.3932 37.4283 9.66153 38.272 7.69992 39.945C5.89814 41.487 4.93187 43.8727 4.7793 47.0877C4.91734 45.1238 5.54215 43.6254 6.64646 42.5998C7.91061 41.4215 10.003 40.8323 12.9236 40.8323H15.8806H37.7707H38.7369C41.4251 40.8323 43.3504 41.4215 44.5128 42.5998C45.6752 43.7782 46.2564 45.5675 46.2564 47.9678C46.2564 50.3681 45.6752 52.1574 44.5128 53.3357C43.3504 54.5141 41.4251 55.1032 38.7369 55.1032H37.7707H15.8806H12.9236C10.003 55.1032 7.91061 54.5141 6.64646 53.3357C5.54215 52.3029 4.91734 50.8118 4.7793 48.8479C4.93187 52.0628 5.89088 54.4486 7.69992 55.9906C9.66153 57.6708 12.3932 58.5073 15.8806 58.5073H38.7369C42.2242 58.5073 44.956 57.6636 46.9176 55.9906C48.8792 54.3104 49.8673 51.641 49.8673 47.9751C49.8673 44.3091 48.8865 41.6252 46.9176 39.945Z" fill="#0400FA"/>
<path d="M12.9234 55.096H15.8803C13.1922 55.096 11.2669 54.5068 10.1045 53.3285C8.94203 52.1501 8.36081 50.3608 8.36081 47.9605C8.36081 45.5602 8.94203 43.7709 10.1045 42.5926C11.2669 41.4142 13.1922 40.8251 15.8803 40.8251H12.9234C10.0028 40.8251 7.91037 41.4142 6.64622 42.5926C5.54191 43.6182 4.9171 45.1165 4.77906 47.0804C4.76453 47.3713 4.75 47.655 4.75 47.9605C4.75 48.266 4.76453 48.5497 4.77906 48.8406C4.9171 50.8045 5.54191 52.3029 6.64622 53.3285C7.91037 54.5068 10.0028 55.096 12.9234 55.096Z" fill="#0400FA"/>
<path d="M48.8866 3.1185H44.9634V33.4932H48.8866V18.9605H57.3869V15.5564H48.8866V3.1185Z" fill="#0400FA"/>
<path d="M13.8028 12.0433C13.7664 12.2906 13.7446 12.5379 13.7446 12.7924C13.7446 14.1599 14.2895 15.4037 15.1686 16.3129L16.549 14.1672C16.302 13.7671 16.1567 13.2943 16.1567 12.7924C16.1567 11.3232 17.3482 10.1303 18.8158 10.1303C20.2833 10.1303 21.4748 11.3232 21.4748 12.7924C21.4748 13.3016 21.3295 13.7671 21.0825 14.1672L22.4629 16.3129C23.342 15.3964 23.8869 14.1599 23.8869 12.7924C23.8869 12.5815 23.8723 12.3706 23.8433 12.1669L22.739 10.4503H23.3129C22.4702 8.82831 20.7701 7.72272 18.8158 7.72272C16.8614 7.72272 15.1686 8.82831 14.3186 10.4503H14.8271L13.8028 12.0433Z" fill="#0400FA"/>
<path d="M12.4729 20.5098L11.5356 21.9645H26.0806L25.1434 20.5098H12.4729Z" fill="#0400FA"/>
<path d="M9.69775 20.5098V21.9645H11.5359L12.4731 20.5098H9.69775Z" fill="#0400FA"/>
<path d="M27.4176 20.5098H25.1436L26.0808 21.9645H27.4176V20.5098Z" fill="#0400FA"/>
<path d="M212.586 8.6974C211.991 8.08642 211.831 7.19903 211.809 6.52258H211.083C211.104 7.32996 211.3 8.40646 212.063 9.19928C212.361 9.51205 212.732 9.74481 213.153 9.90483L213.662 9.30839C213.233 9.18473 212.87 8.98107 212.586 8.6974Z" fill="#0400FA"/>
<path d="M211.874 5.54063L211.162 5.40244C211.155 5.44608 211.068 5.90432 211.09 6.5153H211.816C211.802 5.96978 211.874 5.55518 211.874 5.54063Z" fill="#0400FA"/>
<path d="M216.03 10.0867L215.914 9.36657C215.02 9.51204 214.272 9.49022 213.662 9.30838L213.153 9.90482C213.625 10.0939 214.17 10.1885 214.795 10.1885C215.18 10.1958 215.594 10.1594 216.03 10.0867Z" fill="#0400FA"/>
</g>
<path d="M5.24414 73.0371C5.24414 73.5111 5.36263 73.9645 5.59961 74.3975C5.83659 74.8304 6.17839 75.2132 6.625 75.5459C7.07617 75.8786 7.60938 76.1315 8.22461 76.3047L7.62305 77.3301C6.92578 77.1296 6.31966 76.8242 5.80469 76.4141C5.29427 75.9993 4.90007 75.5094 4.62207 74.9443C4.35319 75.5778 3.95671 76.1292 3.43262 76.5986C2.90853 77.0635 2.29102 77.4121 1.58008 77.6445L0.9375 76.6191C1.55273 76.4414 2.08822 76.1725 2.54395 75.8125C2.99967 75.4479 3.34831 75.0264 3.58984 74.5479C3.83594 74.0693 3.95898 73.5658 3.95898 73.0371V72.8867H1.29297V71.834H3.95898V70.3574H5.25781V71.834H7.91016V72.8867H5.24414V73.0371ZM10.5762 73.502H12.3535V74.5684H10.5762V77.877H9.27734V70.4121H10.5762V73.502ZM6.625 78.1641C7.4681 78.1641 8.19271 78.2529 8.79883 78.4307C9.40951 78.6038 9.87663 78.859 10.2002 79.1963C10.5238 79.529 10.6855 79.9323 10.6855 80.4062C10.6855 80.8711 10.5238 81.2699 10.2002 81.6025C9.87663 81.9398 9.40951 82.195 8.79883 82.3682C8.18815 82.5459 7.46354 82.6348 6.625 82.6348C5.77734 82.6348 5.04362 82.5459 4.42383 82.3682C3.80859 82.195 3.33464 81.9398 3.00195 81.6025C2.67383 81.2699 2.50977 80.8711 2.50977 80.4062C2.50977 79.9323 2.67383 79.529 3.00195 79.1963C3.33008 78.859 3.80176 78.6038 4.41699 78.4307C5.03678 78.2529 5.77279 78.1641 6.625 78.1641ZM6.625 79.1758C5.72266 79.1758 5.02539 79.2806 4.5332 79.4902C4.04557 79.6999 3.80404 80.0052 3.80859 80.4062C3.80404 80.7936 4.04785 81.0967 4.54004 81.3154C5.03223 81.5296 5.72721 81.6367 6.625 81.6367C7.50911 81.6367 8.19499 81.5296 8.68262 81.3154C9.17025 81.0967 9.41406 80.7936 9.41406 80.4062C9.41406 80.0052 9.17025 79.6999 8.68262 79.4902C8.19954 79.2806 7.51367 79.1758 6.625 79.1758ZM16.4414 70.9727C16.9701 70.9681 17.4554 71.0615 17.8975 71.2529C18.3441 71.4443 18.7109 71.7155 18.998 72.0664C19.2897 72.4128 19.4811 72.8138 19.5723 73.2695H21.9648V70.4121H23.2637V76.9883H21.9648V74.3359H19.5791C19.4925 74.8008 19.3034 75.2109 19.0117 75.5664C18.7246 75.9219 18.3577 76.1976 17.9111 76.3936C17.4691 76.5895 16.9792 76.6875 16.4414 76.6875C15.8216 76.6875 15.2679 76.5667 14.7803 76.3252C14.2926 76.0791 13.9121 75.7396 13.6387 75.3066C13.3652 74.8691 13.2285 74.3724 13.2285 73.8164C13.2285 73.265 13.3652 72.7728 13.6387 72.3398C13.9167 71.9069 14.2995 71.5697 14.7871 71.3281C15.2747 71.0866 15.8262 70.9681 16.4414 70.9727ZM16.4414 72.0527C16.0586 72.0527 15.7168 72.1279 15.416 72.2783C15.1198 72.4242 14.8874 72.6315 14.7188 72.9004C14.5547 73.1647 14.4727 73.4701 14.4727 73.8164C14.4727 74.1628 14.5547 74.4704 14.7188 74.7393C14.8874 75.0081 15.1198 75.2178 15.416 75.3682C15.7168 75.5186 16.0586 75.5938 16.4414 75.5938C16.8151 75.5938 17.1478 75.5186 17.4395 75.3682C17.7357 75.2178 17.9658 75.0081 18.1299 74.7393C18.2985 74.4704 18.3828 74.1628 18.3828 73.8164C18.3828 73.4701 18.3008 73.1647 18.1367 72.9004C17.9727 72.6315 17.7425 72.4242 17.4463 72.2783C17.1501 72.1279 16.8151 72.0527 16.4414 72.0527ZM16.5645 78.998H21.9648V77.5762H23.2637V82.5117H15.2793V77.5762H16.5645V78.998ZM21.9648 81.4453V80.0234H16.5645V81.4453H21.9648ZM36.3477 78.3965H33.5039V82.6621H32.1914V78.3965H29.2656V82.6621H27.9258V78.3965H25.1367V77.3301H36.3477V78.3965ZM30.7148 70.877C31.5716 70.877 32.3281 70.9886 32.9844 71.2119C33.6452 71.4307 34.1579 71.7451 34.5225 72.1553C34.8916 72.5654 35.0762 73.0417 35.0762 73.584C35.0762 74.1172 34.8916 74.5866 34.5225 74.9922C34.1579 75.3932 33.6452 75.7031 32.9844 75.9219C32.3281 76.1361 31.5716 76.2409 30.7148 76.2363C29.8535 76.2409 29.0924 76.1361 28.4316 75.9219C27.7754 75.7031 27.265 75.3932 26.9004 74.9922C26.5358 74.5866 26.3535 74.1172 26.3535 73.584C26.3535 73.0417 26.5358 72.5654 26.9004 72.1553C27.265 71.7451 27.7754 71.4307 28.4316 71.2119C29.0924 70.9886 29.8535 70.877 30.7148 70.877ZM30.7148 71.916C30.1087 71.9206 29.5778 71.9912 29.1221 72.1279C28.6663 72.2646 28.3132 72.4583 28.0625 72.709C27.8118 72.9551 27.6888 73.2467 27.6934 73.584C27.6888 73.9121 27.8118 74.1992 28.0625 74.4453C28.3132 74.6914 28.6663 74.8805 29.1221 75.0127C29.5824 75.1449 30.1133 75.2109 30.7148 75.2109C31.3164 75.2109 31.8451 75.1449 32.3008 75.0127C32.7611 74.8805 33.1165 74.6914 33.3672 74.4453C33.6224 74.1992 33.75 73.9121 33.75 73.584C33.75 73.2467 33.6247 72.9528 33.374 72.7021C33.1234 72.4515 32.7679 72.2601 32.3076 72.1279C31.8519 71.9912 31.321 71.9206 30.7148 71.916ZM44.1543 72.7363H37.2637V71.6973H40.1348V70.3027H41.4199V71.6973H44.1543V72.7363ZM40.7637 73.2969C41.3105 73.2969 41.7959 73.3926 42.2197 73.584C42.6481 73.7754 42.9831 74.0443 43.2246 74.3906C43.4661 74.7324 43.5892 75.1289 43.5938 75.5801C43.5892 76.0312 43.4661 76.4277 43.2246 76.7695C42.9831 77.1113 42.6481 77.3779 42.2197 77.5693C41.7959 77.7562 41.3105 77.8496 40.7637 77.8496C40.2122 77.8496 39.7223 77.7562 39.2939 77.5693C38.8701 77.3779 38.5397 77.1113 38.3027 76.7695C38.0658 76.4277 37.9473 76.0312 37.9473 75.5801C37.9473 75.1289 38.0658 74.7324 38.3027 74.3906C38.5397 74.0443 38.8701 73.7754 39.2939 73.584C39.7223 73.3926 40.2122 73.2969 40.7637 73.2969ZM40.7637 74.2812C40.276 74.2812 39.8864 74.3997 39.5947 74.6367C39.3076 74.8691 39.1641 75.1836 39.1641 75.5801C39.1641 75.9766 39.3076 76.291 39.5947 76.5234C39.8864 76.7513 40.276 76.8652 40.7637 76.8652C41.2467 76.8652 41.6364 76.749 41.9326 76.5166C42.2334 76.2842 42.3861 75.972 42.3906 75.5801C42.3861 75.3203 42.3154 75.0924 42.1787 74.8965C42.042 74.7005 41.8506 74.5501 41.6045 74.4453C41.363 74.3359 41.0827 74.2812 40.7637 74.2812ZM47.4629 78.3008H46.1641V76.7285H44.1816V75.6758H46.1641V74.3223H44.1953V73.2695H46.1641V70.4121H47.4629V78.3008ZM43.3887 78.4238C44.2454 78.4238 44.9837 78.5059 45.6035 78.6699C46.2233 78.834 46.6995 79.0755 47.0322 79.3945C47.3649 79.709 47.5312 80.0872 47.5312 80.5293C47.5312 80.9668 47.3649 81.3451 47.0322 81.6641C46.6995 81.9831 46.221 82.2246 45.5967 82.3887C44.9769 82.5573 44.2409 82.6393 43.3887 82.6348C42.5319 82.6393 41.7913 82.5573 41.167 82.3887C40.5426 82.2246 40.0641 81.9831 39.7314 81.6641C39.3988 81.3451 39.2324 80.9668 39.2324 80.5293C39.2324 80.0872 39.3988 79.709 39.7314 79.3945C40.0641 79.0755 40.5404 78.834 41.1602 78.6699C41.7845 78.5059 42.5273 78.4238 43.3887 78.4238ZM43.3887 79.4219C42.5 79.4219 41.8096 79.5176 41.3174 79.709C40.8298 79.8958 40.5859 80.1693 40.5859 80.5293C40.5859 80.8848 40.832 81.1605 41.3242 81.3564C41.8164 81.5524 42.5046 81.6458 43.3887 81.6367C44.25 81.6458 44.9245 81.5524 45.4121 81.3564C45.9043 81.1605 46.1504 80.8848 46.1504 80.5293C46.1504 80.1693 45.9066 79.8958 45.4189 79.709C44.9359 79.5176 44.2591 79.4219 43.3887 79.4219ZM54.9277 70.6172C55.8483 70.6172 56.6344 70.6992 57.2861 70.8633C57.9424 71.0228 58.4414 71.2598 58.7832 71.5742C59.1296 71.8887 59.3027 72.2715 59.3027 72.7227C59.3027 73.1738 59.1296 73.5589 58.7832 73.8779C58.4414 74.1924 57.9424 74.4316 57.2861 74.5957C56.6344 74.7598 55.8483 74.8418 54.9277 74.8418C54.0072 74.8418 53.2188 74.7598 52.5625 74.5957C51.9108 74.4316 51.4118 74.1924 51.0654 73.8779C50.7236 73.5589 50.5527 73.1738 50.5527 72.7227C50.5527 72.2715 50.7236 71.8887 51.0654 71.5742C51.4118 71.2598 51.9108 71.0228 52.5625 70.8633C53.2188 70.6992 54.0072 70.6172 54.9277 70.6172ZM54.9277 71.5742C53.9525 71.5742 53.2028 71.6745 52.6787 71.875C52.1546 72.0755 51.8971 72.3581 51.9062 72.7227C51.9017 73.0964 52.1569 73.3812 52.6719 73.5771C53.1914 73.7731 53.9434 73.8711 54.9277 73.8711C55.9076 73.8711 56.6572 73.7731 57.1768 73.5771C57.7008 73.3812 57.9629 73.0964 57.9629 72.7227C57.9629 72.3581 57.6986 72.0755 57.1699 71.875C56.6458 71.6745 55.8984 71.5742 54.9277 71.5742ZM60.5195 76.6328H49.3496V75.5938H60.5195V76.6328ZM59.1113 80.4473H51.9746V81.541H59.4531V82.5391H50.7031V79.5039H57.8262V78.5469H50.6895V77.5762H59.1113V80.4473ZM74.4102 75.1562H76.3789V76.2227H74.4102V82.6895H73.1113V70.4121H74.4102V75.1562ZM71.1152 72.6406H66.6855V78.5605C67.7702 78.556 68.7227 78.5241 69.543 78.4648C70.3678 78.4056 71.1973 78.3008 72.0312 78.1504L72.1953 79.2441C71.3522 79.3945 70.5228 79.4993 69.707 79.5586C68.8958 79.6133 67.957 79.6406 66.8906 79.6406H66.3711H65.3867V71.5879H71.1152V72.6406ZM81.4648 73.5293C81.4603 74.2676 81.5947 74.9945 81.8682 75.71C82.1462 76.4209 82.5312 77.0544 83.0234 77.6104C83.5202 78.1663 84.0807 78.5833 84.7051 78.8613L83.9258 79.8867C83.2285 79.554 82.611 79.0641 82.0732 78.417C81.5355 77.7653 81.1208 77.0179 80.8291 76.1748C80.542 77.0817 80.1227 77.8838 79.5713 78.5811C79.0244 79.2783 78.3887 79.8047 77.6641 80.1602L76.8711 79.0664C77.5046 78.7839 78.0697 78.3555 78.5664 77.7812C79.0677 77.207 79.4574 76.5485 79.7354 75.8057C80.0133 75.0583 80.1523 74.2995 80.1523 73.5293V71.4375H81.4648V73.5293ZM87.1113 82.6895H85.8125V70.4121H87.1113V82.6895ZM103.682 77.8633H98.8145V80.1191H97.5293V77.8633H92.4707V76.8242H103.682V77.8633ZM102.438 82.4023H93.8652V79.0527H95.1504V81.3496H102.438V82.4023ZM95.2324 72.2852H100.906V70.7949H102.205V75.7441H93.9473V70.7949H95.2324V72.2852ZM100.906 74.7051V73.2559H95.2324V74.7051H100.906ZM108.904 72.3672C108.9 72.9095 109.016 73.4313 109.253 73.9326C109.49 74.4339 109.832 74.8783 110.278 75.2656C110.725 75.6484 111.251 75.9401 111.857 76.1406L111.146 77.1797C110.481 76.9427 109.902 76.5895 109.41 76.1201C108.918 75.6462 108.537 75.0947 108.269 74.4658C108 75.154 107.608 75.7555 107.093 76.2705C106.582 76.7809 105.974 77.1706 105.268 77.4395L104.57 76.3867C105.199 76.168 105.739 75.8535 106.19 75.4434C106.646 75.0286 106.995 74.5524 107.236 74.0146C107.478 73.4723 107.601 72.9004 107.605 72.2988V71.041H108.904V72.3672ZM114.797 82.6621H113.498V79.3398H106.498V78.3145H114.797V82.6621ZM114.797 77.6719H113.498V73.9531H110.914V72.8867H113.498V70.4121H114.797V77.6719ZM122.74 73.4883H116.656V72.4355H119.062V70.7676H120.348V72.4355H122.74V73.4883ZM119.705 74.2266C120.22 74.2266 120.678 74.3473 121.079 74.5889C121.48 74.8258 121.795 75.1585 122.022 75.5869C122.25 76.0107 122.367 76.4961 122.371 77.043C122.367 77.5944 122.25 78.0866 122.022 78.5195C121.795 78.9479 121.48 79.2829 121.079 79.5244C120.678 79.766 120.22 79.8867 119.705 79.8867C119.199 79.8867 118.743 79.766 118.338 79.5244C117.932 79.2829 117.616 78.9456 117.388 78.5127C117.16 78.0798 117.048 77.5898 117.053 77.043C117.048 76.5007 117.16 76.0153 117.388 75.5869C117.616 75.1585 117.932 74.8258 118.338 74.5889C118.743 74.3473 119.199 74.2266 119.705 74.2266ZM119.705 75.3066C119.413 75.3066 119.154 75.3818 118.926 75.5322C118.698 75.6781 118.52 75.8831 118.393 76.1475C118.265 76.4118 118.201 76.7103 118.201 77.043C118.201 77.3848 118.265 77.6878 118.393 77.9521C118.52 78.2119 118.698 78.4147 118.926 78.5605C119.154 78.7064 119.413 78.7793 119.705 78.7793C119.997 78.7793 120.257 78.7064 120.484 78.5605C120.717 78.4147 120.897 78.2119 121.024 77.9521C121.157 77.6878 121.223 77.3848 121.223 77.043C121.223 76.7103 121.157 76.4118 121.024 76.1475C120.897 75.8831 120.717 75.6781 120.484 75.5322C120.252 75.3818 119.992 75.3066 119.705 75.3066ZM127.17 82.6621H125.939V76.5781H124.531V82.0879H123.301V70.6855H124.531V75.5117H125.939V70.4121H127.17V82.6621ZM143.412 81.1445H132.201V80.0645H137.137V77.5488H133.486V71.2461H134.785V73.3516H140.801V71.2461H142.086V77.5488H138.422V80.0645H143.412V81.1445ZM140.801 76.4961V74.4043H134.785V76.4961H140.801ZM154.213 72.791C154.213 73.4792 154.204 74.0785 154.186 74.5889C154.172 75.0947 154.131 75.6803 154.062 76.3457C153.999 77.0111 153.894 77.7311 153.748 78.5059L152.436 78.3691C152.581 77.6354 152.688 76.945 152.757 76.2979C152.83 75.6462 152.873 75.0674 152.887 74.5615C152.905 74.0557 152.914 73.4655 152.914 72.791V72.6406H145.477V71.5879H154.213V72.791ZM155.471 81.0078H144.301V79.9277H148.553V75.6074H149.838V79.9277H155.471V81.0078ZM169.977 77.2207H168.678V70.4258H169.977V77.2207ZM164.275 72.0527C164.271 72.5905 164.392 73.1077 164.638 73.6045C164.888 74.0967 165.244 74.5296 165.704 74.9033C166.169 75.277 166.709 75.5573 167.324 75.7441L166.695 76.7695C165.98 76.5371 165.358 76.1908 164.829 75.7305C164.305 75.2702 163.902 74.7256 163.619 74.0967C163.337 74.7757 162.926 75.3682 162.389 75.874C161.855 76.3753 161.227 76.7467 160.502 76.9883L159.859 75.9629C160.488 75.7578 161.035 75.457 161.5 75.0605C161.965 74.6595 162.323 74.1992 162.573 73.6797C162.824 73.1602 162.949 72.6178 162.949 72.0527V70.8633H164.275V72.0527ZM170.059 78.9297H168.445V81.459H170.182V82.5117H161.65V81.459H163.4V78.9297H161.76V77.8906H170.059V78.9297ZM167.16 81.459V78.9297H164.686V81.459H167.16ZM181.461 75.1562H183.43V76.2227H181.461V82.6895H180.162V70.4121H181.461V75.1562ZM178.166 72.6406H173.736V78.5605C174.821 78.556 175.773 78.5241 176.594 78.4648C177.419 78.4056 178.248 78.3008 179.082 78.1504L179.246 79.2441C178.403 79.3945 177.574 79.4993 176.758 79.5586C175.947 79.6133 175.008 79.6406 173.941 79.6406H173.422H172.438V71.5879H178.166V72.6406ZM190.266 72.4902H192.932V70.4258H194.23V79.3535H192.932V76.1816H190.266V77.248H184.578V71.4512H190.266V72.4902ZM185.863 76.2227H188.994V72.5039H185.863V76.2227ZM194.504 82.4023H186.232V78.5332H187.545V81.3496H194.504V82.4023ZM192.932 75.1152V73.5566H190.266V75.1152H192.932ZM198.127 78.5605C198.132 77.9863 198.188 77.5215 198.298 77.166C198.412 76.806 198.569 76.5189 198.77 76.3047C198.97 76.0859 199.239 75.8717 199.576 75.6621C200.251 75.2428 200.588 74.7188 200.588 74.0898C200.588 73.8118 200.522 73.568 200.39 73.3584C200.262 73.1442 200.084 72.9801 199.856 72.8662C199.633 72.7523 199.385 72.6953 199.111 72.6953C198.856 72.6953 198.617 72.75 198.394 72.8594C198.17 72.9642 197.986 73.126 197.84 73.3447C197.699 73.5635 197.617 73.8346 197.594 74.1582H196.117C196.135 73.5977 196.277 73.1146 196.541 72.709C196.81 72.2988 197.168 71.9889 197.614 71.7793C198.061 71.5697 198.56 71.4648 199.111 71.4648C199.695 71.4648 200.21 71.5765 200.656 71.7998C201.107 72.0186 201.456 72.3262 201.702 72.7227C201.953 73.1191 202.078 73.5749 202.078 74.0898C202.078 74.6185 201.96 75.0765 201.723 75.4639C201.486 75.8467 201.139 76.1771 200.684 76.4551C200.401 76.6237 200.178 76.7992 200.014 76.9814C199.854 77.1637 199.733 77.3802 199.651 77.6309C199.574 77.8815 199.531 78.1914 199.521 78.5605V78.6426H198.127V78.5605ZM198.879 81.5957C198.706 81.5957 198.542 81.5524 198.387 81.4658C198.236 81.3792 198.118 81.2607 198.031 81.1104C197.945 80.96 197.904 80.7982 197.908 80.625C197.904 80.4518 197.945 80.29 198.031 80.1396C198.118 79.9893 198.236 79.8708 198.387 79.7842C198.542 79.6976 198.706 79.6543 198.879 79.6543C199.048 79.6543 199.207 79.6976 199.357 79.7842C199.508 79.8708 199.626 79.9893 199.713 80.1396C199.804 80.29 199.85 80.4518 199.85 80.625C199.85 80.7982 199.804 80.96 199.713 81.1104C199.626 81.2607 199.508 81.3792 199.357 81.4658C199.207 81.5524 199.048 81.5957 198.879 81.5957ZM212.182 78.2871L213.139 79.5244C213.471 79.2054 213.729 78.7952 213.911 78.2939C214.098 77.7926 214.191 77.2116 214.191 76.5508C214.191 75.7669 214.064 75.097 213.809 74.541C213.553 73.985 213.2 73.5635 212.749 73.2764C212.302 72.9893 211.794 72.8457 211.225 72.8457C210.65 72.8457 210.138 72.9893 209.687 73.2764C209.235 73.5635 208.882 73.985 208.627 74.541C208.372 75.097 208.244 75.7669 208.244 76.5508C208.244 77.3346 208.372 78.0046 208.627 78.5605C208.882 79.1165 209.235 79.5381 209.687 79.8252C210.138 80.1123 210.65 80.2559 211.225 80.2559C211.544 80.2559 211.84 80.2126 212.113 80.126L210.705 78.2871H212.182ZM215.682 76.5508C215.682 77.444 215.536 78.2415 215.244 78.9434C214.957 79.6406 214.551 80.2103 214.027 80.6523L215.367 82.3887H213.822L212.988 81.2949C212.451 81.5228 211.863 81.6367 211.225 81.6367C210.363 81.6367 209.593 81.4316 208.914 81.0215C208.24 80.6068 207.711 80.0166 207.328 79.251C206.945 78.4808 206.754 77.5807 206.754 76.5508C206.754 75.5163 206.945 74.6162 207.328 73.8506C207.711 73.0804 208.24 72.4902 208.914 72.0801C209.593 71.6699 210.363 71.4648 211.225 71.4648C212.077 71.4648 212.84 71.6699 213.515 72.0801C214.194 72.4902 214.725 73.0804 215.107 73.8506C215.49 74.6162 215.682 75.5163 215.682 76.5508ZM217.377 71.6016H220.904C221.652 71.6016 222.281 71.7314 222.791 71.9912C223.306 72.251 223.691 72.6156 223.946 73.085C224.206 73.5498 224.336 74.0898 224.336 74.7051C224.336 75.3796 224.183 75.9583 223.878 76.4414C223.573 76.9245 223.124 77.2777 222.531 77.501L224.719 81.5H223.01L221 77.7676H220.904H218.881V81.5H217.377V71.6016ZM220.754 76.4688C221.465 76.4688 221.987 76.3206 222.319 76.0244C222.652 75.7236 222.818 75.2839 222.818 74.7051C222.818 74.1217 222.65 73.6729 222.312 73.3584C221.98 73.0439 221.46 72.8867 220.754 72.8867H218.881V76.4688H220.754ZM231.021 70.6172C231.942 70.6172 232.728 70.6992 233.38 70.8633C234.036 71.0228 234.535 71.2598 234.877 71.5742C235.223 71.8887 235.396 72.2715 235.396 72.7227C235.396 73.1738 235.223 73.5589 234.877 73.8779C234.535 74.1924 234.036 74.4316 233.38 74.5957C232.728 74.7598 231.942 74.8418 231.021 74.8418C230.101 74.8418 229.312 74.7598 228.656 74.5957C228.005 74.4316 227.506 74.1924 227.159 73.8779C226.817 73.5589 226.646 73.1738 226.646 72.7227C226.646 72.2715 226.817 71.8887 227.159 71.5742C227.506 71.2598 228.005 71.0228 228.656 70.8633C229.312 70.6992 230.101 70.6172 231.021 70.6172ZM231.021 71.5742C230.046 71.5742 229.297 71.6745 228.772 71.875C228.248 72.0755 227.991 72.3581 228 72.7227C227.995 73.0964 228.251 73.3812 228.766 73.5771C229.285 73.7731 230.037 73.8711 231.021 73.8711C232.001 73.8711 232.751 73.7731 233.271 73.5771C233.795 73.3812 234.057 73.0964 234.057 72.7227C234.057 72.3581 233.792 72.0755 233.264 71.875C232.74 71.6745 231.992 71.5742 231.021 71.5742ZM236.613 76.6328H225.443V75.5938H236.613V76.6328ZM235.205 80.4473H228.068V81.541H235.547V82.5391H226.797V79.5039H233.92V78.5469H226.783V77.5762H235.205V80.4473ZM251.297 82.6621H249.998V79.3672H242.766V78.3281H251.297V82.6621ZM251.297 77.7402H249.998V70.4121H251.297V77.7402ZM243.969 72.791C243.969 73.3424 244.06 73.9053 244.242 74.4795C244.424 75.0537 244.723 75.5505 245.138 75.9697C245.543 75.5596 245.833 75.0719 246.006 74.5068C246.179 73.9372 246.266 73.3652 246.266 72.791V72.3535H245.418V71.3008H248.918V72.3535H247.51V72.791C247.505 73.2376 247.569 73.6888 247.701 74.1445C247.833 74.5957 248.043 75.0173 248.33 75.4092C248.622 75.8011 248.991 76.1133 249.438 76.3457L248.754 77.2754C247.883 76.8197 247.264 76.0472 246.895 74.958C246.566 76.1019 245.979 76.9154 245.131 77.3984C244.689 77.1387 244.322 76.7992 244.03 76.3799C243.743 75.9606 243.522 75.4889 243.367 74.9648C243.194 75.4753 242.955 75.931 242.649 76.332C242.344 76.7285 241.968 77.043 241.521 77.2754L240.824 76.3457C241.266 76.1087 241.631 75.7943 241.918 75.4023C242.21 75.0059 242.424 74.582 242.561 74.1309C242.697 73.6751 242.766 73.2285 242.766 72.791V72.3535H241.275V71.3008H244.844V72.3535H243.969V72.791ZM256.383 71.3281C256.934 71.3281 257.431 71.4785 257.873 71.7793C258.315 72.0755 258.673 72.5016 258.946 73.0576C259.224 73.609 259.395 74.2585 259.459 75.0059H261.988V70.4121H263.273V82.6895H261.988V76.0586H259.473C259.427 76.8424 259.268 77.526 258.994 78.1094C258.721 78.6927 258.358 79.1416 257.907 79.4561C257.456 79.7705 256.948 79.9277 256.383 79.9277C255.772 79.9277 255.232 79.7523 254.763 79.4014C254.293 79.0459 253.926 78.5446 253.662 77.8975C253.402 77.2458 253.275 76.487 253.279 75.6211C253.275 74.7598 253.402 74.0055 253.662 73.3584C253.926 72.7067 254.293 72.2054 254.763 71.8545C255.237 71.5036 255.777 71.3281 256.383 71.3281ZM256.383 72.4902C256.014 72.4902 255.688 72.6178 255.405 72.873C255.123 73.1283 254.902 73.4928 254.742 73.9668C254.587 74.4362 254.51 74.9876 254.51 75.6211C254.51 76.2591 254.587 76.8151 254.742 77.2891C254.902 77.763 255.123 78.1276 255.405 78.3828C255.688 78.638 256.014 78.7656 256.383 78.7656C256.752 78.7656 257.078 78.638 257.36 78.3828C257.643 78.1276 257.862 77.763 258.017 77.2891C258.176 76.8151 258.256 76.2591 258.256 75.6211C258.256 74.9876 258.176 74.4362 258.017 73.9668C257.862 73.4928 257.643 73.1283 257.36 72.873C257.078 72.6178 256.752 72.4902 256.383 72.4902ZM269.781 72.4492C269.781 72.8092 269.902 73.151 270.144 73.4746C270.39 73.7936 270.736 74.0716 271.183 74.3086C271.634 74.541 272.156 74.7096 272.748 74.8145L272.215 75.8125C271.504 75.6712 270.884 75.4388 270.355 75.1152C269.827 74.7917 269.424 74.402 269.146 73.9463C268.868 74.443 268.457 74.8691 267.915 75.2246C267.373 75.5755 266.728 75.8307 265.98 75.9902L265.434 74.9922C266.049 74.8737 266.584 74.6891 267.04 74.4385C267.496 74.1878 267.847 73.8916 268.093 73.5498C268.339 73.2035 268.464 72.8366 268.469 72.4492V72.3125H265.885V71.2734H272.393V72.3125H269.781V72.4492ZM275.4 82.6621H274.088V79.8047H271.381V78.8066H274.088V70.4258H275.4V82.6621ZM265.105 76.8789C266.646 76.8789 268.077 76.8538 269.398 76.8037C270.725 76.7536 271.982 76.6465 273.172 76.4824L273.254 77.4531C272.247 77.6309 271.066 77.763 269.713 77.8496V82.2793H268.414V77.918C267.685 77.9453 266.641 77.9635 265.283 77.9727L265.105 76.8789ZM278.654 81.5957C278.481 81.5957 278.317 81.5524 278.162 81.4658C278.012 81.3792 277.893 81.2607 277.807 81.1104C277.72 80.96 277.679 80.7982 277.684 80.625C277.679 80.4518 277.72 80.29 277.807 80.1396C277.893 79.9893 278.012 79.8708 278.162 79.7842C278.317 79.6976 278.481 79.6543 278.654 79.6543C278.823 79.6543 278.982 79.6976 279.133 79.7842C279.283 79.8708 279.402 79.9893 279.488 80.1396C279.579 80.29 279.625 80.4518 279.625 80.625C279.625 80.7982 279.579 80.96 279.488 81.1104C279.402 81.2607 279.283 81.3792 279.133 81.4658C278.982 81.5524 278.823 81.5957 278.654 81.5957Z" fill="#767676"/>
<defs>
<clipPath id="clip0_1533_52527">
<rect width="271" height="58" fill="white" transform="translate(0.5 0.5)"/>
</clipPath>
</defs>
</svg>
