<svg width="524" height="247" viewBox="0 0 524 247" fill="none" xmlns="http://www.w3.org/2000/svg">
<path d="M95.3599 212.3H102.88V135.09H95.3599V156.27H69.2899V162.79H95.3599V212.3Z" fill="black"/>
<path d="M15.1499 234.6V205.78H7.62988V241.12H104.13V234.6H15.1499Z" fill="black"/>
<path d="M148.24 141.61H122.3V135.09H188.72V141.61H162.65L188.72 188.48H180.95L155.51 142.61L130.07 188.48H122.3L148.24 141.61ZM122.3 219.69C122.3 212.59 124.32 207.24 128.38 203.65C132.43 200.06 138.13 198.26 145.49 198.26H198.13C205.48 198.26 211.18 200.06 215.24 203.65C219.29 207.24 221.32 212.59 221.32 219.69C221.32 226.79 219.29 232.14 215.24 235.73C211.19 239.32 205.48 241.12 198.13 241.12H145.49C138.14 241.12 132.43 239.32 128.38 235.73C124.33 232.14 122.3 226.79 122.3 219.69ZM129.82 219.69C129.82 224.29 131.03 227.92 133.45 230.59C135.87 233.26 139.88 234.6 145.48 234.6H198.12C203.72 234.6 207.73 233.26 210.15 230.59C212.57 227.92 213.78 224.28 213.78 219.69C213.78 215.1 212.57 211.46 210.15 208.79C207.73 206.12 203.72 204.78 198.12 204.78H145.48C139.88 204.78 135.87 206.12 133.45 208.79C131.03 211.46 129.82 215.1 129.82 219.69ZM211.91 162.16H187.1V155.64H211.91V135.09H219.43V190.73H211.91V162.16Z" fill="black"/>
<path d="M238.23 179.46H270.81V168.43H239.48V135.09H308.28V141.61H247V161.91H308.91V168.43H278.33V179.46H310.91V185.98H238.22V179.46H238.23ZM240.73 215.43H328.46V203.9H240.73V197.38H335.98V221.94H248.25V234.6H337.23V241.12H240.73V215.43ZM328.46 135.09H335.98V189.86H328.46V135.09Z" fill="black"/>
<path d="M240.55 29.23C240.55 25.57 241.16 22.27 242.38 19.31C243.6 16.35 245.27 13.86 247.4 11.81C249.53 9.76003 252.07 8.18003 255.03 7.04003C257.99 5.91003 261.21 5.34003 264.69 5.34003H309.22C312.7 5.34003 315.89 5.91003 318.82 7.04003C321.73 8.17003 324.27 9.77003 326.45 11.81C328.63 13.86 330.32 16.37 331.54 19.31C332.76 22.27 333.37 25.58 333.37 29.23C333.37 32.89 332.76 36.19 331.54 39.15C330.32 42.11 328.63 44.62 326.45 46.65C324.27 48.7 321.72 50.29 318.82 51.42C315.9 52.55 312.7 53.12 309.22 53.12H264.69C261.21 53.12 257.99 52.55 255.03 51.42C252.07 50.29 249.53 48.69 247.4 46.65C245.27 44.6 243.58 42.11 242.38 39.15C241.16 36.21 240.55 32.89 240.55 29.23ZM306.55 76.63H267.38V115.8H259.55V76.63H235.4V69.84H338.54V76.63H314.39V115.8H306.56V76.63H306.55ZM248.38 29.23C248.38 31.58 248.74 33.8 249.48 35.89C250.22 37.98 251.29 39.81 252.69 41.37C254.08 42.94 255.78 44.16 257.78 45.03C259.78 45.9 262.09 46.34 264.7 46.34H309.23C311.84 46.34 314.15 45.9 316.15 45.03C318.15 44.16 319.85 42.94 321.24 41.37C322.63 39.8 323.69 37.98 324.43 35.89C325.17 33.8 325.55 31.58 325.55 29.23C325.55 26.88 325.17 24.66 324.43 22.57C323.69 20.48 322.62 18.65 321.24 17.09C319.85 15.52 318.15 14.3 316.15 13.43C314.15 12.56 311.84 12.12 309.23 12.12H264.7C262.09 12.12 259.78 12.56 257.78 13.43C255.78 14.3 254.08 15.52 252.69 17.09C251.3 18.66 250.22 20.48 249.48 22.57C248.75 24.66 248.38 26.88 248.38 29.23Z" fill="#010202"/>
<path d="M380.89 10.56V0.119995H388.72V10.57H421.36V17.36H348.25V10.57H380.89V10.56ZM350.21 46.21C350.21 39.51 352.27 34.28 356.42 30.54C360.55 26.8 366.09 24.93 373.06 24.93H396.56C403.52 24.93 409.06 26.8 413.2 30.54C417.33 34.28 419.41 39.51 419.41 46.21C419.41 52.91 417.34 58.14 413.2 61.88C409.06 65.62 403.52 67.49 396.56 67.49H373.06C366.1 67.49 360.54 65.62 356.42 61.88C352.27 58.15 350.21 52.92 350.21 46.21ZM357.47 96.35C357.47 92.69 358.07 89.62 359.23 87.14C360.41 84.66 362.06 82.66 364.19 81.13C366.32 79.61 368.9 78.52 371.97 77.87C375.02 77.22 378.45 76.9 382.28 76.9H425.65C429.39 76.9 432.8 77.22 435.91 77.87C439 78.52 441.61 79.61 443.74 81.13C445.87 82.65 447.53 84.66 448.7 87.14C449.87 89.62 450.46 92.7 450.46 96.35C450.46 100.01 449.88 103.07 448.7 105.55C447.52 108.03 445.87 110.03 443.74 111.56C441.61 113.08 439 114.17 435.91 114.82C432.82 115.47 429.4 115.79 425.65 115.79H382.28C378.45 115.79 375.01 115.47 371.97 114.82C368.92 114.17 366.33 113.08 364.19 111.56C362.06 110.04 360.4 108.03 359.23 105.55C358.05 103.08 357.47 100 357.47 96.35ZM358.05 46.21C358.05 50.3 359.27 53.74 361.71 56.53C364.15 59.32 367.93 60.71 373.07 60.71H396.57C401.71 60.71 405.49 59.32 407.93 56.53C410.37 53.74 411.59 50.31 411.59 46.21C411.59 42.11 410.37 38.68 407.93 35.9C405.49 33.11 401.71 31.72 396.57 31.72H373.07C367.93 31.72 364.15 33.11 361.71 35.9C359.27 38.69 358.05 42.12 358.05 46.21ZM365.3 96.35C365.3 101.14 366.66 104.45 369.41 106.27C372.15 108.1 376.43 109.01 382.26 109.01H425.63C431.46 109.01 435.74 108.1 438.5 106.27C441.24 104.44 442.61 101.13 442.61 96.35C442.61 91.56 441.23 88.25 438.5 86.43C435.76 84.6 431.47 83.69 425.63 83.69H382.26C376.43 83.69 372.15 84.6 369.41 86.43C366.67 88.25 365.3 91.56 365.3 96.35ZM443.56 50.65V31.85H424.24V25.06H443.56V5.34H451.39V69.84H443.56V57.44H424.24V50.65H443.56Z" fill="#010202"/>
<path d="M215.41 26.64H188.38C187.95 23.33 186.87 20.29 185.17 17.5C183.47 14.71 181.18 12.32 178.32 10.32C175.45 8.31998 172.07 6.74998 168.21 5.61998C164.34 4.48998 160.06 3.91998 155.34 3.91998C150.21 3.91998 145.59 4.56998 141.5 5.87998C137.41 7.18998 133.93 8.99998 131.06 11.29C128.19 13.6 125.97 16.37 124.4 19.57C122.83 22.79 122.05 26.27 122.05 30.02V34.72C122.05 38.55 122.83 42.06 124.4 45.24C125.97 48.42 128.19 51.16 131.06 53.47C133.93 55.78 137.41 57.58 141.5 58.9C145.59 60.21 150.2 60.86 155.34 60.86C160.48 60.86 165.09 60.21 169.18 58.9C173.27 57.59 176.75 55.8 179.62 53.47C182.49 51.16 184.71 48.42 186.28 45.24C187.85 42.06 188.63 38.57 188.63 34.72V33.41H215.39V60.57H223.22V5.21998H215.39V26.64H215.41ZM180.82 34.73C180.82 37.6 180.21 40.24 178.99 42.64C177.77 45.03 176.05 47.08 173.83 48.78C171.61 50.48 168.93 51.78 165.81 52.7C162.68 53.61 159.19 54.08 155.36 54.08C151.53 54.08 148.05 53.63 144.92 52.7C141.79 51.79 139.12 50.48 136.88 48.78C134.64 47.08 132.95 45.04 131.73 42.64C130.51 40.25 129.9 37.62 129.9 34.73V30.03C129.9 27.16 130.51 24.53 131.73 22.14C132.95 19.75 134.66 17.7 136.88 16C139.1 14.3 141.78 13 144.92 12.08C148.05 11.17 151.54 10.72 155.36 10.72C159.19 10.72 162.67 11.17 165.81 12.08C168.94 12.99 171.61 14.3 173.83 16C176.05 17.7 177.76 19.74 178.99 22.14C180.21 24.53 180.82 27.16 180.82 30.03V34.73Z" fill="#020304"/>
<path d="M155.36 18.41C155.1 23.55 153.97 27.07 151.96 28.99C149.95 30.91 146.83 31.95 142.56 32.12C146.82 32.29 149.96 33.34 151.96 35.25C153.96 37.16 155.09 40.69 155.36 45.83C155.62 40.69 156.72 37.17 158.68 35.25C160.64 33.33 163.79 32.29 168.14 32.12C163.79 31.95 160.64 30.9 158.68 28.99C156.72 27.07 155.62 23.55 155.36 18.41Z" fill="#020304"/>
<path d="M28.59 19.85H27.57C27.06 20.82 26.71 21.9 26.54 23.03L28.59 19.85Z" fill="#030405"/>
<path d="M43.8398 31.55L41.0798 27.27C40.1498 28.81 38.4798 29.84 36.5498 29.84C34.6198 29.84 32.9498 28.81 32.0198 27.27L29.2598 31.55C31.0998 33.45 33.6798 34.65 36.5398 34.65C39.4098 34.66 41.9998 33.45 43.8398 31.55Z" fill="#030405"/>
<path d="M46.5899 23.27C46.4399 22.05 46.0699 20.89 45.5299 19.85H44.3799L46.5899 23.27Z" fill="#030405"/>
<path d="M18.3604 39.91H23.8904L29.2704 31.55C27.5104 29.72 26.4304 27.26 26.4304 24.53C26.4304 24.02 26.4704 23.51 26.5504 23.04L0.650391 63.46H8.74039L22.0304 42.82H18.3604V39.91Z" fill="#020304"/>
<path d="M36.55 14.41C40.45 14.41 43.83 16.62 45.53 19.85H73.11V13.06H40.47V0H32.64V13.06H0V19.85H27.58C29.27 16.61 32.65 14.41 36.55 14.41Z" fill="#020304"/>
<path d="M43.8398 31.55L49.2198 39.91H53.7498V42.81H51.0998L64.3898 63.45H72.4798L46.6098 23.27C46.6698 23.68 46.6998 24.1 46.6998 24.52C46.6798 27.26 45.5898 29.73 43.8398 31.55Z" fill="#020304"/>
<path d="M92.6798 78.67C88.7498 75.32 83.3098 73.65 76.3498 73.65H30.7098C23.7498 73.65 18.2898 75.33 14.3798 78.67C10.7798 81.75 8.8498 86.5 8.5498 92.92C8.8298 89 10.0698 86.01 12.2798 83.97C14.7998 81.62 18.9798 80.44 24.8098 80.44H30.7098H74.4198H76.3498C81.7198 80.44 85.5598 81.62 87.8798 83.97C90.1998 86.32 91.3598 89.89 91.3598 94.68C91.3598 99.47 90.1998 103.04 87.8798 105.39C85.5598 107.74 81.7098 108.91 76.3498 108.91H74.4198H30.7098H24.8098C18.9798 108.91 14.7998 107.74 12.2798 105.39C10.0798 103.33 8.8298 100.35 8.5498 96.44C8.8498 102.85 10.7698 107.61 14.3798 110.69C18.2998 114.04 23.7498 115.71 30.7098 115.71H76.3498C83.3098 115.71 88.7698 114.03 92.6798 110.69C96.5998 107.34 98.5698 102.01 98.5698 94.7C98.5698 87.38 96.6098 82.03 92.6798 78.67Z" fill="#020304"/>
<path d="M24.6003 108.91H30.5003C25.1303 108.91 21.2903 107.74 18.9703 105.39C16.6503 103.04 15.4903 99.47 15.4903 94.68C15.4903 89.89 16.6503 86.32 18.9703 83.97C21.2903 81.62 25.1303 80.44 30.5003 80.44H24.6003C18.7703 80.44 14.5903 81.62 12.0703 83.97C9.87027 86.02 8.62027 89 8.34027 92.92C8.31027 93.5 8.28027 94.07 8.28027 94.68C8.28027 95.29 8.31027 95.86 8.34027 96.44C8.62027 100.36 9.86027 103.35 12.0703 105.39C14.5903 107.73 18.7703 108.91 24.6003 108.91Z" fill="#020304"/>
<path d="M96.6103 5.21997H88.7803V65.8H96.6103V36.82H113.58V30.03H96.6103V5.21997Z" fill="#020304"/>
<path d="M26.5604 23.02C26.4904 23.51 26.4404 24.01 26.4404 24.51C26.4404 27.24 27.5304 29.72 29.2804 31.53L32.0404 27.25C31.5504 26.45 31.2604 25.51 31.2604 24.51C31.2604 21.58 33.6404 19.2 36.5704 19.2C39.5004 19.2 41.8804 21.58 41.8804 24.51C41.8804 25.53 41.5904 26.45 41.1004 27.25L43.8604 31.53C45.6204 29.7 46.7004 27.24 46.7004 24.51C46.7004 24.09 46.6704 23.67 46.6104 23.26L44.4104 19.84H45.5604C43.8804 16.6 40.4804 14.4 36.5804 14.4C32.6804 14.4 29.3004 16.61 27.6004 19.84H28.6204L26.5604 23.02Z" fill="#020304"/>
<path d="M23.91 39.91L22.04 42.81H51.08L49.21 39.91H23.91Z" fill="#020304"/>
<path d="M18.3604 39.91V42.81H22.0304L23.9004 39.91H18.3604Z" fill="#020304"/>
<path d="M53.7402 39.91H49.2002L51.0702 42.81H53.7402V39.91Z" fill="#020304"/>
<path d="M40.4199 148.22L63.6999 192.32H71.7999L45.7699 143C45.2799 144.07 44.6199 145.06 43.8099 145.92C42.8599 146.88 41.7099 147.67 40.4199 148.22Z" fill="#010202"/>
<path d="M9.38957 192.31L32.6596 148.22C31.3696 147.68 30.2096 146.88 29.2496 145.9L29.2596 145.89C28.4496 145.05 27.7996 144.08 27.3196 143L1.30957 192.32H9.38957V192.31Z" fill="#010202"/>
<path d="M27.5495 134.19C27.0395 135.16 26.6895 136.24 26.5195 137.37L28.5595 134.19H27.5595H27.5495Z" fill="#030405"/>
<path d="M36.5202 144.19C35.9502 144.19 35.4202 144.09 34.9202 143.93L32.6602 148.22C33.8502 148.71 35.1502 149 36.5302 149C37.9102 149 39.2302 148.71 40.4202 148.2L38.1602 143.91C37.6402 144.08 37.1002 144.19 36.5202 144.19Z" fill="#030405"/>
<path d="M32.0098 141.63L29.2698 145.89L29.2598 145.9C30.2198 146.89 31.3798 147.69 32.6698 148.22L34.9298 143.92C33.6898 143.53 32.6598 142.72 32.0098 141.63Z" fill="#030405"/>
<path d="M41.0602 141.62C40.4102 142.71 39.3802 143.54 38.1602 143.93L40.4202 148.22C41.7102 147.68 42.8602 146.88 43.8102 145.9L41.0602 141.62Z" fill="#030405"/>
<path d="M46.5601 137.58C46.4201 136.38 46.0401 135.21 45.5001 134.18H44.3701L46.5601 137.58Z" fill="#030405"/>
<path d="M32.5599 135.38C33.5299 134.26 34.9399 133.55 36.5299 133.55C38.1299 133.55 39.5299 134.26 40.4999 135.38H41.7499L45.7499 142.98C46.3099 141.72 46.6499 140.33 46.6499 138.86C46.6499 138.44 46.6199 138.02 46.5599 137.61L46.5499 137.58C46.5499 137.59 46.5499 137.59 46.5499 137.61L44.3399 134.19H44.3499H45.4799H45.4899C43.8099 130.95 40.4099 128.75 36.5099 128.75C32.6099 128.75 29.2299 130.96 27.5299 134.19H28.5299H28.5399L26.4999 137.37C26.4299 137.86 26.3799 138.36 26.3799 138.86C26.3799 140.32 26.6999 141.72 27.2699 142.98L31.2899 135.38H32.5599Z" fill="#020304"/>
<path d="M31.9903 141.62C32.0103 141.62 32.0103 141.62 31.9903 141.62L32.0003 141.61C31.5103 140.81 31.2203 139.87 31.2203 138.87C31.2203 137.54 31.7303 136.32 32.5503 135.39H31.3003L27.2803 142.99C27.7603 144.06 28.4303 145.05 29.2203 145.88L31.9903 141.62Z" fill="#020304"/>
<path d="M40.5195 135.38C41.3295 136.31 41.8495 137.53 41.8495 138.86C41.8495 139.88 41.5495 140.8 41.0495 141.6L43.8095 145.88C44.6195 145.04 45.2695 144.05 45.7695 142.96L41.7695 135.36H40.5195V135.38Z" fill="#020304"/>
<path d="M32.0098 141.63L31.9998 141.62L29.2598 145.88H29.2698L32.0098 141.63Z" fill="#020304"/>
<path d="M44.3701 134.19L46.5801 137.61C46.5801 137.6 46.5801 137.6 46.5801 137.58L44.3701 134.19Z" fill="#020304"/>
<path d="M24.5497 160.06L22.6797 162.96H51.7197L49.8497 160.06H24.5497Z" fill="#020304"/>
<path d="M442.01 135.65V135.62H353.54V142.41H416.44C416.41 141.18 416.57 140.26 416.59 140.19L418.01 140.46C418.01 140.47 417.85 141.3 417.89 142.42H426.33L421.59 147.99C422.79 148.35 424.3 148.4 426.09 148.11L426.32 149.55C425.45 149.7 424.64 149.75 423.87 149.75C422.62 149.75 421.54 149.55 420.59 149.18L354.11 227.09V227.15L434.2 226.77V246.09H442.03V225.58V219.97V166.57H459V159.78H442.03V135.65H442.01ZM434.18 219.97L369.89 220.55L434.18 145.56V219.97Z" fill="#020304"/>
<path d="M504.42 136.49H461.6V142.5H503.77C512.13 142.5 516.3 146.24 516.3 153.73V190.85C516.3 198.42 512.12 202.21 503.77 202.21H475.18V229.05H482.88V208.22H504.42C517.47 208.22 524 203.43 524 193.86V150.86C524 141.28 517.47 136.49 504.42 136.49Z" fill="#020304"/>
<path d="M482.88 234.97H475.18V246.08H482.88V234.97Z" fill="#020304"/>
<path d="M419.43 146.75C418.24 145.53 417.92 143.76 417.88 142.41H416.43C416.47 144.02 416.86 146.17 418.39 147.75C418.99 148.37 419.73 148.84 420.57 149.16L421.58 147.97C420.72 147.72 419.99 147.32 419.43 146.75Z" fill="#020304"/>
<path d="M418.01 140.45L416.59 140.17C416.57 140.26 416.4 141.17 416.44 142.39H417.89C417.86 141.31 418.01 140.48 418.01 140.45Z" fill="#020304"/>
<path d="M426.3 149.52L426.07 148.08C424.29 148.37 422.79 148.33 421.57 147.96L420.55 149.15C421.49 149.53 422.58 149.72 423.83 149.72C424.61 149.74 425.43 149.67 426.3 149.52Z" fill="#020304"/>
<path d="M215.47 26.68H188.42C187.98 23.37 186.91 20.31 185.21 17.53C183.51 14.74 181.22 12.34 178.35 10.33C175.48 8.32997 172.08 6.75997 168.22 5.60997C164.35 4.47997 160.05 3.90997 155.34 3.90997C150.2 3.90997 145.58 4.55997 141.49 5.86997C137.4 7.17997 133.9 8.98997 131.03 11.3C128.16 13.61 125.94 16.39 124.36 19.6C122.79 22.82 122.01 26.32 122.01 30.06V34.77C122.01 38.6 122.79 42.13 124.36 45.3C125.93 48.48 128.15 51.23 131.03 53.54C133.9 55.85 137.4 57.66 141.49 58.98C145.58 60.29 150.21 60.94 155.34 60.94C160.47 60.94 165.1 60.29 169.19 58.98C173.28 57.67 176.78 55.88 179.65 53.54C182.52 51.23 184.74 48.48 186.32 45.3C187.89 42.12 188.67 38.61 188.67 34.77V33.46H215.46V60.66H223.31V5.21997H215.46V26.68H215.47ZM180.83 34.79C180.83 37.66 180.22 40.32 179 42.71C177.78 45.1 176.06 47.16 173.84 48.86C171.62 50.56 168.94 51.86 165.8 52.78C162.67 53.69 159.17 54.16 155.34 54.16C151.51 54.16 148.02 53.71 144.88 52.78C141.75 51.87 139.08 50.56 136.83 48.86C134.6 47.16 132.9 45.12 131.68 42.71C130.46 40.32 129.85 37.68 129.85 34.79V30.08C129.85 27.21 130.46 24.57 131.68 22.17C132.9 19.78 134.61 17.72 136.83 16.02C139.05 14.32 141.73 13.02 144.88 12.09C148.01 11.18 151.51 10.73 155.34 10.73C159.17 10.73 162.67 11.18 165.8 12.09C168.93 13 171.62 14.31 173.84 16.02C176.06 17.72 177.77 19.76 179 22.17C180.22 24.56 180.83 27.2 180.83 30.08V34.79Z" fill="#020304"/>
<path d="M155.33 18.44C155.07 23.59 153.94 27.12 151.94 29.03C149.94 30.94 146.8 31.99 142.53 32.16C146.79 32.33 149.94 33.38 151.94 35.29C153.94 37.2 155.07 40.74 155.33 45.88C155.59 40.73 156.69 37.2 158.65 35.29C160.61 33.37 163.76 32.33 168.12 32.16C163.77 31.99 160.61 30.94 158.65 29.03C156.71 27.12 155.59 23.58 155.33 18.44Z" fill="#020304"/>
<path d="M215.47 82.93H137.69V67.23H129.84V106.08C129.84 111.51 134.22 115.89 139.65 115.89H223.3V67.23H215.45V82.93H215.47ZM215.47 109.08H142.45C139.83 109.08 137.69 106.95 137.69 104.31V89.73H215.47V109.08Z" fill="#020304"/>
</svg>
