<svg width="41" height="45" viewBox="0 0 41 45" fill="none" xmlns="http://www.w3.org/2000/svg">
<g clip-path="url(#clip0_845_3488)">
<rect width="41" height="45" rx="8" fill="white"/>
<g filter="url(#filter0_dii_845_3488)">
<rect width="41" height="46" rx="8" fill="#0400FA" shape-rendering="crispEdges"/>
<g clip-path="url(#clip1_845_3488)">
<path d="M34.6726 33.1756C34.0307 33.3357 34.1092 33.1227 33.6143 33.5567C32.4782 34.5534 32.3438 35.9826 32.8249 37.3709C33.3449 38.8708 34.7046 39.6725 36.0648 40.4201C36.7376 40.7901 37.4008 41.4781 38.1252 41.7331C38.4859 41.86 38.9875 42.0427 39.3621 42.1216C39.7366 42.2004 40.1138 42.1005 40.2954 41.9984C40.4677 41.9013 40.6978 41.7585 40.8538 41.6215C41.0124 41.4817 41.012 41.2446 40.9886 41.051C40.9254 40.5174 40.8461 39.9742 40.6621 39.4673C39.8858 37.3284 38.6663 35.4677 36.8982 34.1234C35.8655 33.3383 35.7238 33.8842 35.3526 33.556C35.264 33.4764 34.7888 33.1467 34.6726 33.1756Z" fill="#564C4B"/>
<path d="M14.5528 16.1752C14.0734 16.1451 13.4532 15.702 13.0632 15.4602C12.5089 15.1166 12.0129 14.6776 11.6227 14.1524C11.2954 13.7117 10.7772 12.9403 11.1056 12.3829C11.2669 12.109 11.5916 11.9874 11.8846 11.921C12.2479 11.8389 12.632 11.8025 13.0031 11.8389C13.544 11.8916 14.0426 12.1102 14.5023 12.393C14.9148 12.6471 15.3629 12.9609 15.6613 13.3519C15.6674 13.3598 15.6734 13.3679 15.6793 13.3763C15.3437 12.8994 14.9945 12.4755 14.7401 11.9381C14.1648 10.7231 14.0048 9.40051 14.1811 8.07264C14.2734 7.3775 14.461 6.57848 15.1089 6.20445C15.9015 5.74676 16.8618 6.14415 17.5872 6.55014C19.5569 7.65308 20.7803 9.71032 20.4299 11.9982C20.4467 11.8883 20.6178 11.7253 20.6825 11.6429C20.9053 11.3579 21.1571 11.0971 21.4338 10.8648C22.237 10.1929 23.2831 9.84223 24.3309 9.96284C26.2263 10.181 24.2742 13.2932 23.7488 14.0396C23.5191 14.366 23.244 14.6635 22.9487 14.9303C22.7787 15.0841 22.6 15.228 22.4159 15.3646C22.2867 15.4604 21.9278 15.8057 21.7708 15.8018C23.3086 15.8371 24.8833 16.1594 26.344 16.6248C27.6368 17.0367 28.8936 17.6117 29.9874 18.4258C30.5584 18.8509 31.0827 19.3416 31.5292 19.8985C32.5081 21.1196 33.3156 22.6768 33.8983 24.1288C34.1016 24.6356 34.2969 25.1405 34.4502 25.6656C34.6409 26.3193 34.7804 26.987 34.8674 27.6627C34.9138 28.0227 34.9448 28.3845 34.9605 28.7481C34.9732 29.0422 34.9082 29.4131 34.9949 29.6932C35.0223 29.7819 35.0685 29.8634 35.1148 29.9441C36.3549 32.1311 37.3045 34.4926 37.7112 36.9881C38.2227 40.1252 37.7424 43.3781 35.8295 45.9732C35.4294 46.514 34.9832 47.0189 34.4962 47.482C34.4962 47.482 31.7573 50.7548 21.0588 50.6687C10.3604 50.5826 7.57729 47.5682 7.57729 47.5682C7.57729 47.5682 3.6403 44.8553 3.81139 41.5831C3.98248 38.311 3.99686 37.5495 4.05394 37.4634C3.97004 37.5902 3.42697 37.0226 3.39356 36.9603C2.8692 35.9866 3.56524 34.4825 3.94892 33.5984C4.20825 33.001 4.70504 32.3511 4.84197 31.7174C4.97261 31.1123 4.80302 30.3243 4.78204 29.7035C4.75612 28.94 4.74579 28.1757 4.76556 27.412C4.80481 25.8968 4.96032 24.3749 5.36093 22.9102C5.52932 22.2949 5.75269 21.672 6.13652 21.157C7.39122 19.4732 9.27259 18.1814 11.1129 17.2281C12.1288 16.7017 13.376 16.0991 14.5528 16.1752Z" fill="#FFFCFC"/>
<path d="M22.2031 36.6328L22.9522 35.6208L22.7739 35.4414H20.6625L20.4843 35.6208L21.2333 36.6328L20.1777 41.5851L21.7183 43.1065L23.2588 41.5851L22.2031 36.6328Z" fill="#AA1F1B"/>
<path d="M23.2508 26.2197C23.1724 27.0518 23.3261 27.8429 23.5836 28.6584C24.0474 30.126 25.4614 31.1183 26.9571 31.3698C27.961 31.5386 28.7222 31.5783 29.7481 31.5656C30.6327 31.5544 31.5376 31.3873 32.2985 30.944L32.365 30.9043C33.754 30.0541 34.6366 28.2189 34.7853 26.6032L35.1333 26.6355C34.9752 28.353 34.0272 30.3427 32.4738 31.2478C31.6695 31.7163 30.7338 31.8939 29.839 31.9151L29.7526 31.9167C28.7112 31.9297 27.9285 31.8892 26.8995 31.7161C25.3324 31.4526 23.8115 30.4202 23.2754 28.8403L23.2506 28.7647C22.9858 27.9263 22.8184 27.0842 22.9029 26.1865L23.2508 26.2197Z" fill="#D0EAF3"/>
<path d="M19.8709 26.1865C19.9554 27.0842 19.788 27.9263 19.5231 28.7647C19.0106 30.3867 17.4667 31.4486 15.8742 31.7156L15.8743 31.7157C14.8453 31.8888 14.0627 31.9292 13.0213 31.9163C12.1006 31.9046 11.1303 31.731 10.3002 31.2474C8.74675 30.3423 7.79874 28.3526 7.64062 26.6351L7.98846 26.6027C8.13957 28.2441 9.04812 30.1119 10.4754 30.9436C11.2363 31.3868 12.1411 31.5539 13.0257 31.5651L13.215 31.5669C14.1477 31.5724 14.8756 31.5276 15.8168 31.3693C17.3129 31.1186 18.7264 30.1256 19.1901 28.6584C19.4477 27.843 19.6014 27.0518 19.523 26.2197L19.8709 26.1865Z" fill="#D0EAF3"/>
<path d="M37.44 23.457C37.4376 23.4073 37.4159 23.2229 37.3781 23.1875C37.3347 23.1468 37.0773 23.1671 37.0057 23.162C36.8592 23.1516 36.7125 23.1409 36.566 23.129C36.2619 23.1044 35.958 23.0759 35.6551 23.0385C35.0813 22.9689 34.5272 22.8124 33.9589 22.7252C32.7691 22.5443 31.5216 22.5384 30.3205 22.5185C29.1018 22.4983 27.8372 22.5559 26.613 22.7082C25.4509 22.8528 24.0743 23.0893 23.1098 23.8181C23.0777 23.8422 23.0464 23.8673 23.0157 23.8935C22.8256 24.0548 22.6916 24.2431 22.5889 24.4712C22.5009 24.6659 22.4429 24.8756 22.3853 25.0819C22.37 25.1364 22.355 25.1912 22.3403 25.246L22.2925 25.2418C22.2507 25.2382 22.2089 25.2346 22.1671 25.2313C22.1084 25.2265 22.0497 25.2219 21.991 25.2177C21.9244 25.2128 21.8578 25.2083 21.7911 25.2041C21.7256 25.2002 21.66 25.1966 21.5944 25.194C21.4684 25.1889 21.3339 25.1894 21.2049 25.1927C21.1581 25.1939 21.1115 25.1958 21.065 25.1981C21.0145 25.2005 20.964 25.2035 20.9136 25.2067C20.8633 25.2099 20.8133 25.2133 20.7631 25.217C20.7171 25.2203 20.6711 25.2239 20.6251 25.2275L20.5118 25.2369L20.4351 25.2435L20.4068 25.246C20.3919 25.1912 20.3769 25.1364 20.3619 25.0819C20.3042 24.8756 20.2462 24.6659 20.1584 24.4712C20.0555 24.2431 19.9217 24.0548 19.7314 23.8935C19.7015 23.8674 19.6694 23.8423 19.6375 23.8181C18.6729 23.0893 17.2964 22.8532 16.1341 22.7082C14.91 22.5559 13.6454 22.4983 12.4266 22.5185C11.2257 22.5384 9.97805 22.5439 8.78822 22.7252C8.21997 22.8119 7.66595 22.9689 7.09201 23.0385C6.78909 23.0753 6.48526 23.1038 6.18129 23.129C6.03477 23.1409 5.8881 23.1516 5.74143 23.162C5.66982 23.1671 5.41259 23.1469 5.36899 23.1875C5.33124 23.2229 5.30907 23.4073 5.30712 23.457C5.30202 23.5637 5.33828 23.6605 5.38907 23.7522C5.51821 23.9859 5.6421 24.2179 5.76495 24.4549C5.83746 24.5951 5.97799 24.9269 6.17065 24.9234C6.17305 24.9234 6.76991 24.9127 6.92782 24.9234C7.08572 24.9341 7.12707 25.0957 7.12707 25.0957C7.28527 25.7051 6.91733 27.2149 7.87 27.2621C8.82882 27.3096 8.64005 26.1393 8.65518 25.5049C8.65518 25.5049 8.62012 24.6652 9.4928 24.2453C10.3655 23.8255 14.1191 23.707 16.0011 23.8577C16.542 23.901 17.0947 23.9438 17.6126 24.124C18.2361 24.3414 18.8 24.7984 18.981 25.4686C19.0598 25.76 19.0979 26.0675 19.1147 26.369C19.1189 26.4444 19.1383 26.6103 19.1962 26.6555C19.4393 26.8462 19.8201 26.7687 20.0801 26.6666C20.0968 26.6613 20.1122 26.6523 20.125 26.6403C20.1587 26.6039 20.1473 26.4688 20.1517 26.4192C20.1559 26.3726 20.16 26.3261 20.164 26.2798C20.166 26.2696 20.1687 26.2595 20.1721 26.2496C20.1829 26.2193 20.1992 26.1913 20.2201 26.167C20.2429 26.1409 20.269 26.1179 20.2977 26.0987C20.3297 26.0773 20.3635 26.0587 20.3987 26.0433C20.4373 26.0263 20.4769 26.0116 20.5172 25.9994C20.5601 25.9863 20.6035 25.9753 20.6471 25.9658C20.6907 25.9563 20.737 25.9478 20.7819 25.9409C20.8269 25.934 20.8718 25.9284 20.9168 25.9237C20.9593 25.9192 21.0019 25.9155 21.0444 25.9127C21.0827 25.9101 21.121 25.908 21.1593 25.9065C21.3262 25.9 21.4948 25.9027 21.6617 25.9125C21.7009 25.9148 21.7403 25.9178 21.7796 25.9213C21.8214 25.9252 21.863 25.9297 21.9047 25.9352C21.9463 25.9406 21.9899 25.9474 22.0323 25.9551C22.0747 25.9627 22.1161 25.9715 22.1574 25.982C22.1987 25.9926 22.2365 26.0035 22.2753 26.0172C22.3112 26.0297 22.3462 26.0445 22.3802 26.0615C22.4114 26.0768 22.4411 26.0951 22.4689 26.1161C22.494 26.1349 22.5165 26.157 22.5357 26.182C22.5536 26.2054 22.5672 26.2319 22.5758 26.2602C22.5776 26.2665 22.5793 26.2729 22.5806 26.2792L22.5928 26.4186C22.5971 26.4682 22.5859 26.6033 22.6196 26.6396C22.6324 26.6517 22.6478 26.6608 22.6645 26.666C22.9245 26.7681 23.3053 26.8456 23.5484 26.6549C23.6064 26.6096 23.6257 26.4431 23.6299 26.3684C23.6467 26.0669 23.6849 25.7594 23.7636 25.468C23.9445 24.7978 24.5084 24.3408 25.1321 24.1234C25.6493 23.9424 26.2026 23.9004 26.7435 23.8571C28.6257 23.7064 32.3793 23.8249 33.2519 24.2447C34.1246 24.6646 34.0896 25.5043 34.0896 25.5043C34.1045 26.1387 33.9155 27.309 34.8746 27.2615C35.8268 27.2143 35.4589 25.7045 35.6175 25.0951C35.6175 25.0951 35.6596 24.9337 35.8174 24.9228C35.9751 24.912 36.572 24.9228 36.5744 24.9228C36.767 24.9263 36.9076 24.5945 36.9802 24.4543C37.1029 24.2173 37.2268 23.9853 37.3561 23.7516C37.4089 23.6605 37.4451 23.5637 37.44 23.457Z" fill="#101728"/>
<path d="M23.5833 30.023C23.5739 29.9778 23.5409 29.9343 23.515 29.8971C23.4692 29.8324 23.4199 29.7702 23.3674 29.7108C23.1238 29.4265 22.829 29.1913 22.4985 29.0173C22.3411 28.9336 22.1736 28.8707 22.0002 28.8302C21.6953 28.7636 21.3798 28.7636 21.075 28.8302C20.9015 28.8707 20.7341 28.9336 20.5767 29.0173C20.2462 29.1913 19.9513 29.4265 19.7077 29.7108C19.6553 29.7702 19.606 29.8324 19.5602 29.8971C19.5343 29.9343 19.5013 29.9775 19.4919 30.023C19.4665 30.1469 19.4679 30.2743 19.5326 30.3863C19.556 30.4269 19.5837 30.4659 19.6268 30.4857C19.7154 30.5264 19.8216 30.5178 19.9146 30.5059C19.9874 30.4965 20.0836 30.4487 20.1194 30.5423C20.1316 30.5751 20.1462 30.6068 20.1629 30.6375C20.1994 30.7004 20.2394 30.7612 20.2827 30.8196C20.3412 30.9018 20.4062 30.9818 20.488 31.0417C20.6755 31.1787 20.9313 31.215 21.1568 31.2295C21.4102 31.2435 21.6643 31.2435 21.9178 31.2295C22.1425 31.2144 22.399 31.1787 22.5866 31.0417C22.6684 30.9813 22.7334 30.9018 22.7918 30.8196C22.8352 30.7612 22.8752 30.7004 22.9117 30.6375C22.9284 30.6068 22.9429 30.5751 22.9551 30.5423C22.9909 30.4487 23.0871 30.4971 23.1599 30.5059C23.2536 30.5178 23.3592 30.5264 23.4477 30.4857C23.4909 30.4659 23.5186 30.4269 23.542 30.3863C23.6071 30.2737 23.6086 30.1469 23.5833 30.023Z" fill="#F8AF61"/>
<path d="M4.42351 32.6613C5.0827 32.7156 5.93515 32.9628 6.49291 33.3117C7.77308 34.112 8.13353 35.501 7.88004 36.9485C7.60603 38.513 6.48032 39.8695 5.25693 40.8271C4.37617 41.5165 3.27039 42.2324 2.22947 42.6347C1.88295 42.7685 1.62287 42.7016 1.26002 42.6626C1.06361 42.6414 0.842187 42.5088 0.666454 42.3984C0.417162 42.2419 0.473042 42.0065 0.498062 41.7502C0.528923 41.4336 0.584355 41.12 0.643682 40.8082C1.06886 38.5716 1.75486 36.3065 2.95263 34.3587C3.21179 33.9352 3.49903 33.5297 3.81242 33.1451C3.88762 33.0536 4.30426 32.6515 4.42351 32.6613Z" fill="#564C4B"/>
<path d="M26.8926 26.7609C26.889 26.6784 26.8649 26.599 26.8056 26.539C26.6707 26.4016 26.4692 26.3644 26.2841 26.3624C26.0766 26.3603 25.8568 26.388 25.6689 26.4808C25.4541 26.5863 25.3177 26.8246 25.3125 27.0625C25.3125 27.0675 25.3125 27.0726 25.3125 27.0776C25.3125 27.1668 25.3299 27.2552 25.3638 27.3376C25.3978 27.42 25.4475 27.4949 25.5102 27.558C25.5729 27.6211 25.6473 27.6711 25.7292 27.7052C25.8111 27.7394 25.8989 27.7569 25.9876 27.7569C26.4038 27.7569 26.7582 27.3524 26.8644 26.9749C26.8849 26.9055 26.8944 26.8333 26.8926 26.7609Z" fill="black"/>
<path d="M26.3017 26.9675C26.3778 26.9675 26.4394 26.9055 26.4394 26.829C26.4394 26.7525 26.3778 26.6904 26.3017 26.6904C26.2257 26.6904 26.1641 26.7525 26.1641 26.829C26.1641 26.9055 26.2257 26.9675 26.3017 26.9675Z" fill="white"/>
<path d="M16.1935 26.7609C16.1971 26.6784 16.2213 26.599 16.2806 26.539C16.4154 26.4016 16.6168 26.3644 16.8021 26.3624C17.0096 26.3603 17.2294 26.388 17.4172 26.4808C17.6321 26.5863 17.7684 26.8246 17.7736 27.0625C17.7736 27.0675 17.7736 27.0726 17.7736 27.0776C17.7734 27.2576 17.7022 27.4301 17.5756 27.5573C17.4491 27.6844 17.2776 27.7559 17.0987 27.7559C16.6825 27.7559 16.3281 27.3514 16.2219 26.9739C16.2015 26.9048 16.1919 26.8329 16.1935 26.7609Z" fill="black"/>
<path d="M16.7842 26.9675C16.8602 26.9675 16.9218 26.9055 16.9218 26.829C16.9218 26.7525 16.8602 26.6904 16.7842 26.6904C16.7081 26.6904 16.6465 26.7525 16.6465 26.829C16.6465 26.9055 16.7081 26.9675 16.7842 26.9675Z" fill="white"/>
</g>
</g>
</g>
<defs>
<filter id="filter0_dii_845_3488" x="-4" y="-3" width="49" height="60" filterUnits="userSpaceOnUse" color-interpolation-filters="sRGB">
<feFlood flood-opacity="0" result="BackgroundImageFix"/>
<feColorMatrix in="SourceAlpha" type="matrix" values="0 0 0 0 0 0 0 0 0 0 0 0 0 0 0 0 0 0 127 0" result="hardAlpha"/>
<feOffset dy="1"/>
<feGaussianBlur stdDeviation="2"/>
<feComposite in2="hardAlpha" operator="out"/>
<feColorMatrix type="matrix" values="0 0 0 0 0 0 0 0 0 0.366667 0 0 0 0 1 0 0 0 0.16 0"/>
<feBlend mode="normal" in2="BackgroundImageFix" result="effect1_dropShadow_845_3488"/>
<feBlend mode="normal" in="SourceGraphic" in2="effect1_dropShadow_845_3488" result="shape"/>
<feColorMatrix in="SourceAlpha" type="matrix" values="0 0 0 0 0 0 0 0 0 0 0 0 0 0 0 0 0 0 127 0" result="hardAlpha"/>
<feOffset dx="1" dy="1"/>
<feGaussianBlur stdDeviation="0.5"/>
<feComposite in2="hardAlpha" operator="arithmetic" k2="-1" k3="1"/>
<feColorMatrix type="matrix" values="0 0 0 0 0 0 0 0 0 0 0 0 0 0 0 0 0 0 0.1 0"/>
<feBlend mode="normal" in2="shape" result="effect2_innerShadow_845_3488"/>
<feColorMatrix in="SourceAlpha" type="matrix" values="0 0 0 0 0 0 0 0 0 0 0 0 0 0 0 0 0 0 127 0" result="hardAlpha"/>
<feOffset dx="-1" dy="-1"/>
<feGaussianBlur stdDeviation="0.5"/>
<feComposite in2="hardAlpha" operator="arithmetic" k2="-1" k3="1"/>
<feColorMatrix type="matrix" values="0 0 0 0 1 0 0 0 0 1 0 0 0 0 1 0 0 0 1 0"/>
<feBlend mode="normal" in2="effect2_innerShadow_845_3488" result="effect3_innerShadow_845_3488"/>
</filter>
<clipPath id="clip0_845_3488">
<rect width="41" height="45" rx="8" fill="white"/>
</clipPath>
<clipPath id="clip1_845_3488">
<rect width="41" height="46" fill="white" transform="translate(0 6)"/>
</clipPath>
</defs>
</svg>
